SplineFontDB: 3.0
FontName: Jinko-Bold
FullName: Jinko-Bold
FamilyName: Jinko
Weight: Bold
Copyright: Copyright (c) 2012, vernon adams (vern@newtypography.co.uk), with Reserved Font Name 'Jinko'
Version: 1.0
ItalicAngle: 0
UnderlinePosition: -50
UnderlineWidth: 50
Ascent: 1638
Descent: 410
sfntRevision: 0x00000000
LayerCount: 2
Layer: 0 1 "Back"  1
Layer: 1 1 "Fore"  0
XUID: [1021 332 1330122705 16174100]
FSType: 0
OS2Version: 4
OS2_WeightWidthSlopeOnly: 0
OS2_UseTypoMetrics: 1
CreationTime: 1337180443
ModificationTime: 1348695956
PfmFamily: 17
TTFWeight: 700
TTFWidth: 5
LineGap: 0
VLineGap: 0
Panose: 2 0 8 3 0 0 0 0 0 0
OS2TypoAscent: 2064
OS2TypoAOffset: 0
OS2TypoDescent: -631
OS2TypoDOffset: 0
OS2TypoLinegap: 0
OS2WinAscent: 2064
OS2WinAOffset: 0
OS2WinDescent: 631
OS2WinDOffset: 0
HheadAscent: 2064
HheadAOffset: 0
HheadDescent: -631
HheadDOffset: 0
OS2SubXSize: 1331
OS2SubYSize: 1433
OS2SubXOff: 0
OS2SubYOff: 286
OS2SupXSize: 1331
OS2SupYSize: 1433
OS2SupXOff: 0
OS2SupYOff: 983
OS2StrikeYSize: 102
OS2StrikeYPos: 530
OS2Vendor: 'newt'
OS2CodePages: 00000093.00000000
OS2UnicodeRanges: a000006f.4000204a.00000000.00000000
Lookup: 258 0 0 "'kern' Horizontal Kerning in Latin lookup 0"  {"'kern' Horizontal Kerning in Latin lookup 0 per glyph data 0"  "'kern' Horizontal Kerning in Latin lookup 0 kerning class 1"  } ['kern' ('DFLT' <'dflt' > 'latn' <'dflt' > ) ]
MarkAttachClasses: 1
DEI: 91125
KernClass2: 29 33 "'kern' Horizontal Kerning in Latin lookup 0 kerning class 1" 
 81 A Agrave Aacute Acircumflex Atilde Adieresis Aring Amacron Abreve Aogonek uni0202
 1 B
 103 D O Q Eth Ograve Oacute Ocircumflex Otilde Odieresis Oslash Dcaron Omacron Obreve Ohungarumlaut uni020E
 1 F
 1 J
 1 K
 1 L
 1 P
 36 R Racute Rcommaaccent Rcaron uni0212
 16 T Tcaron uni021A
 95 U Ugrave Uacute Ucircumflex Udieresis Umacron Ubreve Uring Uhungarumlaut Uogonek uni0216 Utilde
 1 V
 37 W Wcircumflex Wgrave Wacute Wdieresis
 37 Y Yacute Ycircumflex Ydieresis Ygrave
 1 a

StartChar: .notdef
Encoding: 65536 -1 0
Width: 748
Flags: W
LayerCount: 2
Fore
SplineSet
68 0 m 1,0,-1
 68 1365 l 1,1,-1
 612 1365 l 1,2,-1
 612 0 l 1,3,-1
 68 0 l 1,0,-1
136 68 m 1,4,-1
 544 68 l 1,5,-1
 544 1297 l 1,6,-1
 136 1297 l 1,7,-1
 136 68 l 1,4,-1
EndSplineSet
EndChar

StartChar: exclam
Encoding: 33 33 4
Width: 573
Flags: W
LayerCount: 2
Fore
SplineSet
286 -18 m 0,0,1
 206 -18 206 -18 149 39 c 128,-1,2
 92 96 92 96 92 176 c 0,3,4
 92 257 92 257 149 314 c 128,-1,5
 206 371 206 371 286 371 c 0,6,7
 367 371 367 371 424 314 c 128,-1,8
 481 257 481 257 481 176 c 0,9,10
 481 96 481 96 424 39 c 128,-1,11
 367 -18 367 -18 286 -18 c 0,0,1
204 523 m 1,12,-1
 101 1481 l 1,13,-1
 471 1481 l 1,14,-1
 371 523 l 1,15,-1
 204 523 l 1,12,-1
EndSplineSet
EndChar

StartChar: quotedbl
Encoding: 34 34 5
Width: 896
Flags: W
LayerCount: 2
Fore
SplineSet
155 964 m 1,0,-1
 108 1481 l 1,1,-1
 398 1481 l 1,2,-1
 353 964 l 1,3,-1
 155 964 l 1,0,-1
547 964 m 1,4,-1
 502 1481 l 1,5,-1
 791 1481 l 1,6,-1
 745 964 l 1,7,-1
 547 964 l 1,4,-1
EndSplineSet
EndChar

StartChar: numbersign
Encoding: 35 35 6
Width: 1444
Flags: W
LayerCount: 2
Fore
SplineSet
215 10 m 1,0,-1
 295 387 l 1,1,-1
 58 387 l 1,2,-1
 58 583 l 1,3,-1
 338 583 l 1,4,-1
 418 918 l 1,5,-1
 157 918 l 1,6,-1
 157 1111 l 1,7,-1
 461 1111 l 1,8,-1
 537 1467 l 1,9,-1
 762 1467 l 1,10,-1
 688 1111 l 1,11,-1
 942 1111 l 1,12,-1
 1018 1467 l 1,13,-1
 1243 1467 l 1,14,-1
 1166 1111 l 1,15,-1
 1389 1111 l 1,16,-1
 1389 918 l 1,17,-1
 1121 918 l 1,18,-1
 1042 583 l 1,19,-1
 1294 583 l 1,20,-1
 1294 387 l 1,21,-1
 1000 387 l 1,22,-1
 918 10 l 1,23,-1
 696 10 l 1,24,-1
 776 387 l 1,25,-1
 519 387 l 1,26,-1
 437 10 l 1,27,-1
 215 10 l 1,0,-1
563 581 m 1,28,-1
 822 581 l 1,29,-1
 900 921 l 1,30,-1
 642 921 l 1,31,-1
 563 581 l 1,28,-1
EndSplineSet
EndChar

StartChar: dollar
Encoding: 36 36 7
Width: 1219
Flags: W
LayerCount: 2
Fore
SplineSet
538 -275 m 1,0,-1
 538 -10 l 1,1,2
 418 -8 418 -8 282.5 29.5 c 128,-1,3
 147 67 147 67 66 123 c 1,4,-1
 114 354 l 1,5,-1
 155 354 l 1,6,7
 208 308 208 308 323.5 273 c 128,-1,8
 439 238 439 238 541 234 c 1,9,-1
 541 590 l 1,10,11
 456 609 456 609 394.5 629 c 128,-1,12
 333 649 333 649 269 683.5 c 128,-1,13
 205 718 205 718 165.5 761.5 c 128,-1,14
 126 805 126 805 100.5 871 c 128,-1,15
 75 937 75 937 75 1021 c 0,16,17
 75 1188 75 1188 199.5 1296.5 c 128,-1,18
 324 1405 324 1405 538 1427 c 1,19,-1
 538 1601 l 1,20,-1
 688 1601 l 1,21,-1
 688 1429 l 1,22,23
 786 1426 786 1426 901 1396 c 128,-1,24
 1016 1366 1016 1366 1087 1324 c 1,25,-1
 1049 1099 l 1,26,-1
 1005 1099 l 1,27,28
 873 1179 873 1179 684 1185 c 1,29,-1
 684 852 l 1,30,31
 948 794 948 794 1058.5 699.5 c 128,-1,32
 1169 605 1169 605 1169 425 c 0,33,34
 1169 250 1169 250 1036.5 130 c 128,-1,35
 904 10 904 10 688 -6 c 1,36,-1
 688 -275 l 1,37,-1
 538 -275 l 1,0,-1
694 241 m 0,38,39
 767 255 767 255 807 297.5 c 128,-1,40
 847 340 847 340 847 402 c 0,41,42
 847 530 847 530 681 567 c 1,43,-1
 681 237 l 1,44,-1
 686 238 l 2,45,46
 692 240 692 240 694 241 c 0,38,39
547 875 m 1,47,-1
 547 1183 l 1,48,49
 478 1175 478 1175 435 1132.5 c 128,-1,50
 392 1090 392 1090 392 1024 c 0,51,52
 392 968 392 968 424 933 c 128,-1,53
 456 898 456 898 547 875 c 1,47,-1
EndSplineSet
EndChar

StartChar: percent
Encoding: 37 37 8
Width: 2064
Flags: W
LayerCount: 2
Fore
SplineSet
460 848 m 0,0,1
 524 848 524 848 562.5 917 c 128,-1,2
 601 986 601 986 601 1076 c 0,3,4
 601 1162 601 1162 564 1223.5 c 128,-1,5
 527 1285 527 1285 460 1285 c 0,6,7
 394 1285 394 1285 355 1217.5 c 128,-1,8
 316 1150 316 1150 316 1060 c 0,9,10
 316 973 316 973 353.5 910.5 c 128,-1,11
 391 848 391 848 460 848 c 0,0,1
460 651 m 0,12,13
 368 651 368 651 293.5 686 c 128,-1,14
 219 721 219 721 172.5 779.5 c 128,-1,15
 126 838 126 838 101.5 911 c 128,-1,16
 77 984 77 984 77 1063 c 0,17,18
 77 1143 77 1143 101.5 1216.5 c 128,-1,19
 126 1290 126 1290 172 1350 c 128,-1,20
 218 1410 218 1410 292.5 1445.5 c 128,-1,21
 367 1481 367 1481 460 1481 c 0,22,23
 552 1481 552 1481 625.5 1446.5 c 128,-1,24
 699 1412 699 1412 744.5 1354.5 c 128,-1,25
 790 1297 790 1297 813.5 1225 c 128,-1,26
 837 1153 837 1153 837 1074 c 0,27,28
 837 1010 837 1010 822 949 c 128,-1,29
 807 888 807 888 775.5 834 c 128,-1,30
 744 780 744 780 700 739 c 128,-1,31
 656 698 656 698 594 674.5 c 128,-1,32
 532 651 532 651 460 651 c 0,12,13
525 0 m 1,33,-1
 1288 1481 l 1,34,-1
 1541 1481 l 1,35,-1
 777 0 l 1,36,-1
 525 0 l 1,33,-1
1607 196 m 0,37,38
 1672 196 1672 196 1709 262.5 c 128,-1,39
 1746 329 1746 329 1746 418 c 128,-1,40
 1746 507 1746 507 1708.5 571 c 128,-1,41
 1671 635 1671 635 1603 635 c 0,42,43
 1540 635 1540 635 1502.5 565.5 c 128,-1,44
 1465 496 1465 496 1465 406 c 0,45,46
 1465 320 1465 320 1502 258 c 128,-1,47
 1539 196 1539 196 1607 196 c 0,37,38
1607 -1 m 0,48,49
 1515 -1 1515 -1 1440.5 34 c 128,-1,50
 1366 69 1366 69 1319.5 127.5 c 128,-1,51
 1273 186 1273 186 1248.5 259 c 128,-1,52
 1224 332 1224 332 1224 411 c 0,53,54
 1224 491 1224 491 1248.5 565 c 128,-1,55
 1273 639 1273 639 1319.5 698.5 c 128,-1,56
 1366 758 1366 758 1440.5 793.5 c 128,-1,57
 1515 829 1515 829 1607 829 c 128,-1,58
 1699 829 1699 829 1772.5 795 c 128,-1,59
 1846 761 1846 761 1891 703 c 128,-1,60
 1936 645 1936 645 1959.5 573.5 c 128,-1,61
 1983 502 1983 502 1983 423 c 0,62,63
 1983 343 1983 343 1958.5 268 c 128,-1,64
 1934 193 1934 193 1888.5 132.5 c 128,-1,65
 1843 72 1843 72 1769.5 35.5 c 128,-1,66
 1696 -1 1696 -1 1607 -1 c 0,48,49
EndSplineSet
EndChar

StartChar: ampersand
Encoding: 38 38 9
Width: 1557
Flags: W
LayerCount: 2
Fore
SplineSet
647 1504 m 0,0,1
 864 1504 864 1504 980.5 1411.5 c 128,-1,2
 1097 1319 1097 1319 1097 1173 c 0,3,4
 1097 1055 1097 1055 1022.5 962.5 c 128,-1,5
 948 870 948 870 772 800 c 1,6,7
 897 671 897 671 1089 479 c 1,8,9
 1118 525 1118 525 1130 605 c 128,-1,10
 1142 685 1142 685 1142 755 c 2,11,-1
 1142 775 l 1,12,-1
 1447 751 l 1,13,14
 1442 682 1442 682 1435 632.5 c 128,-1,15
 1428 583 1428 583 1411 520 c 128,-1,16
 1394 457 1394 457 1361.5 402.5 c 128,-1,17
 1329 348 1329 348 1280 302 c 1,18,-1
 1615 0 l 1,19,-1
 1192 0 l 1,20,21
 1081 97 1081 97 1069 109 c 1,22,23
 863 -24 863 -24 630 -24 c 0,24,25
 371 -24 371 -24 218.5 104 c 128,-1,26
 66 232 66 232 66 433 c 0,27,28
 66 696 66 696 346 837 c 1,29,30
 262 914 262 914 215.5 986.5 c 128,-1,31
 169 1059 169 1059 169 1154 c 0,32,33
 169 1220 169 1220 195 1279.5 c 128,-1,34
 221 1339 221 1339 274.5 1390.5 c 128,-1,35
 328 1442 328 1442 424 1473 c 128,-1,36
 520 1504 520 1504 647 1504 c 0,0,1
394 465 m 0,37,38
 394 344 394 344 478 278.5 c 128,-1,39
 562 213 562 213 692 213 c 0,40,41
 754 213 754 213 801.5 227 c 128,-1,42
 849 241 849 241 905 274 c 1,43,44
 701 472 701 472 505 668 c 1,45,46
 457 635 457 635 425.5 579 c 128,-1,47
 394 523 394 523 394 465 c 0,37,38
630 1296 m 1,48,49
 576 1297 576 1297 534.5 1263.5 c 128,-1,50
 493 1230 493 1230 493 1159 c 0,51,52
 493 1109 493 1109 525.5 1063 c 128,-1,53
 558 1017 558 1017 630 943 c 1,54,55
 783 1033 783 1033 783 1149 c 0,56,57
 783 1229 783 1229 739.5 1262.5 c 128,-1,58
 696 1296 696 1296 630 1296 c 1,48,49
EndSplineSet
EndChar

StartChar: quotesingle
Encoding: 39 39 10
Width: 514
Flags: W
LayerCount: 2
Fore
SplineSet
156 850 m 1,0,-1
 114 1481 l 1,1,-1
 404 1481 l 1,2,-1
 350 850 l 1,3,-1
 156 850 l 1,0,-1
EndSplineSet
EndChar

StartChar: parenleft
Encoding: 40 40 11
Width: 747
Flags: W
LayerCount: 2
Fore
SplineSet
702 -349 m 1,0,-1
 415 -349 l 1,1,2
 49 67 49 67 49 566 c 0,3,4
 49 847 49 847 142 1063 c 128,-1,5
 235 1279 235 1279 415 1481 c 1,6,-1
 702 1481 l 1,7,-1
 702 1421 l 1,8,9
 353 1025 353 1025 353 566 c 0,10,11
 353 97 353 97 702 -289 c 1,12,-1
 702 -349 l 1,0,-1
EndSplineSet
EndChar

StartChar: parenright
Encoding: 41 41 12
Width: 748
Flags: W
LayerCount: 2
Fore
SplineSet
46 -349 m 1,0,-1
 46 -289 l 1,1,2
 395 97 395 97 395 566 c 0,3,4
 395 1025 395 1025 46 1421 c 1,5,-1
 46 1481 l 1,6,-1
 333 1481 l 1,7,8
 513 1279 513 1279 606 1063 c 128,-1,9
 699 847 699 847 699 566 c 0,10,11
 699 67 699 67 333 -349 c 1,12,-1
 46 -349 l 1,0,-1
EndSplineSet
EndChar

StartChar: asterisk
Encoding: 42 42 13
Width: 991
Flags: W
LayerCount: 2
Fore
SplineSet
92 863 m 0,0,1
 92 922 92 922 141 952 c 1,2,3
 177 972 177 972 279.5 1001 c 128,-1,4
 382 1030 382 1030 405 1038 c 1,5,6
 382 1046 382 1046 279.5 1075 c 128,-1,7
 177 1104 177 1104 141 1124 c 1,8,9
 92 1154 92 1154 92 1213 c 0,10,11
 92 1257 92 1257 122.5 1285.5 c 128,-1,12
 153 1314 153 1314 196 1315 c 0,13,14
 222 1315 222 1315 244 1302 c 0,15,16
 271 1287 271 1287 305.5 1256 c 128,-1,17
 340 1225 340 1225 382.5 1182.5 c 128,-1,18
 425 1140 425 1140 450 1118 c 1,19,20
 446 1139 446 1139 419.5 1242.5 c 128,-1,21
 393 1346 393 1346 393 1388 c 0,22,23
 393 1431 393 1431 425 1460.5 c 128,-1,24
 457 1490 457 1490 496 1490 c 128,-1,25
 535 1490 535 1490 567 1460.5 c 128,-1,26
 599 1431 599 1431 599 1388 c 1,27,28
 550 1159 550 1159 542 1118 c 1,29,30
 567 1140 567 1140 609.5 1182.5 c 128,-1,31
 652 1225 652 1225 686.5 1256 c 128,-1,32
 721 1287 721 1287 748 1302 c 0,33,34
 770 1315 770 1315 797 1315 c 0,35,36
 840 1314 840 1314 870 1285.5 c 128,-1,37
 900 1257 900 1257 900 1213 c 0,38,39
 900 1154 900 1154 851 1124 c 1,40,41
 815 1104 815 1104 712.5 1075 c 128,-1,42
 610 1046 610 1046 588 1038 c 1,43,44
 610 1030 610 1030 712.5 1001 c 128,-1,45
 815 972 815 972 851 952 c 1,46,47
 900 922 900 922 900 863 c 0,48,49
 900 819 900 819 870 790.5 c 128,-1,50
 840 762 840 762 797 761 c 0,51,52
 770 761 770 761 748 774 c 0,53,54
 721 789 721 789 686.5 820 c 128,-1,55
 652 851 652 851 609.5 893.5 c 128,-1,56
 567 936 567 936 542 958 c 1,57,58
 546 937 546 937 572.5 833.5 c 128,-1,59
 599 730 599 730 599 688 c 0,60,61
 599 645 599 645 567 615.5 c 128,-1,62
 535 586 535 586 496 586 c 128,-1,63
 457 586 457 586 425 615.5 c 128,-1,64
 393 645 393 645 393 688 c 1,65,66
 442 917 442 917 450 958 c 1,67,68
 425 936 425 936 382.5 893.5 c 128,-1,69
 340 851 340 851 305.5 820 c 128,-1,70
 271 789 271 789 244 774 c 0,71,72
 222 761 222 761 196 761 c 0,73,74
 153 762 153 762 122.5 790.5 c 128,-1,75
 92 819 92 819 92 863 c 0,0,1
EndSplineSet
EndChar

StartChar: plus
Encoding: 43 43 14
Width: 1423
Flags: W
LayerCount: 2
Fore
SplineSet
595 6 m 1,0,-1
 595 466 l 1,1,-1
 134 466 l 1,2,-1
 134 686 l 1,3,-1
 595 686 l 1,4,-1
 595 1134 l 1,5,-1
 830 1134 l 1,6,-1
 830 686 l 1,7,-1
 1291 686 l 1,8,-1
 1291 466 l 1,9,-1
 830 466 l 1,10,-1
 830 6 l 1,11,-1
 595 6 l 1,0,-1
EndSplineSet
EndChar

StartChar: comma
Encoding: 44 44 15
Width: 467
Flags: W
LayerCount: 2
Fore
SplineSet
63 -263 m 1,0,-1
 114 299 l 1,1,-1
 418 299 l 1,2,-1
 225 -263 l 1,3,-1
 63 -263 l 1,0,-1
EndSplineSet
EndChar

StartChar: hyphen
Encoding: 45 45 16
Width: 836
Flags: W
LayerCount: 2
Fore
SplineSet
94 480 m 1,0,-1
 94 706 l 1,1,-1
 743 706 l 1,2,-1
 743 480 l 1,3,-1
 94 480 l 1,0,-1
EndSplineSet
EndChar

StartChar: period
Encoding: 46 46 17
Width: 574
Flags: W
LayerCount: 2
Fore
SplineSet
287 -18 m 0,0,1
 207 -18 207 -18 149.5 39 c 128,-1,2
 92 96 92 96 92 176 c 0,3,4
 92 257 92 257 149.5 314 c 128,-1,5
 207 371 207 371 287 371 c 0,6,7
 368 371 368 371 425 314 c 128,-1,8
 482 257 482 257 482 176 c 0,9,10
 482 96 482 96 425 39 c 128,-1,11
 368 -18 368 -18 287 -18 c 0,0,1
EndSplineSet
EndChar

StartChar: slash
Encoding: 47 47 18
Width: 1040
Flags: W
LayerCount: 2
Fore
SplineSet
102 0 m 1,0,-1
 634 1481 l 1,1,-1
 916 1481 l 1,2,-1
 382 0 l 1,3,-1
 102 0 l 1,0,-1
EndSplineSet
EndChar

StartChar: zero
Encoding: 48 48 19
Width: 1353
Flags: W
LayerCount: 2
Fore
SplineSet
677 233 m 0,0,1
 729 233 729 233 767 247.5 c 128,-1,2
 805 262 805 262 831 294 c 128,-1,3
 857 326 857 326 873.5 366.5 c 128,-1,4
 890 407 890 407 899 469.5 c 128,-1,5
 908 532 908 532 911 596 c 128,-1,6
 914 660 914 660 914 750 c 0,7,8
 914 854 914 854 909 927 c 128,-1,9
 904 1000 904 1000 889 1064.5 c 128,-1,10
 874 1129 874 1129 847.5 1166.5 c 128,-1,11
 821 1204 821 1204 779 1225.5 c 128,-1,12
 737 1247 737 1247 677 1247 c 0,13,14
 616 1247 616 1247 573 1225.5 c 128,-1,15
 530 1204 530 1204 504 1166.5 c 128,-1,16
 478 1129 478 1129 463 1064.5 c 128,-1,17
 448 1000 448 1000 443 927.5 c 128,-1,18
 438 855 438 855 438 750 c 0,19,20
 438 672 438 672 440 615.5 c 128,-1,21
 442 559 442 559 448 502 c 128,-1,22
 454 445 454 445 465 406 c 128,-1,23
 476 367 476 367 494 332 c 128,-1,24
 512 297 512 297 537 276.5 c 128,-1,25
 562 256 562 256 597 244.5 c 128,-1,26
 632 233 632 233 677 233 c 0,0,1
677 -24 m 0,27,28
 548 -24 548 -24 449.5 12 c 128,-1,29
 351 48 351 48 285 113.5 c 128,-1,30
 219 179 219 179 177 276.5 c 128,-1,31
 135 374 135 374 117 489.5 c 128,-1,32
 99 605 99 605 99 750 c 0,33,34
 99 886 99 886 118.5 999 c 128,-1,35
 138 1112 138 1112 182 1206.5 c 128,-1,36
 226 1301 226 1301 292.5 1366.5 c 128,-1,37
 359 1432 359 1432 456.5 1468 c 128,-1,38
 554 1504 554 1504 677 1504 c 0,39,40
 806 1504 806 1504 904.5 1469 c 128,-1,41
 1003 1434 1003 1434 1069 1371 c 128,-1,42
 1135 1308 1135 1308 1176.5 1213 c 128,-1,43
 1218 1118 1218 1118 1236 1005 c 128,-1,44
 1254 892 1254 892 1254 750 c 0,45,46
 1254 611 1254 611 1234 494.5 c 128,-1,47
 1214 378 1214 378 1170 281 c 128,-1,48
 1126 184 1126 184 1059.5 117 c 128,-1,49
 993 50 993 50 896 13 c 128,-1,50
 799 -24 799 -24 677 -24 c 0,27,28
EndSplineSet
EndChar

StartChar: one
Encoding: 49 49 20
Width: 1088
Flags: W
LayerCount: 2
Fore
SplineSet
175 0 m 1,0,-1
 175 228 l 1,1,-1
 432 228 l 1,2,-1
 432 1152 l 1,3,-1
 168 1093 l 1,4,-1
 168 1300 l 1,5,6
 292 1317 292 1317 354 1359 c 128,-1,7
 416 1401 416 1401 440 1482 c 1,8,9
 476 1482 476 1482 536 1482 c 128,-1,10
 596 1482 596 1482 668.5 1482 c 128,-1,11
 741 1482 741 1482 765 1482 c 1,12,-1
 765 228 l 1,13,-1
 1013 228 l 1,14,-1
 1013 0 l 1,15,-1
 175 0 l 1,0,-1
EndSplineSet
EndChar

StartChar: two
Encoding: 50 50 21
Width: 1222
Flags: W
LayerCount: 2
Fore
SplineSet
106 0 m 1,0,-1
 106 218 l 1,1,2
 775 793 775 793 775 1041 c 0,3,4
 775 1151 775 1151 718 1199 c 128,-1,5
 661 1247 661 1247 566 1247 c 0,6,7
 475 1247 475 1247 369.5 1211 c 128,-1,8
 264 1175 264 1175 198 1133 c 1,9,-1
 130 1373 l 1,10,11
 187 1423 187 1423 333 1463.5 c 128,-1,12
 479 1504 479 1504 604 1504 c 0,13,14
 853 1504 853 1504 984.5 1387 c 128,-1,15
 1116 1270 1116 1270 1116 1066 c 0,16,17
 1116 981 1116 981 1079.5 887.5 c 128,-1,18
 1043 794 1043 794 988 713.5 c 128,-1,19
 933 633 933 633 852 545 c 128,-1,20
 771 457 771 457 699.5 391.5 c 128,-1,21
 628 326 628 326 540 254 c 1,22,-1
 1151 254 l 1,23,-1
 1151 0 l 1,24,-1
 106 0 l 1,0,-1
EndSplineSet
EndChar

StartChar: three
Encoding: 51 51 22
Width: 1207
Flags: W
LayerCount: 2
Fore
SplineSet
553 -24 m 0,0,1
 260 -24 260 -24 94 95 c 1,2,-1
 94 369 l 1,3,-1
 161 369 l 1,4,5
 165 363 165 363 174 354 c 128,-1,6
 183 345 183 345 214 321.5 c 128,-1,7
 245 298 245 298 282 280 c 128,-1,8
 319 262 319 262 381 247.5 c 128,-1,9
 443 233 443 233 511 233 c 0,10,11
 596 233 596 233 660.5 253.5 c 128,-1,12
 725 274 725 274 766.5 325.5 c 128,-1,13
 808 377 808 377 808 455 c 0,14,15
 808 674 808 674 515 674 c 2,16,-1
 382 674 l 1,17,-1
 382 880 l 1,18,-1
 459 880 l 2,19,20
 607 880 607 880 682 925.5 c 128,-1,21
 757 971 757 971 757 1070 c 0,22,23
 757 1131 757 1131 719.5 1172.5 c 128,-1,24
 682 1214 682 1214 628 1230.5 c 128,-1,25
 574 1247 574 1247 507 1247 c 0,26,27
 443 1247 443 1247 383.5 1233 c 128,-1,28
 324 1219 324 1219 286 1199.5 c 128,-1,29
 248 1180 248 1180 218.5 1160 c 128,-1,30
 189 1140 189 1140 176 1126 c 2,31,-1
 163 1112 l 1,32,-1
 94 1112 l 1,33,-1
 94 1379 l 1,34,35
 167 1431 167 1431 296.5 1467.5 c 128,-1,36
 426 1504 426 1504 554 1504 c 0,37,38
 689 1504 689 1504 794.5 1472 c 128,-1,39
 900 1440 900 1440 964 1384.5 c 128,-1,40
 1028 1329 1028 1329 1060.5 1259 c 128,-1,41
 1093 1189 1093 1189 1093 1109 c 0,42,43
 1093 1041 1093 1041 1072 984 c 128,-1,44
 1051 927 1051 927 1014.5 887.5 c 128,-1,45
 978 848 978 848 935.5 821 c 128,-1,46
 893 794 893 794 844 778 c 1,47,48
 969 748 969 748 1058 655 c 128,-1,49
 1147 562 1147 562 1147 425 c 0,50,51
 1147 218 1147 218 990 97 c 128,-1,52
 833 -24 833 -24 553 -24 c 0,0,1
EndSplineSet
EndChar

StartChar: four
Encoding: 52 52 23
Width: 1277
Flags: W
LayerCount: 2
Fore
SplineSet
734 0 m 1,0,-1
 734 245 l 1,1,-1
 51 245 l 1,2,-1
 51 485 l 1,3,-1
 582 1481 l 1,4,-1
 1047 1481 l 1,5,-1
 1047 480 l 1,6,-1
 1220 480 l 1,7,-1
 1220 245 l 1,8,-1
 1047 245 l 1,9,-1
 1047 0 l 1,10,-1
 734 0 l 1,0,-1
356 480 m 1,11,-1
 734 480 l 1,12,-1
 734 1229 l 1,13,-1
 356 480 l 1,11,-1
EndSplineSet
EndChar

StartChar: five
Encoding: 53 53 24
Width: 1216
Flags: W
LayerCount: 2
Fore
SplineSet
573 -24 m 0,0,1
 262 -24 262 -24 102 111 c 1,2,-1
 102 369 l 1,3,-1
 165 369 l 1,4,5
 170 363 170 363 180 354 c 128,-1,6
 190 345 190 345 224 321.5 c 128,-1,7
 258 298 258 298 297 280 c 128,-1,8
 336 262 336 262 399 247.5 c 128,-1,9
 462 233 462 233 529 233 c 0,10,11
 822 233 822 233 822 464 c 0,12,13
 822 690 822 690 480 715 c 1,14,-1
 134 738 l 1,15,-1
 134 1481 l 1,16,-1
 1051 1481 l 1,17,-1
 1051 1227 l 1,18,-1
 447 1227 l 1,19,-1
 447 942 l 1,20,-1
 480 939 l 2,21,22
 512 936 512 936 554 933 c 128,-1,23
 596 930 596 930 612 928 c 0,24,25
 687 922 687 922 756.5 907 c 128,-1,26
 826 892 826 892 902.5 858 c 128,-1,27
 979 824 979 824 1034 775.5 c 128,-1,28
 1089 727 1089 727 1125.5 648.5 c 128,-1,29
 1162 570 1162 570 1162 471 c 0,30,31
 1162 222 1162 222 1007.5 99 c 128,-1,32
 853 -24 853 -24 573 -24 c 0,0,1
EndSplineSet
EndChar

StartChar: six
Encoding: 54 54 25
Width: 1252
Flags: W
LayerCount: 2
Fore
SplineSet
629 -24 m 0,0,1
 381 -24 381 -24 235 130 c 128,-1,2
 89 284 89 284 89 555 c 0,3,4
 89 743 89 743 146 906 c 128,-1,5
 203 1069 203 1069 310.5 1194.5 c 128,-1,6
 418 1320 418 1320 586.5 1396.5 c 128,-1,7
 755 1473 755 1473 965 1482 c 1,8,-1
 1017 1247 l 1,9,10
 788 1226 788 1226 649 1129 c 128,-1,11
 510 1032 510 1032 462 845 c 1,12,13
 517 888 517 888 595.5 916.5 c 128,-1,14
 674 945 674 945 743 945 c 0,15,16
 935 945 935 945 1050.5 826 c 128,-1,17
 1166 707 1166 707 1166 487 c 0,18,19
 1166 250 1166 250 1020.5 113 c 128,-1,20
 875 -24 875 -24 629 -24 c 0,0,1
615 205 m 0,21,22
 728 205 728 205 782 278 c 128,-1,23
 836 351 836 351 836 477 c 0,24,25
 836 591 836 591 776.5 651.5 c 128,-1,26
 717 712 717 712 623 712 c 0,27,28
 525 711 525 711 468.5 637.5 c 128,-1,29
 412 564 412 564 412 464 c 0,30,31
 412 354 412 354 465 279.5 c 128,-1,32
 518 205 518 205 615 205 c 0,21,22
EndSplineSet
EndChar

StartChar: seven
Encoding: 55 55 26
Width: 1199
Flags: W
LayerCount: 2
Fore
SplineSet
215 0 m 1,0,-1
 768 1239 l 1,1,-1
 319 1239 l 1,2,-1
 319 1087 l 1,3,-1
 99 1087 l 1,4,-1
 99 1481 l 1,5,-1
 1131 1481 l 1,6,-1
 1131 1242 l 1,7,-1
 590 0 l 1,8,-1
 215 0 l 1,0,-1
EndSplineSet
EndChar

StartChar: eight
Encoding: 56 56 27
Width: 1309
Flags: W
LayerCount: 2
Fore
SplineSet
654 -25 m 0,0,1
 383 -25 383 -25 233.5 96 c 128,-1,2
 84 217 84 217 84 402 c 0,3,4
 84 525 84 525 156 610 c 128,-1,5
 228 695 228 695 359 756 c 1,6,7
 275 799 275 799 219 864 c 128,-1,8
 163 929 163 929 142.5 989 c 128,-1,9
 122 1049 122 1049 122 1110 c 0,10,11
 122 1190 122 1190 158.5 1261 c 128,-1,12
 195 1332 195 1332 261.5 1386.5 c 128,-1,13
 328 1441 328 1441 430 1473 c 128,-1,14
 532 1505 532 1505 656 1505 c 0,15,16
 901 1505 901 1505 1038 1408 c 128,-1,17
 1175 1311 1175 1311 1184 1156 c 1,18,19
 1185 1096 1185 1096 1164.5 1031 c 128,-1,20
 1144 966 1144 966 1089.5 898.5 c 128,-1,21
 1035 831 1035 831 956 792 c 1,22,23
 1225 671 1225 671 1225 420 c 0,24,25
 1225 222 1225 222 1071 98.5 c 128,-1,26
 917 -25 917 -25 654 -25 c 0,0,1
668 216 m 0,27,28
 758 216 758 216 824 268 c 128,-1,29
 890 320 890 320 890 404 c 0,30,31
 890 430 890 430 885 454.5 c 128,-1,32
 880 479 880 479 861 513 c 128,-1,33
 842 547 842 547 810 574.5 c 128,-1,34
 778 602 778 602 717.5 627 c 128,-1,35
 657 652 657 652 575 665 c 1,36,37
 516 636 516 636 465 575 c 128,-1,38
 414 514 414 514 414 438 c 0,39,40
 414 337 414 337 482.5 276.5 c 128,-1,41
 551 216 551 216 668 216 c 0,27,28
742 881 m 1,42,43
 862 979 862 979 862 1096 c 0,44,45
 862 1174 862 1174 806 1220.5 c 128,-1,46
 750 1267 750 1267 660 1267 c 0,47,48
 582 1267 582 1267 520 1225.5 c 128,-1,49
 458 1184 458 1184 458 1110 c 0,50,51
 458 1065 458 1065 476.5 1031 c 128,-1,52
 495 997 495 997 536.5 970 c 128,-1,53
 578 943 578 943 623 924 c 128,-1,54
 668 905 668 905 742 881 c 1,42,43
EndSplineSet
EndChar

StartChar: nine
Encoding: 57 57 28
Width: 1243
Flags: W
LayerCount: 2
Fore
SplineSet
271 -8 m 1,0,1
 230 173 230 173 219 213 c 1,2,3
 258 216 258 216 312 227.5 c 128,-1,4
 366 239 366 239 447 270 c 128,-1,5
 528 301 528 301 597.5 344.5 c 128,-1,6
 667 388 667 388 727 462.5 c 128,-1,7
 787 537 787 537 808 629 c 1,8,9
 704 528 704 528 498 528 c 0,10,11
 439 528 439 528 381 543 c 128,-1,12
 323 558 323 558 266.5 592.5 c 128,-1,13
 210 627 210 627 167 678.5 c 128,-1,14
 124 730 124 730 97.5 809 c 128,-1,15
 71 888 71 888 71 985 c 0,16,17
 71 1219 71 1219 219 1357 c 128,-1,18
 367 1495 367 1495 612 1495 c 0,19,20
 864 1495 864 1495 1009 1337.5 c 128,-1,21
 1154 1180 1154 1180 1154 893 c 0,22,23
 1154 752 1154 752 1121 622 c 128,-1,24
 1088 492 1088 492 1016.5 377 c 128,-1,25
 945 262 945 262 843 176.5 c 128,-1,26
 741 91 741 91 594 41.5 c 128,-1,27
 447 -8 447 -8 271 -8 c 1,0,1
617 765 m 0,28,29
 715 765 715 765 765 832 c 128,-1,30
 815 899 815 899 815 991 c 0,31,32
 815 1115 815 1115 764 1187 c 128,-1,33
 713 1259 713 1259 619 1259 c 128,-1,34
 525 1259 525 1259 466 1196.5 c 128,-1,35
 407 1134 407 1134 407 1007 c 0,36,37
 407 885 407 885 464 825 c 128,-1,38
 521 765 521 765 617 765 c 0,28,29
EndSplineSet
EndChar

StartChar: colon
Encoding: 58 58 29
Width: 569
Flags: W
LayerCount: 2
Fore
SplineSet
283 0 m 128,-1,1
 203 0 203 0 147 56 c 128,-1,2
 91 112 91 112 91 192 c 0,3,4
 91 271 91 271 147 327 c 128,-1,5
 203 383 203 383 283 383 c 128,-1,6
 363 383 363 383 419.5 327 c 128,-1,7
 476 271 476 271 476 192 c 0,8,9
 476 112 476 112 419.5 56 c 128,-1,0
 363 0 363 0 283 0 c 128,-1,1
283 650 m 128,-1,11
 203 650 203 650 147 706 c 128,-1,12
 91 762 91 762 91 842 c 128,-1,13
 91 922 91 922 147.5 978 c 128,-1,14
 204 1034 204 1034 283 1034 c 0,15,16
 363 1034 363 1034 419.5 978 c 128,-1,17
 476 922 476 922 476 842 c 128,-1,18
 476 762 476 762 419.5 706 c 128,-1,10
 363 650 363 650 283 650 c 128,-1,11
EndSplineSet
EndChar

StartChar: semicolon
Encoding: 59 59 30
Width: 584
Flags: W
LayerCount: 2
Fore
SplineSet
119 -263 m 1,0,-1
 170 299 l 1,1,-1
 475 299 l 1,2,-1
 282 -263 l 1,3,-1
 119 -263 l 1,0,-1
291 650 m 128,-1,5
 211 650 211 650 155 706 c 128,-1,6
 99 762 99 762 99 842 c 128,-1,7
 99 922 99 922 155.5 978 c 128,-1,8
 212 1034 212 1034 291 1034 c 0,9,10
 371 1034 371 1034 427.5 978 c 128,-1,11
 484 922 484 922 484 842 c 128,-1,12
 484 762 484 762 427.5 706 c 128,-1,4
 371 650 371 650 291 650 c 128,-1,5
EndSplineSet
EndChar

StartChar: less
Encoding: 60 60 31
Width: 1437
Flags: W
LayerCount: 2
Fore
SplineSet
1321 -15 m 1,0,-1
 101 471 l 1,1,-1
 101 678 l 1,2,-1
 1321 1163 l 1,3,-1
 1321 916 l 1,4,5
 493 601 493 601 427 580 c 1,6,7
 1321 234 l 1,8,-1
 1321 -15 l 1,0,-1
EndSplineSet
EndChar

StartChar: equal
Encoding: 61 61 32
Width: 1452
Flags: W
LayerCount: 2
Fore
SplineSet
148 228 m 1,0,-1
 148 458 l 1,1,-1
 1307 458 l 1,2,-1
 1307 228 l 1,3,-1
 148 228 l 1,0,-1
148 693 m 1,4,-1
 148 923 l 1,5,-1
 1307 923 l 1,6,-1
 1307 693 l 1,7,-1
 148 693 l 1,4,-1
EndSplineSet
EndChar

StartChar: greater
Encoding: 62 62 33
Width: 1437
Flags: W
LayerCount: 2
Fore
SplineSet
119 -15 m 1,0,-1
 119 234 l 1,1,-1
 989 574 l 1,2,-1
 119 916 l 1,3,-1
 119 1163 l 1,4,-1
 1339 678 l 1,5,-1
 1339 470 l 1,6,-1
 119 -15 l 1,0,-1
EndSplineSet
EndChar

StartChar: question
Encoding: 63 63 34
Width: 1052
Flags: W
LayerCount: 2
Fore
SplineSet
525 518 m 1,0,-1
 359 535 l 1,1,2
 426 617 426 617 467.5 673 c 128,-1,3
 509 729 509 729 554 799 c 128,-1,4
 599 869 599 869 620.5 929 c 128,-1,5
 642 989 642 989 642 1041 c 0,6,7
 642 1142 642 1142 582.5 1194 c 128,-1,8
 523 1246 523 1246 431 1246 c 0,9,10
 342 1246 342 1246 238 1201.5 c 128,-1,11
 134 1157 134 1157 87 1113 c 1,12,-1
 87 1376 l 1,13,14
 128 1400 128 1400 153 1413 c 128,-1,15
 178 1426 178 1426 236 1451.5 c 128,-1,16
 294 1477 294 1477 357 1490 c 128,-1,17
 420 1503 420 1503 484 1503 c 0,18,19
 709 1503 709 1503 839.5 1394.5 c 128,-1,20
 970 1286 970 1286 970 1116 c 0,21,22
 970 1074 970 1074 962 1033 c 128,-1,23
 954 992 954 992 943 958 c 128,-1,24
 932 924 932 924 909.5 887 c 128,-1,25
 887 850 887 850 870 824 c 128,-1,26
 853 798 853 798 819.5 764 c 128,-1,27
 786 730 786 730 766 710.5 c 128,-1,28
 746 691 746 691 705.5 657.5 c 128,-1,29
 665 624 665 624 646.5 609.5 c 128,-1,30
 628 595 628 595 584 562 c 128,-1,31
 540 529 540 529 525 518 c 1,0,-1
424 -19 m 128,-1,33
 339 -19 339 -19 280 40 c 128,-1,34
 221 99 221 99 221 184 c 0,35,36
 221 268 221 268 280.5 328 c 128,-1,37
 340 388 340 388 424 388 c 0,38,39
 509 388 509 388 568.5 328 c 128,-1,40
 628 268 628 268 628 184 c 0,41,42
 628 99 628 99 568.5 40 c 128,-1,32
 509 -19 509 -19 424 -19 c 128,-1,33
EndSplineSet
EndChar

StartChar: at
Encoding: 64 64 35
Width: 1792
Flags: W
LayerCount: 2
Fore
SplineSet
953 -137 m 0,0,1
 768 -137 768 -137 610.5 -78.5 c 128,-1,2
 453 -20 453 -20 343 83.5 c 128,-1,3
 233 187 233 187 171 334.5 c 128,-1,4
 109 482 109 482 109 655 c 0,5,6
 109 829 109 829 173 980 c 128,-1,7
 237 1131 237 1131 348.5 1237.5 c 128,-1,8
 460 1344 460 1344 617 1405 c 128,-1,9
 774 1466 774 1466 955 1466 c 0,10,11
 1126 1466 1126 1466 1273 1411 c 128,-1,12
 1420 1356 1420 1356 1523 1259 c 128,-1,13
 1626 1162 1626 1162 1684.5 1025.5 c 128,-1,14
 1743 889 1743 889 1743 732 c 0,15,16
 1743 487 1743 487 1630 336 c 128,-1,17
 1517 185 1517 185 1340 185 c 0,18,19
 1161 185 1161 185 1114 321 c 1,20,21
 1074 272 1074 272 994.5 241.5 c 128,-1,22
 915 211 915 211 840 211 c 0,23,24
 673 211 673 211 573.5 325.5 c 128,-1,25
 474 440 474 440 474 603 c 0,26,27
 474 822 474 822 596 973.5 c 128,-1,28
 718 1125 718 1125 903 1125 c 0,29,30
 945 1125 945 1125 979 1119 c 128,-1,31
 1013 1113 1013 1113 1043 1097.5 c 128,-1,32
 1073 1082 1073 1082 1086.5 1074.5 c 128,-1,33
 1100 1067 1100 1067 1126.5 1044.5 c 128,-1,34
 1153 1022 1153 1022 1155 1021 c 1,35,-1
 1167 1089 l 1,36,-1
 1337 1089 l 1,37,-1
 1270 503 l 2,38,39
 1265 465 1265 465 1265 436 c 0,40,41
 1265 377 1265 377 1289 349 c 128,-1,42
 1313 321 1313 321 1367 321 c 128,-1,43
 1421 321 1421 321 1462.5 356 c 128,-1,44
 1504 391 1504 391 1527.5 449.5 c 128,-1,45
 1551 508 1551 508 1562 574.5 c 128,-1,46
 1573 641 1573 641 1573 714 c 0,47,48
 1573 884 1573 884 1498.5 1018.5 c 128,-1,49
 1424 1153 1424 1153 1284 1229.5 c 128,-1,50
 1144 1306 1144 1306 960 1306 c 0,51,52
 808 1306 808 1306 680.5 1255 c 128,-1,53
 553 1204 553 1204 467.5 1115.5 c 128,-1,54
 382 1027 382 1027 335 908 c 128,-1,55
 288 789 288 789 288 654 c 0,56,57
 288 371 288 371 469 195.5 c 128,-1,58
 650 20 650 20 955 20 c 0,59,60
 1177 20 1177 20 1372 126 c 1,61,-1
 1421 8 l 1,62,63
 1321 -63 1321 -63 1198.5 -100 c 128,-1,64
 1076 -137 1076 -137 953 -137 c 0,0,1
872 349 m 0,65,66
 972 349 972 349 1082 413 c 1,67,-1
 1129 869 l 1,68,69
 1095 916 1095 916 1045 945.5 c 128,-1,70
 995 975 995 975 937 975 c 0,71,72
 816 975 816 975 738.5 873 c 128,-1,73
 661 771 661 771 661 614 c 0,74,75
 661 490 661 490 717.5 419.5 c 128,-1,76
 774 349 774 349 872 349 c 0,65,66
EndSplineSet
EndChar

StartChar: A
Encoding: 65 65 36
Width: 1397
Flags: W
LayerCount: 2
Fore
SplineSet
22 0 m 1,0,-1
 515 1481 l 1,1,-1
 879 1481 l 1,2,-1
 1375 0 l 1,3,-1
 1046 0 l 1,4,-1
 948 305 l 1,5,-1
 446 305 l 1,6,-1
 349 0 l 1,7,-1
 22 0 l 1,0,-1
513 550 m 1,8,-1
 881 550 l 1,9,-1
 696 1193 l 1,10,-1
 513 550 l 1,8,-1
EndSplineSet
EndChar

StartChar: B
Encoding: 66 66 37
Width: 1392
Flags: W
LayerCount: 2
Fore
SplineSet
156 0 m 1,0,-1
 156 1481 l 1,1,-1
 555 1481 l 2,2,3
 687 1481 687 1481 782 1471 c 128,-1,4
 877 1461 877 1461 959 1435 c 128,-1,5
 1041 1409 1041 1409 1091 1364.5 c 128,-1,6
 1141 1320 1141 1320 1168.5 1250 c 128,-1,7
 1196 1180 1196 1180 1196 1083 c 0,8,9
 1196 987 1196 987 1148 911 c 128,-1,10
 1100 835 1100 835 1004 798 c 1,11,-1
 1004 792 l 1,12,13
 1139 766 1139 766 1217.5 673.5 c 128,-1,14
 1296 581 1296 581 1296 445 c 0,15,16
 1296 327 1296 327 1254.5 240 c 128,-1,17
 1213 153 1213 153 1135.5 101 c 128,-1,18
 1058 49 1058 49 956 24.5 c 128,-1,19
 854 0 854 0 724 0 c 2,20,-1
 156 0 l 1,0,-1
478 244 m 1,21,-1
 705 244 l 2,22,23
 833 244 833 244 900.5 300.5 c 128,-1,24
 968 357 968 357 968 453 c 0,25,26
 968 501 968 501 948 536.5 c 128,-1,27
 928 572 928 572 896 592.5 c 128,-1,28
 864 613 864 613 815.5 625.5 c 128,-1,29
 767 638 767 638 719.5 642 c 128,-1,30
 672 646 672 646 610 646 c 2,31,-1
 478 646 l 1,32,-1
 478 244 l 1,21,-1
478 876 m 1,33,-1
 585 876 l 2,34,35
 755 876 755 876 828 916 c 128,-1,36
 901 956 901 956 901 1061 c 0,37,38
 901 1160 901 1160 828.5 1198.5 c 128,-1,39
 756 1237 756 1237 594 1237 c 2,40,-1
 478 1237 l 1,41,-1
 478 876 l 1,33,-1
EndSplineSet
EndChar

StartChar: C
Encoding: 67 67 38
Width: 1355
Flags: W
LayerCount: 2
Fore
SplineSet
825 -24 m 0,0,1
 462 -24 462 -24 285.5 172 c 128,-1,2
 109 368 109 368 109 741 c 0,3,4
 109 1106 109 1106 300 1305 c 128,-1,5
 491 1504 491 1504 829 1504 c 0,6,7
 1077 1504 1077 1504 1288 1387 c 1,8,-1
 1219 1128 l 1,9,10
 1213 1133 1213 1133 1202 1141 c 128,-1,11
 1191 1149 1191 1149 1155 1169.5 c 128,-1,12
 1119 1190 1119 1190 1080 1205.5 c 128,-1,13
 1041 1221 1041 1221 980.5 1234 c 128,-1,14
 920 1247 920 1247 859 1247 c 0,15,16
 655 1247 655 1247 546.5 1119.5 c 128,-1,17
 438 992 438 992 438 738 c 0,18,19
 438 233 438 233 863 233 c 0,20,21
 951 233 951 233 1043 262 c 128,-1,22
 1135 291 1135 291 1182 320 c 1,23,-1
 1230 348 l 1,24,-1
 1289 103 l 1,25,26
 1181 39 1181 39 1072.5 7.5 c 128,-1,27
 964 -24 964 -24 825 -24 c 0,0,1
EndSplineSet
EndChar

StartChar: D
Encoding: 68 68 39
Width: 1514
Flags: W
LayerCount: 2
Fore
SplineSet
479 249 m 1,0,-1
 632 249 l 2,1,2
 867 249 867 249 972 362 c 128,-1,3
 1077 475 1077 475 1077 738 c 0,4,5
 1077 982 1077 982 973 1107 c 128,-1,6
 869 1232 869 1232 680 1232 c 2,7,-1
 479 1232 l 1,8,-1
 479 249 l 1,0,-1
156 0 m 1,9,-1
 156 1481 l 1,10,-1
 596 1481 l 2,11,12
 794 1481 794 1481 941 1441 c 128,-1,13
 1088 1401 1088 1401 1193.5 1314 c 128,-1,14
 1299 1227 1299 1227 1352 1083.5 c 128,-1,15
 1405 940 1405 940 1405 739 c 0,16,17
 1405 577 1405 577 1369 452.5 c 128,-1,18
 1333 328 1333 328 1266 242.5 c 128,-1,19
 1199 157 1199 157 1098 102.5 c 128,-1,20
 997 48 997 48 873.5 24 c 128,-1,21
 750 0 750 0 594 0 c 2,22,-1
 156 0 l 1,9,-1
EndSplineSet
EndChar

StartChar: E
Encoding: 69 69 40
Width: 1203
Flags: W
LayerCount: 2
Fore
SplineSet
157 0 m 1,0,-1
 157 1481 l 1,1,-1
 1117 1481 l 1,2,-1
 1117 1253 l 1,3,-1
 478 1253 l 1,4,-1
 478 900 l 1,5,-1
 1032 900 l 1,6,-1
 1032 653 l 1,7,-1
 478 653 l 1,8,-1
 478 229 l 1,9,-1
 1116 229 l 1,10,-1
 1116 0 l 1,11,-1
 157 0 l 1,0,-1
EndSplineSet
EndChar

StartChar: F
Encoding: 70 70 41
Width: 1167
Flags: W
LayerCount: 2
Fore
SplineSet
156 0 m 1,0,-1
 156 1481 l 1,1,-1
 1127 1481 l 1,2,-1
 1127 1252 l 1,3,-1
 478 1252 l 1,4,-1
 478 883 l 1,5,-1
 1069 883 l 1,6,-1
 1069 636 l 1,7,-1
 478 636 l 1,8,-1
 478 0 l 1,9,-1
 156 0 l 1,0,-1
EndSplineSet
EndChar

StartChar: G
Encoding: 71 71 42
Width: 1473
Flags: W
LayerCount: 2
Fore
SplineSet
824 -24 m 0,0,1
 466 -24 466 -24 287.5 176.5 c 128,-1,2
 109 377 109 377 109 741 c 0,3,4
 109 1113 109 1113 292 1308.5 c 128,-1,5
 475 1504 475 1504 831 1504 c 0,6,7
 923 1504 923 1504 997.5 1493.5 c 128,-1,8
 1072 1483 1072 1483 1134 1459 c 128,-1,9
 1196 1435 1196 1435 1234.5 1415.5 c 128,-1,10
 1273 1396 1273 1396 1331 1360 c 1,11,-1
 1264 1112 l 2,12,13
 1264 1114 1264 1114 1244.5 1127.5 c 128,-1,14
 1225 1141 1225 1141 1187.5 1161 c 128,-1,15
 1150 1181 1150 1181 1103.5 1200.5 c 128,-1,16
 1057 1220 1057 1220 994 1233.5 c 128,-1,17
 931 1247 931 1247 870 1247 c 0,18,19
 647 1247 647 1247 542.5 1122.5 c 128,-1,20
 438 998 438 998 438 746 c 0,21,22
 438 233 438 233 851 233 c 0,23,24
 890 233 890 233 930 236.5 c 128,-1,25
 970 240 970 240 999 245 c 128,-1,26
 1028 250 1028 250 1051.5 255 c 128,-1,27
 1075 260 1075 260 1088 263 c 2,28,-1
 1100 266 l 1,29,-1
 1100 595 l 1,30,-1
 754 595 l 1,31,-1
 754 831 l 1,32,-1
 1357 831 l 1,33,-1
 1357 132 l 1,34,35
 1287 68 1287 68 1137.5 22 c 128,-1,36
 988 -24 988 -24 824 -24 c 0,0,1
EndSplineSet
EndChar

StartChar: H
Encoding: 72 72 43
Width: 1512
Flags: W
LayerCount: 2
Fore
SplineSet
156 0 m 1,0,-1
 156 1481 l 1,1,-1
 479 1481 l 1,2,-1
 479 894 l 1,3,-1
 1033 894 l 1,4,-1
 1033 1481 l 1,5,-1
 1357 1481 l 1,6,-1
 1357 0 l 1,7,-1
 1033 0 l 1,8,-1
 1033 646 l 1,9,-1
 479 646 l 1,10,-1
 479 0 l 1,11,-1
 156 0 l 1,0,-1
EndSplineSet
EndChar

StartChar: I
Encoding: 73 73 44
Width: 901
Flags: W
LayerCount: 2
Fore
SplineSet
76 0 m 1,0,-1
 76 229 l 1,1,-1
 289 229 l 1,2,-1
 289 1252 l 1,3,-1
 76 1252 l 1,4,-1
 76 1481 l 1,5,-1
 825 1481 l 1,6,-1
 825 1252 l 1,7,-1
 612 1252 l 1,8,-1
 612 229 l 1,9,-1
 825 229 l 1,10,-1
 825 0 l 1,11,-1
 76 0 l 1,0,-1
EndSplineSet
EndChar

StartChar: J
Encoding: 74 74 45
Width: 1061
Flags: W
LayerCount: 2
Fore
SplineSet
395 -24 m 0,0,1
 178 -24 178 -24 34 62 c 1,2,-1
 94 304 l 1,3,4
 108 296 108 296 133 284 c 128,-1,5
 158 272 158 272 229.5 252.5 c 128,-1,6
 301 233 301 233 366 233 c 0,7,8
 478 233 478 233 530 313 c 128,-1,9
 582 393 582 393 582 566 c 2,10,-1
 582 1250 l 1,11,-1
 300 1250 l 1,12,-1
 300 1481 l 1,13,-1
 905 1481 l 1,14,-1
 905 443 l 2,15,16
 905 224 905 224 771.5 100 c 128,-1,17
 638 -24 638 -24 395 -24 c 0,0,1
EndSplineSet
EndChar

StartChar: K
Encoding: 75 75 46
Width: 1435
Flags: W
LayerCount: 2
Fore
SplineSet
156 0 m 1,0,-1
 156 1481 l 1,1,-1
 478 1481 l 1,2,-1
 478 789 l 1,3,-1
 479 789 l 1,4,-1
 656 1012 l 1,5,-1
 1012 1481 l 1,6,-1
 1392 1481 l 1,7,-1
 893 833 l 1,8,-1
 1421 0 l 1,9,-1
 1036 0 l 1,10,-1
 717 545 l 1,11,-1
 642 671 l 1,12,-1
 478 478 l 1,13,-1
 478 0 l 1,14,-1
 156 0 l 1,0,-1
EndSplineSet
EndChar

StartChar: L
Encoding: 76 76 47
Width: 1148
Flags: W
LayerCount: 2
Fore
SplineSet
156 0 m 1,0,-1
 156 1481 l 1,1,-1
 479 1481 l 1,2,-1
 479 229 l 1,3,-1
 1114 229 l 1,4,-1
 1114 0 l 1,5,-1
 156 0 l 1,0,-1
EndSplineSet
EndChar

StartChar: M
Encoding: 77 77 48
Width: 1780
Flags: W
LayerCount: 2
Fore
SplineSet
156 0 m 1,0,-1
 156 1481 l 1,1,-1
 476 1481 l 1,2,-1
 893 617 l 1,3,-1
 1311 1481 l 1,4,-1
 1625 1481 l 1,5,-1
 1625 0 l 1,6,-1
 1313 0 l 1,7,-1
 1313 798 l 1,8,9
 1318 999 l 1,10,-1
 1010 324 l 1,11,-1
 759 324 l 1,12,-1
 453 999 l 1,13,14
 457 832 457 832 457 798 c 2,15,-1
 457 0 l 1,16,-1
 156 0 l 1,0,-1
EndSplineSet
EndChar

StartChar: N
Encoding: 78 78 49
Width: 1584
Flags: W
LayerCount: 2
Fore
SplineSet
156 0 m 1,0,-1
 156 1481 l 1,1,-1
 475 1481 l 1,2,-1
 1137 526 l 1,3,-1
 1125 796 l 1,4,-1
 1125 1481 l 1,5,-1
 1429 1481 l 1,6,-1
 1429 0 l 1,7,-1
 1153 0 l 1,8,-1
 448 1048 l 1,9,-1
 460 754 l 1,10,-1
 460 0 l 1,11,-1
 156 0 l 1,0,-1
EndSplineSet
EndChar

StartChar: O
Encoding: 79 79 50
Width: 1577
Flags: W
LayerCount: 2
Fore
SplineSet
791 233 m 0,0,1
 886 233 886 233 955 271 c 128,-1,2
 1024 309 1024 309 1063.5 379.5 c 128,-1,3
 1103 450 1103 450 1121.5 539 c 128,-1,4
 1140 628 1140 628 1140 740 c 0,5,6
 1140 1247 1140 1247 791 1247 c 0,7,8
 713 1247 713 1247 653 1223 c 128,-1,9
 593 1199 593 1199 552.5 1155.5 c 128,-1,10
 512 1112 512 1112 486 1048 c 128,-1,11
 460 984 460 984 449 908.5 c 128,-1,12
 438 833 438 833 438 740 c 0,13,14
 438 233 438 233 791 233 c 0,0,1
790 -24 m 0,15,16
 451 -24 451 -24 280 174 c 128,-1,17
 109 372 109 372 109 740 c 0,18,19
 109 1109 109 1109 280 1306.5 c 128,-1,20
 451 1504 451 1504 790 1504 c 128,-1,21
 1129 1504 1129 1504 1298.5 1307 c 128,-1,22
 1468 1110 1468 1110 1468 740 c 0,23,24
 1468 372 1468 372 1298 174 c 128,-1,25
 1128 -24 1128 -24 790 -24 c 0,15,16
EndSplineSet
EndChar

StartChar: P
Encoding: 80 80 51
Width: 1328
Flags: W
LayerCount: 2
Fore
SplineSet
156 0 m 1,0,-1
 156 1481 l 1,1,-1
 714 1481 l 2,2,3
 810 1481 810 1481 891 1465 c 128,-1,4
 972 1449 972 1449 1042 1413.5 c 128,-1,5
 1112 1378 1112 1378 1161 1324.5 c 128,-1,6
 1210 1271 1210 1271 1237.5 1191.5 c 128,-1,7
 1265 1112 1265 1112 1265 1012 c 0,8,9
 1265 788 1265 788 1113 660.5 c 128,-1,10
 961 533 961 533 691 533 c 2,11,-1
 479 533 l 1,12,-1
 479 0 l 1,13,-1
 156 0 l 1,0,-1
479 777 m 1,14,-1
 562 777 l 2,15,16
 632 777 632 777 679.5 780.5 c 128,-1,17
 727 784 727 784 780 797.5 c 128,-1,18
 833 811 833 811 864.5 835.5 c 128,-1,19
 896 860 896 860 916.5 904 c 128,-1,20
 937 948 937 948 937 1010 c 0,21,22
 937 1077 937 1077 912 1123.5 c 128,-1,23
 887 1170 887 1170 840.5 1194 c 128,-1,24
 794 1218 794 1218 741 1227.5 c 128,-1,25
 688 1237 688 1237 619 1237 c 2,26,-1
 479 1237 l 1,27,-1
 479 777 l 1,14,-1
EndSplineSet
EndChar

StartChar: Q
Encoding: 81 81 52
Width: 1577
Flags: W
LayerCount: 2
Fore
SplineSet
810 -24 m 0,0,1
 456 -24 456 -24 282.5 173 c 128,-1,2
 109 370 109 370 109 740 c 0,3,4
 109 1109 109 1109 280 1306.5 c 128,-1,5
 451 1504 451 1504 790 1504 c 128,-1,6
 1129 1504 1129 1504 1298.5 1307 c 128,-1,7
 1468 1110 1468 1110 1468 740 c 0,8,9
 1468 455 1468 455 1367 269.5 c 128,-1,10
 1266 84 1266 84 1063 17 c 1,11,-1
 1183 -335 l 1,12,-1
 1002 -392 l 1,13,-1
 875 -22 l 1,14,15
 833 -24 833 -24 810 -24 c 0,0,1
972 270 m 1,16,17
 1067 322 1067 322 1103.5 440.5 c 128,-1,18
 1140 559 1140 559 1140 740 c 0,19,20
 1140 1248 1140 1248 791 1248 c 0,21,22
 694 1248 694 1248 624.5 1211.5 c 128,-1,23
 555 1175 555 1175 515 1106 c 128,-1,24
 475 1037 475 1037 456.5 947 c 128,-1,25
 438 857 438 857 438 740 c 0,26,27
 438 235 438 235 790 235 c 1,28,-1
 681 563 l 1,29,-1
 881 563 l 1,30,-1
 972 270 l 1,16,17
EndSplineSet
EndChar

StartChar: R
Encoding: 82 82 53
Width: 1415
Flags: W
LayerCount: 2
Fore
SplineSet
156 0 m 1,0,-1
 156 1481 l 1,1,-1
 631 1481 l 2,2,3
 705 1481 705 1481 752 1479.5 c 128,-1,4
 799 1478 799 1478 876 1470 c 128,-1,5
 953 1462 953 1462 1003.5 1446.5 c 128,-1,6
 1054 1431 1054 1431 1113.5 1400 c 128,-1,7
 1173 1369 1173 1369 1208.5 1326 c 128,-1,8
 1244 1283 1244 1283 1268 1216 c 128,-1,9
 1292 1149 1292 1149 1292 1064 c 0,10,11
 1292 900 1292 900 1226 803 c 128,-1,12
 1160 706 1160 706 1003 648 c 1,13,-1
 1354 72 l 1,14,-1
 1354 0 l 1,15,-1
 1021 0 l 1,16,-1
 687 595 l 1,17,-1
 478 595 l 1,18,-1
 478 0 l 1,19,-1
 156 0 l 1,0,-1
478 839 m 1,20,-1
 656 839 l 2,21,22
 814 839 814 839 885.5 883 c 128,-1,23
 957 927 957 927 957 1040 c 0,24,25
 957 1148 957 1148 888.5 1192.5 c 128,-1,26
 820 1237 820 1237 648 1237 c 2,27,-1
 478 1237 l 1,28,-1
 478 839 l 1,20,-1
EndSplineSet
EndChar

StartChar: S
Encoding: 83 83 54
Width: 1325
Flags: W
LayerCount: 2
Fore
SplineSet
632 -24 m 0,0,1
 331 -24 331 -24 87 125 c 1,2,-1
 133 390 l 1,3,-1
 185 390 l 1,4,5
 280 313 280 313 402 273 c 128,-1,6
 524 233 524 233 644 233 c 0,7,8
 763 233 763 233 840.5 275.5 c 128,-1,9
 918 318 918 318 918 400 c 0,10,11
 918 434 918 434 908.5 460 c 128,-1,12
 899 486 899 486 875 506.5 c 128,-1,13
 851 527 851 527 825.5 542 c 128,-1,14
 800 557 800 557 752 572 c 128,-1,15
 704 587 704 587 663.5 597.5 c 128,-1,16
 623 608 623 608 554 625 c 0,17,18
 545 627 545 627 541 628 c 0,19,20
 307 685 307 685 213.5 775.5 c 128,-1,21
 120 866 120 866 120 1047 c 0,22,23
 120 1249 120 1249 280 1376.5 c 128,-1,24
 440 1504 440 1504 694 1504 c 0,25,26
 958 1504 958 1504 1190 1383 c 1,27,-1
 1149 1122 l 1,28,-1
 1098 1122 l 1,29,30
 914 1247 914 1247 683 1247 c 0,31,32
 564 1247 564 1247 500 1200.5 c 128,-1,33
 436 1154 436 1154 436 1076 c 0,34,35
 436 1003 436 1003 505.5 961.5 c 128,-1,36
 575 920 575 920 752 885 c 1,37,38
 1023 826 1023 826 1133 728 c 128,-1,39
 1243 630 1243 630 1243 443 c 0,40,41
 1243 229 1243 229 1076 102.5 c 128,-1,42
 909 -24 909 -24 632 -24 c 0,0,1
EndSplineSet
EndChar

StartChar: T
Encoding: 84 84 55
Width: 1191
Flags: W
LayerCount: 2
Fore
SplineSet
434 0 m 1,0,-1
 434 1232 l 1,1,-1
 10 1232 l 1,2,-1
 10 1481 l 1,3,-1
 1182 1481 l 1,4,-1
 1182 1232 l 1,5,-1
 759 1232 l 1,6,-1
 759 0 l 1,7,-1
 434 0 l 1,0,-1
EndSplineSet
EndChar

StartChar: U
Encoding: 85 85 56
Width: 1478
Flags: W
LayerCount: 2
Fore
SplineSet
738 -24 m 0,0,1
 457 -24 457 -24 297.5 113.5 c 128,-1,2
 138 251 138 251 138 496 c 2,3,-1
 138 1481 l 1,4,-1
 462 1481 l 1,5,-1
 462 516 l 2,6,7
 462 372 462 372 534 302.5 c 128,-1,8
 606 233 606 233 739 233 c 0,9,10
 870 233 870 233 943.5 303 c 128,-1,11
 1017 373 1017 373 1017 518 c 2,12,-1
 1017 1481 l 1,13,-1
 1340 1481 l 1,14,-1
 1340 497 l 2,15,16
 1340 253 1340 253 1183.5 114.5 c 128,-1,17
 1027 -24 1027 -24 738 -24 c 0,0,1
EndSplineSet
EndChar

StartChar: V
Encoding: 86 86 57
Width: 1346
Flags: W
LayerCount: 2
Fore
SplineSet
513 0 m 1,0,-1
 -11 1481 l 1,1,-1
 327 1481 l 1,2,-1
 616 609 l 1,3,-1
 677 416 l 1,4,-1
 679 416 l 1,5,-1
 738 610 l 1,6,-1
 1026 1481 l 1,7,-1
 1358 1481 l 1,8,-1
 837 0 l 1,9,-1
 513 0 l 1,0,-1
EndSplineSet
EndChar

StartChar: W
Encoding: 87 87 58
Width: 2038
Flags: W
LayerCount: 2
Fore
SplineSet
403 0 m 1,0,-1
 25 1481 l 1,1,-1
 352 1481 l 1,2,-1
 525 671 l 1,3,-1
 577 383 l 1,4,-1
 580 383 l 1,5,-1
 655 699 l 1,6,-1
 855 1481 l 1,7,-1
 1194 1481 l 1,8,-1
 1395 667 l 1,9,-1
 1460 385 l 1,10,-1
 1512 657 l 1,11,-1
 1694 1481 l 1,12,-1
 2014 1481 l 1,13,-1
 1634 0 l 1,14,-1
 1298 0 l 1,15,-1
 1020 1041 l 1,16,-1
 735 0 l 1,17,-1
 403 0 l 1,0,-1
EndSplineSet
EndChar

StartChar: X
Encoding: 88 88 59
Width: 1375
Flags: W
LayerCount: 2
Fore
SplineSet
-2 0 m 1,0,-1
 482 750 l 1,1,-1
 24 1481 l 1,2,-1
 393 1481 l 1,3,-1
 598 1138 l 1,4,-1
 688 991 l 1,5,-1
 780 1135 l 1,6,-1
 991 1481 l 1,7,-1
 1358 1481 l 1,8,-1
 891 755 l 1,9,-1
 1369 0 l 1,10,-1
 995 0 l 1,11,-1
 777 367 l 1,12,-1
 682 514 l 1,13,-1
 587 366 l 1,14,-1
 363 0 l 1,15,-1
 -2 0 l 1,0,-1
EndSplineSet
EndChar

StartChar: Y
Encoding: 89 89 60
Width: 1360
Flags: W
LayerCount: 2
Fore
SplineSet
522 0 m 1,0,-1
 522 614 l 1,1,-1
 -2 1481 l 1,2,-1
 350 1481 l 1,3,-1
 690 892 l 1,4,-1
 1021 1481 l 1,5,-1
 1362 1481 l 1,6,-1
 842 626 l 1,7,-1
 842 0 l 1,8,-1
 522 0 l 1,0,-1
EndSplineSet
EndChar

StartChar: Z
Encoding: 90 90 61
Width: 1204
Flags: W
LayerCount: 2
Fore
SplineSet
77 0 m 1,0,-1
 77 246 l 1,1,-1
 726 1232 l 1,2,-1
 112 1232 l 1,3,-1
 112 1481 l 1,4,-1
 1121 1481 l 1,5,-1
 1121 1236 l 1,6,-1
 475 249 l 1,7,-1
 1156 249 l 1,8,-1
 1156 0 l 1,9,-1
 77 0 l 1,0,-1
EndSplineSet
EndChar

StartChar: bracketleft
Encoding: 91 91 62
Width: 792
Flags: W
LayerCount: 2
Fore
SplineSet
128 -337 m 1,0,-1
 128 1481 l 1,1,-1
 699 1481 l 1,2,-1
 699 1268 l 1,3,-1
 418 1268 l 1,4,-1
 418 -125 l 1,5,-1
 699 -125 l 1,6,-1
 699 -337 l 1,7,-1
 128 -337 l 1,0,-1
EndSplineSet
EndChar

StartChar: backslash
Encoding: 92 92 63
Width: 1040
Flags: W
LayerCount: 2
Fore
SplineSet
662 0 m 1,0,-1
 141 1481 l 1,1,-1
 421 1481 l 1,2,-1
 943 0 l 1,3,-1
 662 0 l 1,0,-1
EndSplineSet
EndChar

StartChar: bracketright
Encoding: 93 93 64
Width: 792
Flags: W
LayerCount: 2
Fore
SplineSet
94 -337 m 1,0,-1
 94 -125 l 1,1,-1
 377 -125 l 1,2,-1
 377 1268 l 1,3,-1
 94 1268 l 1,4,-1
 94 1481 l 1,5,-1
 666 1481 l 1,6,-1
 666 -337 l 1,7,-1
 94 -337 l 1,0,-1
EndSplineSet
EndChar

StartChar: asciicircum
Encoding: 94 94 65
Width: 1448
Flags: W
LayerCount: 2
Fore
SplineSet
117 601 m 1,0,-1
 596 1395 l 1,1,-1
 828 1395 l 1,2,-1
 1333 603 l 1,3,-1
 1043 603 l 1,4,-1
 711 1143 l 1,5,-1
 406 601 l 1,6,-1
 117 601 l 1,0,-1
EndSplineSet
EndChar

StartChar: underscore
Encoding: 95 95 66
Width: 1041
Flags: W
LayerCount: 2
Fore
SplineSet
-8 -254 m 1,0,-1
 -8 -93 l 1,1,-1
 1050 -93 l 1,2,-1
 1050 -254 l 1,3,-1
 -8 -254 l 1,0,-1
EndSplineSet
EndChar

StartChar: grave
Encoding: 96 96 67
Width: 736
Flags: W
LayerCount: 2
Fore
SplineSet
393 1160 m 1,0,-1
 108 1506 l 1,1,-1
 410 1506 l 1,2,-1
 606 1160 l 1,3,-1
 393 1160 l 1,0,-1
EndSplineSet
EndChar

StartChar: a
Encoding: 97 97 68
Width: 1122
Flags: W
LayerCount: 2
Fore
SplineSet
388 -22 m 0,0,1
 243 -22 243 -22 151.5 68 c 128,-1,2
 60 158 60 158 60 295 c 0,3,4
 60 372 60 372 83 430.5 c 128,-1,5
 106 489 106 489 152 527 c 128,-1,6
 198 565 198 565 253.5 590 c 128,-1,7
 309 615 309 615 389 627.5 c 128,-1,8
 469 640 469 640 543.5 644.5 c 128,-1,9
 618 649 618 649 717 649 c 1,10,11
 717 751 717 751 673.5 793 c 128,-1,12
 630 835 630 835 508 835 c 0,13,14
 435 835 435 835 345 816 c 128,-1,15
 255 797 255 797 193 771 c 1,16,-1
 132 978 l 1,17,18
 174 1005 174 1005 293.5 1032 c 128,-1,19
 413 1059 413 1059 523 1059 c 0,20,21
 787 1059 787 1059 906 968.5 c 128,-1,22
 1025 878 1025 878 1025 693 c 2,23,-1
 1025 0 l 1,24,-1
 716 0 l 1,25,-1
 716 210 l 1,26,27
 675 106 675 106 590 42 c 128,-1,28
 505 -22 505 -22 388 -22 c 0,0,1
494 186 m 0,29,30
 592 186 592 186 654.5 259 c 128,-1,31
 717 332 717 332 717 498 c 1,32,33
 626 492 626 492 567 482.5 c 128,-1,34
 508 473 508 473 459.5 454 c 128,-1,35
 411 435 411 435 388.5 402.5 c 128,-1,36
 366 370 366 370 366 321 c 0,37,38
 366 261 366 261 401.5 223.5 c 128,-1,39
 437 186 437 186 494 186 c 0,29,30
EndSplineSet
EndChar

StartChar: b
Encoding: 98 98 69
Width: 1226
Flags: W
LayerCount: 2
Fore
SplineSet
710 -22 m 0,0,1
 624 -22 624 -22 550.5 14.5 c 128,-1,2
 477 51 477 51 427 110 c 1,3,-1
 427 0 l 1,4,-1
 118 0 l 1,5,-1
 118 1481 l 1,6,-1
 427 1481 l 1,7,-1
 427 933 l 1,8,9
 562 1059 562 1059 747 1059 c 0,10,11
 946 1059 946 1059 1046.5 919.5 c 128,-1,12
 1147 780 1147 780 1147 530 c 0,13,14
 1147 282 1147 282 1031 130 c 128,-1,15
 915 -22 915 -22 710 -22 c 0,0,1
594 215 m 0,16,17
 716 215 716 215 774 297.5 c 128,-1,18
 832 380 832 380 832 530 c 0,19,20
 832 676 832 676 773 749 c 128,-1,21
 714 822 714 822 605 822 c 0,22,23
 554 822 554 822 498.5 799.5 c 128,-1,24
 443 777 443 777 427 764 c 1,25,-1
 427 247 l 1,26,27
 441 238 441 238 499.5 226.5 c 128,-1,28
 558 215 558 215 594 215 c 0,16,17
EndSplineSet
EndChar

StartChar: c
Encoding: 99 99 70
Width: 1059
Flags: W
LayerCount: 2
Fore
SplineSet
639 -22 m 0,0,1
 521 -22 521 -22 422 10 c 128,-1,2
 323 42 323 42 245.5 105.5 c 128,-1,3
 168 169 168 169 124.5 273.5 c 128,-1,4
 81 378 81 378 81 515 c 0,5,6
 81 658 81 658 127.5 766.5 c 128,-1,7
 174 875 174 875 253.5 937 c 128,-1,8
 333 999 333 999 428 1029 c 128,-1,9
 523 1059 523 1059 631 1059 c 0,10,11
 828 1059 828 1059 1010 957 c 1,12,-1
 963 739 l 1,13,14
 910 780 910 780 829.5 807.5 c 128,-1,15
 749 835 749 835 680 835 c 0,16,17
 554 835 554 835 474.5 755.5 c 128,-1,18
 395 676 395 676 395 514 c 0,19,20
 395 355 395 355 471.5 278.5 c 128,-1,21
 548 202 548 202 676 202 c 0,22,23
 825 202 825 202 962 293 c 1,24,-1
 1010 77 l 1,25,26
 830 -22 830 -22 639 -22 c 0,0,1
EndSplineSet
EndChar

StartChar: d
Encoding: 100 100 71
Width: 1219
Flags: W
LayerCount: 2
Fore
SplineSet
518 -22 m 0,0,1
 382 -22 382 -22 282.5 48.5 c 128,-1,2
 183 119 183 119 132 242 c 128,-1,3
 81 365 81 365 81 525 c 0,4,5
 81 780 81 780 191 919.5 c 128,-1,6
 301 1059 301 1059 516 1059 c 0,7,8
 666 1059 666 1059 795 961 c 1,9,-1
 795 1481 l 1,10,-1
 1104 1481 l 1,11,-1
 1104 0 l 1,12,-1
 795 0 l 1,13,-1
 795 121 l 1,14,15
 750 54 750 54 678.5 16 c 128,-1,16
 607 -22 607 -22 518 -22 c 0,0,1
635 202 m 0,17,18
 724 202 724 202 795 238 c 1,19,-1
 795 776 l 1,20,21
 705 835 705 835 600 835 c 0,22,23
 496 835 496 835 445 747 c 128,-1,24
 394 659 394 659 394 512 c 0,25,26
 394 373 394 373 456.5 287.5 c 128,-1,27
 519 202 519 202 635 202 c 0,17,18
EndSplineSet
EndChar

StartChar: e
Encoding: 101 101 72
Width: 1162
Flags: W
LayerCount: 2
Fore
SplineSet
665 -22 m 0,0,1
 534 -22 534 -22 428 10.5 c 128,-1,2
 322 43 322 43 243.5 107 c 128,-1,3
 165 171 165 171 122.5 274.5 c 128,-1,4
 80 378 80 378 80 513 c 0,5,6
 80 775 80 775 224 917 c 128,-1,7
 368 1059 368 1059 613 1059 c 0,8,9
 841 1059 841 1059 966.5 924.5 c 128,-1,10
 1092 790 1092 790 1092 561 c 2,11,-1
 1092 446 l 1,12,-1
 390 446 l 1,13,14
 406 202 406 202 694 202 c 0,15,16
 774 202 774 202 852.5 226 c 128,-1,17
 931 250 931 250 987 289 c 1,18,-1
 1031 289 l 1,19,-1
 1077 93 l 1,20,21
 922 -22 922 -22 665 -22 c 0,0,1
388 634 m 1,22,-1
 821 634 l 1,23,24
 817 736 817 736 763 796 c 128,-1,25
 709 856 709 856 605 856 c 0,26,27
 513 856 513 856 455 794.5 c 128,-1,28
 397 733 397 733 388 634 c 1,22,-1
EndSplineSet
EndChar

StartChar: f
Encoding: 102 102 73
Width: 736
Flags: W
LayerCount: 2
Fore
SplineSet
172 0 m 1,0,-1
 172 835 l 1,1,-1
 26 835 l 1,2,-1
 26 1035 l 1,3,-1
 172 1035 l 1,4,-1
 172 1076 l 2,5,6
 172 1265 172 1265 264.5 1354 c 128,-1,7
 357 1443 357 1443 557 1443 c 0,8,9
 632 1443 632 1443 751 1430 c 1,10,-1
 751 1214 l 1,11,12
 649 1225 649 1225 617 1225 c 0,13,14
 541 1225 541 1225 506.5 1185 c 128,-1,15
 472 1145 472 1145 472 1035 c 1,16,-1
 729 1035 l 1,17,-1
 729 835 l 1,18,-1
 481 835 l 1,19,-1
 481 0 l 1,20,-1
 172 0 l 1,0,-1
EndSplineSet
EndChar

StartChar: g
Encoding: 103 103 74
Width: 1183
Flags: W
LayerCount: 2
Fore
SplineSet
556 -399 m 0,0,1
 342 -399 342 -399 165 -317 c 1,2,-1
 216 -102 l 1,3,4
 267 -125 267 -125 354 -146.5 c 128,-1,5
 441 -168 441 -168 524 -168 c 0,6,7
 663 -168 663 -168 717.5 -111.5 c 128,-1,8
 772 -55 772 -55 774 79 c 1,9,-1
 774 108 l 1,10,11
 737 58 737 58 673 29 c 128,-1,12
 609 0 609 0 538 0 c 0,13,14
 321 0 321 0 201 137 c 128,-1,15
 81 274 81 274 81 539 c 0,16,17
 81 781 81 781 187.5 920 c 128,-1,18
 294 1059 294 1059 494 1059 c 0,19,20
 676 1059 676 1059 766 924 c 1,21,-1
 764 1035 l 1,22,-1
 1081 1035 l 1,23,-1
 1081 96 l 2,24,25
 1081 -13 1081 -13 1054.5 -98 c 128,-1,26
 1028 -183 1028 -183 981.5 -239 c 128,-1,27
 935 -295 935 -295 868 -331.5 c 128,-1,28
 801 -368 801 -368 724.5 -383.5 c 128,-1,29
 648 -399 648 -399 556 -399 c 0,0,1
609 226 m 0,30,31
 693 226 693 226 766 287 c 1,32,-1
 766 799 l 1,33,34
 680 835 680 835 613 835 c 0,35,36
 514 835 514 835 454 759 c 128,-1,37
 394 683 394 683 394 543 c 0,38,39
 394 374 394 374 447 300 c 128,-1,40
 500 226 500 226 609 226 c 0,30,31
EndSplineSet
EndChar

StartChar: h
Encoding: 104 104 75
Width: 1186
Flags: W
LayerCount: 2
Fore
SplineSet
119 0 m 1,0,-1
 119 1481 l 1,1,-1
 428 1481 l 1,2,-1
 428 870 l 1,3,4
 437 888 437 888 460.5 915.5 c 128,-1,5
 484 943 484 943 524 977.5 c 128,-1,6
 564 1012 564 1012 625 1035.5 c 128,-1,7
 686 1059 686 1059 752 1059 c 0,8,9
 900 1059 900 1059 992.5 961 c 128,-1,10
 1085 863 1085 863 1085 684 c 2,11,-1
 1085 0 l 1,12,-1
 776 0 l 1,13,-1
 776 592 l 2,14,15
 776 714 776 714 738 766 c 128,-1,16
 700 818 700 818 611 818 c 0,17,18
 542 818 542 818 485 768 c 128,-1,19
 428 718 428 718 428 662 c 2,20,-1
 428 0 l 1,21,-1
 119 0 l 1,0,-1
EndSplineSet
EndChar

StartChar: i
Encoding: 105 105 76
Width: 603
Flags: W
LayerCount: 2
Fore
SplineSet
147 0 m 1,0,-1
 147 1035 l 1,1,-1
 456 1035 l 1,2,-1
 456 0 l 1,3,-1
 147 0 l 1,0,-1
301 1224 m 128,-1,5
 220 1224 220 1224 177 1263 c 128,-1,6
 134 1302 134 1302 134 1364 c 0,7,8
 134 1427 134 1427 177 1465.5 c 128,-1,9
 220 1504 220 1504 301 1504 c 128,-1,10
 382 1504 382 1504 425.5 1465.5 c 128,-1,11
 469 1427 469 1427 469 1364 c 0,12,13
 469 1302 469 1302 425.5 1263 c 128,-1,4
 382 1224 382 1224 301 1224 c 128,-1,5
EndSplineSet
EndChar

StartChar: j
Encoding: 106 106 77
Width: 626
Flags: W
LayerCount: 2
Fore
SplineSet
352 1224 m 128,-1,1
 271 1224 271 1224 228 1263 c 128,-1,2
 185 1302 185 1302 185 1364 c 0,3,4
 185 1427 185 1427 228 1465.5 c 128,-1,5
 271 1504 271 1504 352 1504 c 128,-1,6
 433 1504 433 1504 476.5 1465.5 c 128,-1,7
 520 1427 520 1427 520 1364 c 0,8,9
 520 1302 520 1302 476.5 1263 c 128,-1,0
 433 1224 433 1224 352 1224 c 128,-1,1
131 -391 m 0,10,11
 53 -391 53 -391 -75 -379 c 1,12,-1
 -75 -159 l 1,13,14
 -20 -164 -20 -164 24 -164 c 0,15,16
 67 -164 67 -164 94 -156.5 c 128,-1,17
 121 -149 121 -149 144.5 -125.5 c 128,-1,18
 168 -102 168 -102 179 -55 c 128,-1,19
 190 -8 190 -8 190 66 c 2,20,-1
 190 1035 l 1,21,-1
 499 1035 l 1,22,-1
 499 -42 l 2,23,24
 499 -207 499 -207 401.5 -299 c 128,-1,25
 304 -391 304 -391 131 -391 c 0,10,11
EndSplineSet
EndChar

StartChar: k
Encoding: 107 107 78
Width: 1160
Flags: W
LayerCount: 2
Fore
SplineSet
118 0 m 1,0,-1
 118 1481 l 1,1,-1
 427 1481 l 1,2,-1
 427 624 l 1,3,-1
 799 1035 l 1,4,-1
 1127 1035 l 1,5,-1
 1127 991 l 1,6,-1
 777 610 l 1,7,-1
 1144 73 l 1,8,-1
 1144 0 l 1,9,-1
 832 0 l 1,10,-1
 526 467 l 1,11,-1
 427 366 l 1,12,-1
 427 0 l 1,13,-1
 118 0 l 1,0,-1
EndSplineSet
EndChar

StartChar: l
Encoding: 108 108 79
Width: 634
Flags: W
LayerCount: 2
Fore
SplineSet
505 -2 m 2,0,1
 425 -2 425 -2 362.5 9 c 128,-1,2
 300 20 300 20 260 35.5 c 128,-1,3
 220 51 220 51 192 81.5 c 128,-1,4
 164 112 164 112 150 135 c 128,-1,5
 136 158 136 158 129 201.5 c 128,-1,6
 122 245 122 245 121 270 c 128,-1,7
 120 295 120 295 120 344 c 0,8,9
 120 351 120 351 120 354 c 2,10,-1
 120 1481 l 1,11,-1
 428 1481 l 1,12,-1
 428 340 l 2,13,14
 428 268 428 268 464.5 240 c 128,-1,15
 501 212 501 212 590 212 c 1,16,-1
 590 -2 l 1,17,-1
 505 -2 l 2,0,1
EndSplineSet
EndChar

StartChar: m
Encoding: 109 109 80
Width: 1784
Flags: W
LayerCount: 2
Fore
SplineSet
118 0 m 1,0,-1
 118 1035 l 1,1,-1
 427 1035 l 1,2,-1
 427 861 l 1,3,4
 462 929 462 929 516 974.5 c 128,-1,5
 570 1020 570 1020 629.5 1039.5 c 128,-1,6
 689 1059 689 1059 756 1059 c 0,7,8
 846 1059 846 1059 917.5 1010.5 c 128,-1,9
 989 962 989 962 1027 865 c 1,10,11
 1083 961 1083 961 1174.5 1010 c 128,-1,12
 1266 1059 1266 1059 1364 1059 c 0,13,14
 1508 1059 1508 1059 1598 964 c 128,-1,15
 1688 869 1688 869 1687 680 c 1,16,-1
 1687 0 l 1,17,-1
 1378 0 l 1,18,-1
 1378 573 l 2,19,20
 1378 714 1378 714 1344.5 767 c 128,-1,21
 1311 820 1311 820 1219 820 c 0,22,23
 1166 820 1166 820 1111.5 777.5 c 128,-1,24
 1057 735 1057 735 1057 703 c 2,25,-1
 1057 0 l 1,26,-1
 748 0 l 1,27,-1
 748 598 l 2,28,29
 748 722 748 722 712.5 771 c 128,-1,30
 677 820 677 820 590 820 c 0,31,32
 536 820 536 820 481.5 783.5 c 128,-1,33
 427 747 427 747 427 703 c 2,34,-1
 427 0 l 1,35,-1
 118 0 l 1,0,-1
EndSplineSet
EndChar

StartChar: n
Encoding: 110 110 81
Width: 1184
Flags: W
LayerCount: 2
Fore
SplineSet
119 0 m 1,0,-1
 119 1035 l 1,1,-1
 428 1035 l 1,2,-1
 428 855 l 1,3,4
 467 944 467 944 561 1001.5 c 128,-1,5
 655 1059 655 1059 763 1059 c 0,6,7
 824 1059 824 1059 880.5 1036.5 c 128,-1,8
 937 1014 937 1014 983.5 970.5 c 128,-1,9
 1030 927 1030 927 1058 856 c 128,-1,10
 1086 785 1086 785 1086 696 c 2,11,-1
 1086 0 l 1,12,-1
 777 0 l 1,13,-1
 777 599 l 2,14,15
 777 723 777 723 737 773.5 c 128,-1,16
 697 824 697 824 608 824 c 0,17,18
 539 824 539 824 483.5 773.5 c 128,-1,19
 428 723 428 723 428 684 c 2,20,-1
 428 0 l 1,21,-1
 119 0 l 1,0,-1
EndSplineSet
EndChar

StartChar: o
Encoding: 111 111 82
Width: 1218
Flags: W
LayerCount: 2
Fore
SplineSet
611 201 m 0,0,1
 719 201 719 201 771.5 276 c 128,-1,2
 824 351 824 351 824 516 c 0,3,4
 824 607 824 607 808.5 671 c 128,-1,5
 793 735 793 735 763 770 c 128,-1,6
 733 805 733 805 695 820 c 128,-1,7
 657 835 657 835 607 835 c 0,8,9
 559 835 559 835 523 820.5 c 128,-1,10
 487 806 487 806 456.5 771.5 c 128,-1,11
 426 737 426 737 410 673 c 128,-1,12
 394 609 394 609 394 517 c 128,-1,13
 394 425 394 425 409.5 362 c 128,-1,14
 425 299 425 299 455 264.5 c 128,-1,15
 485 230 485 230 522.5 215.5 c 128,-1,16
 560 201 560 201 611 201 c 0,0,1
607 -22 m 0,17,18
 355 -22 355 -22 217.5 115.5 c 128,-1,19
 80 253 80 253 80 519 c 0,20,21
 80 784 80 784 218 921.5 c 128,-1,22
 356 1059 356 1059 607 1059 c 0,23,24
 860 1059 860 1059 999 921 c 128,-1,25
 1138 783 1138 783 1138 518 c 0,26,27
 1138 254 1138 254 999 116 c 128,-1,28
 860 -22 860 -22 607 -22 c 0,17,18
EndSplineSet
EndChar

StartChar: p
Encoding: 112 112 83
Width: 1198
Flags: W
LayerCount: 2
Fore
SplineSet
118 -391 m 1,0,-1
 118 1035 l 1,1,-1
 427 1035 l 1,2,-1
 427 898 l 1,3,4
 466 967 466 967 553 1013 c 128,-1,5
 640 1059 640 1059 735 1059 c 0,6,7
 837 1059 837 1059 912 1020.5 c 128,-1,8
 987 982 987 982 1032 909.5 c 128,-1,9
 1077 837 1077 837 1098 741 c 128,-1,10
 1119 645 1119 645 1119 522 c 0,11,12
 1119 272 1119 272 1005 125 c 128,-1,13
 891 -22 891 -22 688 -22 c 0,14,15
 540 -22 540 -22 427 58 c 1,16,-1
 427 -391 l 1,17,-1
 118 -391 l 1,0,-1
585 202 m 0,18,19
 704 202 704 202 754.5 286 c 128,-1,20
 805 370 805 370 805 520 c 0,21,22
 805 668 805 668 756.5 746.5 c 128,-1,23
 708 825 708 825 596 825 c 0,24,25
 550 825 550 825 504 808.5 c 128,-1,26
 458 792 458 792 427 762 c 1,27,-1
 427 238 l 1,28,29
 483 202 483 202 585 202 c 0,18,19
EndSplineSet
EndChar

StartChar: q
Encoding: 113 113 84
Width: 1201
Flags: W
LayerCount: 2
Fore
SplineSet
775 -391 m 1,0,-1
 775 88 l 1,1,2
 665 -22 665 -22 511 -22 c 0,3,4
 311 -22 311 -22 196 125.5 c 128,-1,5
 81 273 81 273 81 517 c 0,6,7
 81 774 81 774 187 916.5 c 128,-1,8
 293 1059 293 1059 519 1059 c 0,9,10
 599 1059 599 1059 669.5 1022 c 128,-1,11
 740 985 740 985 775 925 c 1,12,-1
 775 1035 l 1,13,-1
 1084 1035 l 1,14,-1
 1084 -391 l 1,15,-1
 775 -391 l 1,0,-1
625 202 m 0,16,17
 673 202 673 202 715 217.5 c 128,-1,18
 757 233 757 233 775 257 c 1,19,-1
 775 781 l 1,20,21
 696 826 696 826 602 826 c 0,22,23
 491 826 491 826 443 745.5 c 128,-1,24
 395 665 395 665 395 515 c 0,25,26
 395 202 395 202 625 202 c 0,16,17
EndSplineSet
EndChar

StartChar: r
Encoding: 114 114 85
Width: 839
Flags: W
LayerCount: 2
Fore
SplineSet
119 0 m 1,0,-1
 119 1035 l 1,1,-1
 428 1035 l 1,2,-1
 428 904 l 1,3,4
 430 906 430 906 433.5 909.5 c 128,-1,5
 437 913 437 913 438 915 c 0,6,7
 490 966 490 966 566.5 1002 c 128,-1,8
 643 1038 643 1038 726 1038 c 0,9,10
 786 1038 786 1038 830 1016 c 1,11,-1
 782 743 l 1,12,13
 716 774 716 774 641 774 c 0,14,15
 582 774 582 774 520.5 756.5 c 128,-1,16
 459 739 459 739 428 697 c 1,17,-1
 428 0 l 1,18,-1
 119 0 l 1,0,-1
EndSplineSet
EndChar

StartChar: s
Encoding: 115 115 86
Width: 1053
Flags: W
LayerCount: 2
Fore
SplineSet
485 -22 m 0,0,1
 374 -22 374 -22 266.5 3 c 128,-1,2
 159 28 159 28 83 71 c 1,3,-1
 118 289 l 1,4,-1
 165 289 l 1,5,6
 307 196 307 196 486 196 c 0,7,8
 563 196 563 196 617 220 c 128,-1,9
 671 244 671 244 671 291 c 0,10,11
 671 308 671 308 666 321 c 128,-1,12
 661 334 661 334 645.5 345.5 c 128,-1,13
 630 357 630 357 615 364.5 c 128,-1,14
 600 372 600 372 566 381.5 c 128,-1,15
 532 391 532 391 504.5 397 c 128,-1,16
 477 403 477 403 422 415 c 0,17,18
 245 453 245 453 163 520.5 c 128,-1,19
 81 588 81 588 81 726 c 0,20,21
 81 874 81 874 205.5 966.5 c 128,-1,22
 330 1059 330 1059 543 1059 c 0,23,24
 770 1059 770 1059 918 983 c 1,25,-1
 886 762 l 1,26,-1
 854 762 l 1,27,28
 711 842 711 842 557 842 c 0,29,30
 483 842 483 842 438 816.5 c 128,-1,31
 393 791 393 791 393 748 c 0,32,33
 393 707 393 707 430.5 690.5 c 128,-1,34
 468 674 468 674 619 641 c 0,35,36
 819 598 819 598 900.5 529.5 c 128,-1,37
 982 461 982 461 982 317 c 0,38,39
 982 164 982 164 848.5 71 c 128,-1,40
 715 -22 715 -22 485 -22 c 0,0,1
EndSplineSet
EndChar

StartChar: t
Encoding: 116 116 87
Width: 826
Flags: W
LayerCount: 2
Fore
SplineSet
522 -13 m 0,0,1
 335 -13 335 -13 251 68 c 128,-1,2
 167 149 167 149 167 328 c 2,3,-1
 167 830 l 1,4,-1
 43 830 l 1,5,-1
 43 1035 l 1,6,-1
 167 1035 l 1,7,-1
 167 1291 l 1,8,-1
 476 1360 l 1,9,-1
 476 1035 l 1,10,-1
 756 1035 l 1,11,-1
 756 830 l 1,12,-1
 476 830 l 1,13,-1
 476 353 l 2,14,15
 476 211 476 211 629 211 c 0,16,17
 688 211 688 211 756 224 c 1,18,-1
 756 5 l 1,19,20
 665 -13 665 -13 522 -13 c 0,0,1
EndSplineSet
EndChar

StartChar: u
Encoding: 117 117 88
Width: 1184
Flags: W
LayerCount: 2
Fore
SplineSet
438 -22 m 0,0,1
 373 -22 373 -22 313.5 1 c 128,-1,2
 254 24 254 24 205.5 67.5 c 128,-1,3
 157 111 157 111 128 182 c 128,-1,4
 99 253 99 253 99 342 c 2,5,-1
 99 1035 l 1,6,-1
 415 1035 l 1,7,-1
 415 462 l 2,8,9
 415 335 415 335 457.5 276 c 128,-1,10
 500 217 500 217 588 217 c 0,11,12
 648 217 648 217 703.5 252 c 128,-1,13
 759 287 759 287 759 325 c 2,14,-1
 759 1035 l 1,15,-1
 1068 1035 l 1,16,-1
 1068 0 l 1,17,-1
 759 0 l 1,18,-1
 759 157 l 1,19,20
 712 69 712 69 626 23.5 c 128,-1,21
 540 -22 540 -22 438 -22 c 0,0,1
EndSplineSet
EndChar

StartChar: v
Encoding: 118 118 89
Width: 1062
Flags: W
LayerCount: 2
Fore
SplineSet
368 0 m 1,0,-1
 -17 1035 l 1,1,-1
 307 1035 l 1,2,-1
 491 479 l 1,3,-1
 536 327 l 1,4,-1
 538 327 l 1,5,-1
 583 479 l 1,6,-1
 758 1035 l 1,7,-1
 1080 1035 l 1,8,-1
 695 0 l 1,9,-1
 368 0 l 1,0,-1
EndSplineSet
EndChar

StartChar: w
Encoding: 119 119 90
Width: 1690
Flags: W
LayerCount: 2
Fore
SplineSet
322 0 m 1,0,-1
 5 1035 l 1,1,-1
 335 1035 l 1,2,-1
 479 415 l 1,3,-1
 503 311 l 1,4,-1
 504 311 l 1,5,-1
 533 415 l 1,6,-1
 711 1035 l 1,7,-1
 995 1035 l 1,8,-1
 1155 442 l 1,9,-1
 1191 319 l 1,10,-1
 1219 436 l 1,11,-1
 1359 1035 l 1,12,-1
 1686 1035 l 1,13,-1
 1367 0 l 1,14,-1
 1033 0 l 1,15,-1
 846 709 l 1,16,-1
 844 709 l 1,17,-1
 654 0 l 1,18,-1
 322 0 l 1,0,-1
EndSplineSet
EndChar

StartChar: x
Encoding: 120 120 91
Width: 1131
Flags: W
LayerCount: 2
Fore
SplineSet
-6 0 m 1,0,-1
 385 520 l 1,1,-1
 1 1035 l 1,2,-1
 361 1035 l 1,3,-1
 507 824 l 1,4,-1
 567 733 l 1,5,-1
 623 817 l 1,6,-1
 773 1035 l 1,7,-1
 1132 1035 l 1,8,-1
 749 524 l 1,9,-1
 1138 0 l 1,10,-1
 780 0 l 1,11,-1
 625 224 l 1,12,-1
 567 307 l 1,13,-1
 510 223 l 1,14,-1
 352 0 l 1,15,-1
 -6 0 l 1,0,-1
EndSplineSet
EndChar

StartChar: y
Encoding: 121 121 92
Width: 1087
Flags: W
LayerCount: 2
Fore
SplineSet
226 -392 m 1,0,1
 329 -190 329 -190 399 7 c 1,2,-1
 0 1035 l 1,3,-1
 324 1035 l 1,4,-1
 561 353 l 1,5,-1
 780 1035 l 1,6,-1
 1106 1035 l 1,7,-1
 681 -103 l 2,8,9
 660 -162 660 -162 626.5 -234 c 128,-1,10
 593 -306 593 -306 570.5 -349.5 c 128,-1,11
 548 -393 548 -393 547 -392 c 1,12,-1
 226 -392 l 1,0,1
EndSplineSet
EndChar

StartChar: z
Encoding: 122 122 93
Width: 995
Flags: W
LayerCount: 2
Fore
SplineSet
70 0 m 1,0,-1
 70 209 l 1,1,-1
 557 811 l 1,2,-1
 96 811 l 1,3,-1
 96 1035 l 1,4,-1
 918 1035 l 1,5,-1
 918 831 l 1,6,-1
 436 229 l 1,7,-1
 925 229 l 1,8,-1
 925 0 l 1,9,-1
 70 0 l 1,0,-1
EndSplineSet
EndChar

StartChar: braceleft
Encoding: 123 123 94
Width: 1030
Flags: W
LayerCount: 2
Fore
SplineSet
848 -316 m 2,0,1
 776 -316 776 -316 721.5 -312.5 c 128,-1,2
 667 -309 667 -309 613 -299.5 c 128,-1,3
 559 -290 559 -290 520.5 -273 c 128,-1,4
 482 -256 482 -256 448.5 -228.5 c 128,-1,5
 415 -201 415 -201 394.5 -163 c 128,-1,6
 374 -125 374 -125 362.5 -72 c 128,-1,7
 351 -19 351 -19 351 49 c 2,8,-1
 351 185 l 2,9,10
 351 348 351 348 276 415 c 128,-1,11
 201 482 201 482 19 482 c 1,12,-1
 19 705 l 1,13,14
 202 705 202 705 276.5 770 c 128,-1,15
 351 835 351 835 351 1003 c 2,16,-1
 351 1180 l 2,17,18
 351 1263 351 1263 374.5 1322.5 c 128,-1,19
 398 1382 398 1382 436.5 1416.5 c 128,-1,20
 475 1451 475 1451 538.5 1471 c 128,-1,21
 602 1491 602 1491 666.5 1497.5 c 128,-1,22
 731 1504 731 1504 822 1504 c 2,23,-1
 963 1504 l 1,24,-1
 963 1301 l 1,25,-1
 877 1301 l 2,26,27
 809 1301 809 1301 768.5 1292.5 c 128,-1,28
 728 1284 728 1284 698.5 1259 c 128,-1,29
 669 1234 669 1234 657.5 1188.5 c 128,-1,30
 646 1143 646 1143 646 1068 c 2,31,-1
 646 1009 l 2,32,33
 646 834 646 834 581 739.5 c 128,-1,34
 516 645 516 645 382 602 c 1,35,-1
 382 586 l 1,36,37
 500 549 500 549 573 462.5 c 128,-1,38
 646 376 646 376 646 231 c 2,39,-1
 646 153 l 2,40,41
 646 62 646 62 654.5 11.5 c 128,-1,42
 663 -39 663 -39 690.5 -68 c 128,-1,43
 718 -97 718 -97 757 -105 c 128,-1,44
 796 -113 796 -113 868 -113 c 2,45,-1
 963 -113 l 1,46,-1
 963 -315 l 1,47,-1
 848 -316 l 2,0,1
EndSplineSet
EndChar

StartChar: bar
Encoding: 124 124 95
Width: 951
Flags: W
LayerCount: 2
Fore
SplineSet
342 -425 m 1,0,-1
 342 1481 l 1,1,-1
 611 1481 l 1,2,-1
 611 -425 l 1,3,-1
 342 -425 l 1,0,-1
EndSplineSet
EndChar

StartChar: braceright
Encoding: 125 125 96
Width: 1030
Flags: W
LayerCount: 2
Fore
SplineSet
21 -315 m 1,0,-1
 21 -113 l 1,1,-1
 107 -113 l 2,2,3
 175 -113 175 -113 215.5 -104.5 c 128,-1,4
 256 -96 256 -96 285 -70 c 128,-1,5
 314 -44 314 -44 325.5 1.5 c 128,-1,6
 337 47 337 47 337 122 c 2,7,-1
 337 181 l 2,8,9
 337 355 337 355 403 449.5 c 128,-1,10
 469 544 469 544 603 587 c 1,11,-1
 603 603 l 1,12,13
 484 641 484 641 410.5 726.5 c 128,-1,14
 337 812 337 812 337 956 c 2,15,-1
 337 1037 l 2,16,17
 337 1127 337 1127 328.5 1177.5 c 128,-1,18
 320 1228 320 1228 292.5 1257 c 128,-1,19
 265 1286 265 1286 226.5 1294 c 128,-1,20
 188 1302 188 1302 116 1302 c 2,21,-1
 21 1302 l 1,22,-1
 21 1504 l 1,23,-1
 135 1504 l 2,24,25
 220 1504 220 1504 281 1499 c 128,-1,26
 342 1494 342 1494 402 1480.5 c 128,-1,27
 462 1467 462 1467 501.5 1441.5 c 128,-1,28
 541 1416 541 1416 572 1376 c 128,-1,29
 603 1336 603 1336 617.5 1277 c 128,-1,30
 632 1218 632 1218 632 1139 c 2,31,-1
 632 1004 l 2,32,33
 632 841 632 841 707.5 773 c 128,-1,34
 783 705 783 705 964 705 c 1,35,-1
 964 483 l 1,36,37
 780 483 780 483 706 418.5 c 128,-1,38
 632 354 632 354 632 186 c 2,39,-1
 632 8 l 2,40,41
 632 -75 632 -75 608.5 -134 c 128,-1,42
 585 -193 585 -193 546.5 -228 c 128,-1,43
 508 -263 508 -263 444.5 -282.5 c 128,-1,44
 381 -302 381 -302 316.5 -308.5 c 128,-1,45
 252 -315 252 -315 161 -315 c 2,46,-1
 21 -315 l 1,0,-1
EndSplineSet
EndChar

StartChar: asciitilde
Encoding: 126 126 97
Width: 1456
Flags: W
LayerCount: 2
Fore
SplineSet
1004 310 m 0,0,1
 929 310 929 310 854 337.5 c 128,-1,2
 779 365 779 365 721.5 404.5 c 128,-1,3
 664 444 664 444 614 483.5 c 128,-1,4
 564 523 564 523 522 550.5 c 128,-1,5
 480 578 480 578 454 578 c 0,6,7
 393 578 393 578 356.5 506 c 128,-1,8
 320 434 320 434 315 307 c 1,9,-1
 100 351 l 1,10,11
 111 596 111 596 204.5 720.5 c 128,-1,12
 298 845 298 845 461 845 c 0,13,14
 517 845 517 845 578.5 817 c 128,-1,15
 640 789 640 789 693 748.5 c 128,-1,16
 746 708 746 708 797.5 667.5 c 128,-1,17
 849 627 849 627 902.5 599 c 128,-1,18
 956 571 956 571 1001 571 c 0,19,20
 1032 571 1032 571 1055.5 581.5 c 128,-1,21
 1079 592 1079 592 1094 615.5 c 128,-1,22
 1109 639 1109 639 1118.5 659.5 c 128,-1,23
 1128 680 1128 680 1133 717 c 128,-1,24
 1138 754 1138 754 1139.5 774.5 c 128,-1,25
 1141 795 1141 795 1143 834 c 0,26,27
 1143 836 1143 836 1143.5 837 c 128,-1,28
 1144 838 1144 838 1144 840 c 128,-1,29
 1144 842 1144 842 1144 843.5 c 128,-1,30
 1144 845 1144 845 1144 847 c 1,31,-1
 1361 801 l 1,32,33
 1350 555 1350 555 1262 432.5 c 128,-1,34
 1174 310 1174 310 1004 310 c 0,0,1
EndSplineSet
EndChar

StartChar: exclamdown
Encoding: 161 161 99
Width: 605
Flags: W
LayerCount: 2
Fore
SplineSet
350 1058 m 0,0,1
 430 1058 430 1058 487 1001 c 128,-1,2
 544 944 544 944 544 864 c 0,3,4
 544 783 544 783 487 726 c 128,-1,5
 430 669 430 669 350 669 c 0,6,7
 269 669 269 669 212 726 c 128,-1,8
 155 783 155 783 155 864 c 0,9,10
 155 944 155 944 212 1001 c 128,-1,11
 269 1058 269 1058 350 1058 c 0,0,1
432 517 m 1,12,-1
 535 -441 l 1,13,-1
 165 -441 l 1,14,-1
 265 517 l 1,15,-1
 432 517 l 1,12,-1
EndSplineSet
EndChar

StartChar: cent
Encoding: 162 162 100
Width: 1147
Flags: W
LayerCount: 2
Fore
SplineSet
698 -20 m 1,0,-1
 698 -292 l 1,1,-1
 582 -292 l 1,2,-1
 582 -20 l 1,3,4
 475 -13 475 -13 385.5 22.5 c 128,-1,5
 296 58 296 58 227 122 c 128,-1,6
 158 186 158 186 119.5 286.5 c 128,-1,7
 81 387 81 387 81 515 c 0,8,9
 81 624 81 624 108.5 713 c 128,-1,10
 136 802 136 802 182.5 863 c 128,-1,11
 229 924 229 924 294 967 c 128,-1,12
 359 1010 359 1010 430.5 1031 c 128,-1,13
 502 1052 502 1052 582 1057 c 1,14,-1
 582 1311 l 1,15,-1
 698 1311 l 1,16,-1
 698 1056 l 1,17,18
 857 1043 857 1043 1010 957 c 1,19,-1
 963 739 l 1,20,21
 939 758 939 758 906.5 774.5 c 128,-1,22
 874 791 874 791 839.5 803.5 c 128,-1,23
 805 816 805 816 768 824.5 c 128,-1,24
 731 833 731 833 698 834 c 1,25,-1
 698 202 l 1,26,27
 835 209 835 209 962 293 c 1,28,-1
 1010 77 l 1,29,30
 937 37 937 37 859.5 12 c 128,-1,31
 782 -13 782 -13 698 -20 c 1,0,-1
582 214 m 1,32,-1
 582 821 l 1,33,34
 496 794 496 794 445.5 717.5 c 128,-1,35
 395 641 395 641 395 514 c 0,36,37
 395 462 395 462 404 418 c 128,-1,38
 413 374 413 374 429 341 c 128,-1,39
 445 308 445 308 468.5 282.5 c 128,-1,40
 492 257 492 257 520 240 c 128,-1,41
 548 223 548 223 582 214 c 1,32,-1
EndSplineSet
EndChar

StartChar: sterling
Encoding: 163 163 101
Width: 1224
Flags: W
LayerCount: 2
Fore
SplineSet
833 -10 m 0,0,1
 754 -10 754 -10 569 0.5 c 128,-1,2
 384 11 384 11 302 11 c 0,3,4
 202 11 202 11 89 -6 c 1,5,-1
 89 233 l 1,6,7
 171 238 171 238 249 252 c 1,8,9
 293 366 293 366 293 497 c 0,10,11
 293 552 293 552 286 612 c 1,12,-1
 99 612 l 1,13,-1
 99 810 l 1,14,-1
 262 810 l 1,15,16
 234 938 234 938 234 1044 c 0,17,18
 234 1148 234 1148 260.5 1230 c 128,-1,19
 287 1312 287 1312 343 1374.5 c 128,-1,20
 399 1437 399 1437 493 1470.5 c 128,-1,21
 587 1504 587 1504 716 1504 c 0,22,23
 825 1504 825 1504 928 1473.5 c 128,-1,24
 1031 1443 1031 1443 1075 1400 c 1,25,-1
 1092 1119 l 1,26,-1
 1023 1119 l 1,27,28
 977 1175 977 1175 903.5 1211 c 128,-1,29
 830 1247 830 1247 759 1247 c 0,30,31
 704 1247 704 1247 665.5 1229.5 c 128,-1,32
 627 1212 627 1212 606 1180.5 c 128,-1,33
 585 1149 585 1149 575.5 1111 c 128,-1,34
 566 1073 566 1073 566 1024.5 c 128,-1,35
 566 976 566 976 574 922.5 c 128,-1,36
 582 869 582 869 596 810 c 1,37,-1
 974 810 l 1,38,-1
 974 612 l 1,39,-1
 616 612 l 1,40,41
 617 603 617 603 617 593 c 128,-1,42
 617 583 617 583 617 573 c 0,43,44
 617 487 617 487 588.5 398 c 128,-1,45
 560 309 560 309 513 258 c 1,46,47
 550 257 550 257 654.5 245 c 128,-1,48
 759 233 759 233 820 233 c 0,49,50
 852 233 852 233 882 234.5 c 128,-1,51
 912 236 912 236 934.5 238.5 c 128,-1,52
 957 241 957 241 984 245.5 c 128,-1,53
 1011 250 1011 250 1027.5 253 c 128,-1,54
 1044 256 1044 256 1073 262 c 128,-1,55
 1102 268 1102 268 1118 271 c 1,56,-1
 1166 33 l 1,57,58
 1012 -10 1012 -10 833 -10 c 0,0,1
EndSplineSet
EndChar

StartChar: currency
Encoding: 164 164 102
Width: 942
Flags: W
LayerCount: 2
Fore
SplineSet
140 253 m 1,0,-1
 38 353 l 1,1,-1
 132 450 l 1,2,3
 99 489 99 489 78 553.5 c 128,-1,4
 57 618 57 618 57 687 c 128,-1,5
 57 756 57 756 77.5 821 c 128,-1,6
 98 886 98 886 132 929 c 1,7,-1
 38 1023 l 1,8,-1
 140 1122 l 1,9,-1
 235 1029 l 1,10,11
 276 1062 276 1062 341 1083 c 128,-1,12
 406 1104 406 1104 475 1104 c 0,13,14
 614 1104 614 1104 711 1031 c 1,15,-1
 806 1122 l 1,16,-1
 907 1023 l 1,17,-1
 813 929 l 1,18,19
 847 885 847 885 868.5 820 c 128,-1,20
 890 755 890 755 890 687 c 0,21,22
 890 618 890 618 868.5 554 c 128,-1,23
 847 490 847 490 813 448 c 1,24,-1
 907 353 l 1,25,-1
 806 253 l 1,26,-1
 711 348 l 1,27,28
 614 273 614 273 475 273 c 0,29,30
 407 273 407 273 342 294.5 c 128,-1,31
 277 316 277 316 235 348 c 1,32,-1
 140 253 l 1,0,-1
475 405 m 0,33,34
 597 405 597 405 670.5 481 c 128,-1,35
 744 557 744 557 744 687 c 0,36,37
 744 818 744 818 670.5 894.5 c 128,-1,38
 597 971 597 971 475 971 c 0,39,40
 352 971 352 971 277.5 894 c 128,-1,41
 203 817 203 817 203 687 c 0,42,43
 203 558 203 558 277.5 481.5 c 128,-1,44
 352 405 352 405 475 405 c 0,33,34
EndSplineSet
EndChar

StartChar: yen
Encoding: 165 165 103
Width: 1312
Flags: W
LayerCount: 2
Fore
SplineSet
522 0 m 1,0,-1
 522 389 l 1,1,-1
 135 389 l 1,2,-1
 135 575 l 1,3,-1
 521 575 l 1,4,-1
 469 704 l 1,5,-1
 135 704 l 1,6,-1
 135 888 l 1,7,-1
 358 888 l 1,8,-1
 -12 1481 l 1,9,-1
 378 1481 l 1,10,11
 414 1410 414 1410 542.5 1190.5 c 128,-1,12
 671 971 671 971 700 918 c 1,13,14
 732 983 732 983 856.5 1200 c 128,-1,15
 981 1417 981 1417 1013 1481 c 1,16,-1
 1393 1481 l 1,17,-1
 1019 888 l 1,18,-1
 1236 888 l 1,19,-1
 1236 704 l 1,20,-1
 911 704 l 1,21,-1
 862 575 l 1,22,-1
 1236 575 l 1,23,-1
 1236 389 l 1,24,-1
 862 389 l 1,25,-1
 862 0 l 1,26,-1
 522 0 l 1,0,-1
EndSplineSet
EndChar

StartChar: brokenbar
Encoding: 166 166 104
Width: 399
Flags: W
LayerCount: 2
Fore
SplineSet
99 -338 m 1,0,-1
 99 338 l 1,1,-1
 301 338 l 1,2,-1
 301 -338 l 1,3,-1
 99 -338 l 1,0,-1
99 628 m 1,4,-1
 99 1303 l 1,5,-1
 301 1303 l 1,6,-1
 301 628 l 1,7,-1
 99 628 l 1,4,-1
EndSplineSet
EndChar

StartChar: section
Encoding: 167 167 105
Width: 1173
Flags: W
LayerCount: 2
Fore
SplineSet
532 -58 m 0,0,1
 421 -58 421 -58 314.5 -33 c 128,-1,2
 208 -8 208 -8 131 36 c 1,3,-1
 171 286 l 1,4,5
 332 162 332 162 534 162 c 0,6,7
 611 162 611 162 665 186.5 c 128,-1,8
 719 211 719 211 719 258 c 0,9,10
 719 283 719 283 704.5 301 c 128,-1,11
 690 319 690 319 658 331 c 128,-1,12
 626 343 626 343 596.5 350 c 128,-1,13
 567 357 567 357 517 366 c 0,14,15
 495 370 495 370 484 372 c 0,16,17
 314 405 314 405 221.5 480 c 128,-1,18
 129 555 129 555 129 693 c 0,19,20
 129 849 129 849 257 933 c 1,21,22
 129 1015 129 1015 129 1172 c 0,23,24
 129 1319 129 1319 253.5 1411.5 c 128,-1,25
 378 1504 378 1504 591 1504 c 0,26,27
 807 1504 807 1504 965 1425 c 1,28,-1
 932 1188 l 1,29,30
 872 1227 872 1227 786 1257 c 128,-1,31
 700 1287 700 1287 605 1287 c 0,32,33
 531 1287 531 1287 486 1261.5 c 128,-1,34
 441 1236 441 1236 441 1193 c 128,-1,35
 441 1150 441 1150 484 1131.5 c 128,-1,36
 527 1113 527 1113 672 1088 c 0,37,38
 857 1056 857 1056 943.5 981 c 128,-1,39
 1030 906 1030 906 1030 762 c 0,40,41
 1030 614 1030 614 910 526 c 1,42,43
 1030 447 1030 447 1030 283 c 0,44,45
 1030 130 1030 130 895.5 36 c 128,-1,46
 761 -58 761 -58 532 -58 c 0,0,1
695 604 m 1,47,48
 726 623 726 623 747.5 654.5 c 128,-1,49
 769 686 769 686 769 726 c 0,50,51
 769 749 769 749 754 767.5 c 128,-1,52
 739 786 739 786 716.5 797.5 c 128,-1,53
 694 809 694 809 658 818.5 c 128,-1,54
 622 828 622 828 592.5 833 c 128,-1,55
 563 838 563 838 520 845 c 128,-1,56
 477 852 477 852 454 857 c 1,57,58
 437 848 437 848 421 830.5 c 128,-1,59
 405 813 405 813 393.5 789 c 128,-1,60
 382 765 382 765 382 742 c 0,61,62
 382 725 382 725 388 710.5 c 128,-1,63
 394 696 394 696 403.5 685.5 c 128,-1,64
 413 675 413 675 431 666.5 c 128,-1,65
 449 658 449 658 466 652 c 128,-1,66
 483 646 483 646 512.5 639.5 c 128,-1,67
 542 633 542 633 565 628.5 c 128,-1,68
 588 624 588 624 627 617 c 128,-1,69
 666 610 666 610 695 604 c 1,47,48
EndSplineSet
EndChar

StartChar: dieresis
Encoding: 168 168 106
Width: 799
Flags: W
LayerCount: 2
Fore
SplineSet
99 1185 m 1,0,-1
 99 1439 l 1,1,-1
 329 1439 l 1,2,-1
 329 1185 l 1,3,-1
 99 1185 l 1,0,-1
468 1185 m 1,4,-1
 468 1439 l 1,5,-1
 698 1439 l 1,6,-1
 698 1185 l 1,7,-1
 468 1185 l 1,4,-1
EndSplineSet
EndChar

StartChar: copyright
Encoding: 169 169 107
Width: 1817
Flags: W
LayerCount: 2
Fore
SplineSet
941 231 m 0,0,1
 851 231 851 231 771 261 c 128,-1,2
 691 291 691 291 629 346 c 128,-1,3
 567 401 567 401 530.5 486.5 c 128,-1,4
 494 572 494 572 494 675 c 0,5,6
 494 876 494 876 619 998.5 c 128,-1,7
 744 1121 744 1121 938 1121 c 0,8,9
 1100 1121 1100 1121 1249 1016 c 1,10,-1
 1196 899 l 1,11,-1
 1177 912 l 2,12,13
 1158 926 1158 926 1139.5 936.5 c 128,-1,14
 1121 947 1121 947 1092.5 960 c 128,-1,15
 1064 973 1064 973 1028 980.5 c 128,-1,16
 992 988 992 988 955 988 c 0,17,18
 828 988 828 988 748 900.5 c 128,-1,19
 668 813 668 813 668 675 c 128,-1,20
 668 537 668 537 743 451 c 128,-1,21
 818 365 818 365 951 365 c 0,22,23
 1010 365 1010 365 1066.5 382.5 c 128,-1,24
 1123 400 1123 400 1150 418 c 2,25,-1
 1177 436 l 1,26,-1
 1223 316 l 1,27,28
 1184 284 1184 284 1102.5 257.5 c 128,-1,29
 1021 231 1021 231 941 231 c 0,0,1
910 36 m 0,30,31
 1096 36 1096 36 1246.5 118 c 128,-1,32
 1397 200 1397 200 1482.5 346 c 128,-1,33
 1568 492 1568 492 1568 672 c 0,34,35
 1568 853 1568 853 1479.5 998.5 c 128,-1,36
 1391 1144 1391 1144 1241 1223.5 c 128,-1,37
 1091 1303 1091 1303 910 1303 c 0,38,39
 771 1303 771 1303 650 1254 c 128,-1,40
 529 1205 529 1205 443.5 1120.5 c 128,-1,41
 358 1036 358 1036 308.5 918.5 c 128,-1,42
 259 801 259 801 259 669 c 0,43,44
 259 487 259 487 346.5 341.5 c 128,-1,45
 434 196 434 196 582.5 116 c 128,-1,46
 731 36 731 36 910 36 c 0,30,31
910 -117 m 0,47,48
 744 -117 744 -117 592.5 -59 c 128,-1,49
 441 -1 441 -1 328 100.5 c 128,-1,50
 215 202 215 202 148 350 c 128,-1,51
 81 498 81 498 81 669 c 0,52,53
 81 887 81 887 191 1067.5 c 128,-1,54
 301 1248 301 1248 491 1351.5 c 128,-1,55
 681 1455 681 1455 910 1455 c 0,56,57
 1134 1455 1134 1455 1323.5 1353 c 128,-1,58
 1513 1251 1513 1251 1625.5 1069.5 c 128,-1,59
 1738 888 1738 888 1738 669 c 0,60,61
 1738 506 1738 506 1673.5 360 c 128,-1,62
 1609 214 1609 214 1498.5 109.5 c 128,-1,63
 1388 5 1388 5 1234.5 -56 c 128,-1,64
 1081 -117 1081 -117 910 -117 c 0,47,48
EndSplineSet
EndChar

StartChar: ordfeminine
Encoding: 170 170 108
Width: 852
Flags: W
LayerCount: 2
Fore
SplineSet
290 645 m 0,0,1
 185 645 185 645 114.5 700.5 c 128,-1,2
 44 756 44 756 44 869 c 0,3,4
 44 906 44 906 52.5 937 c 128,-1,5
 61 968 61 968 74.5 991.5 c 128,-1,6
 88 1015 88 1015 112.5 1034.5 c 128,-1,7
 137 1054 137 1054 161 1068 c 128,-1,8
 185 1082 185 1082 221.5 1093 c 128,-1,9
 258 1104 258 1104 289.5 1111 c 128,-1,10
 321 1118 321 1118 367.5 1124 c 128,-1,11
 414 1130 414 1130 449.5 1133 c 128,-1,12
 485 1136 485 1136 538 1140 c 1,13,14
 538 1206 538 1206 496 1231.5 c 128,-1,15
 454 1257 454 1257 357 1257 c 0,16,17
 288 1257 288 1257 221 1238.5 c 128,-1,18
 154 1220 154 1220 130 1203 c 1,19,-1
 95 1364 l 1,20,21
 136 1390 136 1390 219 1406 c 128,-1,22
 302 1422 302 1422 393 1422 c 0,23,24
 586 1422 586 1422 677 1359.5 c 128,-1,25
 768 1297 768 1297 768 1157 c 2,26,-1
 768 659 l 1,27,-1
 538 659 l 1,28,-1
 538 740 l 1,29,-1
 536 740 l 1,30,31
 491 696 491 696 425 670.5 c 128,-1,32
 359 645 359 645 290 645 c 0,0,1
381 802 m 0,33,34
 429 802 429 802 475.5 823 c 128,-1,35
 522 844 522 844 538 872 c 1,36,-1
 538 992 l 1,37,38
 487 990 487 990 451.5 987.5 c 128,-1,39
 416 985 416 985 381 978 c 128,-1,40
 346 971 346 971 325.5 960 c 128,-1,41
 305 949 305 949 292 931 c 128,-1,42
 279 913 279 913 279 888 c 0,43,44
 279 847 279 847 306.5 824.5 c 128,-1,45
 334 802 334 802 381 802 c 0,33,34
EndSplineSet
EndChar

StartChar: guillemotleft
Encoding: 171 171 109
Width: 1045
Flags: W
LayerCount: 2
Fore
SplineSet
538 135 m 1,0,-1
 115 525 l 1,1,-1
 115 658 l 1,2,-1
 538 1052 l 1,3,-1
 538 774 l 1,4,-1
 348 591 l 1,5,6
 517 433 517 433 538 415 c 1,7,-1
 538 135 l 1,0,-1
964 135 m 1,8,-1
 539 525 l 1,9,-1
 539 658 l 1,10,-1
 964 1052 l 1,11,-1
 964 774 l 1,12,-1
 773 591 l 1,13,14
 942 433 942 433 964 415 c 1,15,-1
 964 135 l 1,8,-1
EndSplineSet
EndChar

StartChar: logicalnot
Encoding: 172 172 110
Width: 1459
Flags: W
LayerCount: 2
Fore
SplineSet
1063 99 m 1,0,-1
 1063 544 l 1,1,-1
 134 544 l 1,2,-1
 134 779 l 1,3,-1
 1323 779 l 1,4,-1
 1323 99 l 1,5,-1
 1063 99 l 1,0,-1
EndSplineSet
EndChar

StartChar: uni00AD
Encoding: 173 173 111
Width: 778
Flags: W
LayerCount: 2
Fore
SplineSet
99 436 m 1,0,-1
 99 634 l 1,1,-1
 680 634 l 1,2,-1
 680 436 l 1,3,-1
 99 436 l 1,0,-1
EndSplineSet
EndChar

StartChar: registered
Encoding: 174 174 112
Width: 1817
Flags: W
LayerCount: 2
Fore
SplineSet
597 246 m 1,0,-1
 597 1124 l 1,1,-1
 888 1124 l 2,2,3
 946 1124 946 1124 993 1119.5 c 128,-1,4
 1040 1115 1040 1115 1091 1099 c 128,-1,5
 1142 1083 1142 1083 1176 1056.5 c 128,-1,6
 1210 1030 1210 1030 1232.5 983 c 128,-1,7
 1255 936 1255 936 1255 873 c 0,8,9
 1255 774 1255 774 1213.5 719 c 128,-1,10
 1172 664 1172 664 1076 637 c 1,11,-1
 1303 289 l 1,12,-1
 1303 246 l 1,13,-1
 1150 246 l 1,14,-1
 926 615 l 1,15,-1
 752 615 l 1,16,-1
 752 246 l 1,17,-1
 597 246 l 1,0,-1
752 736 m 1,18,-1
 938 736 l 2,19,20
 1026 736 1026 736 1066.5 770 c 128,-1,21
 1107 804 1107 804 1107 872 c 0,22,23
 1107 938 1107 938 1059 972 c 128,-1,24
 1011 1006 1011 1006 897 1006 c 2,25,-1
 752 1006 l 1,26,-1
 752 736 l 1,18,-1
910 36 m 0,27,28
 1096 36 1096 36 1246.5 118 c 128,-1,29
 1397 200 1397 200 1482.5 346 c 128,-1,30
 1568 492 1568 492 1568 672 c 0,31,32
 1568 853 1568 853 1479.5 998.5 c 128,-1,33
 1391 1144 1391 1144 1241 1223.5 c 128,-1,34
 1091 1303 1091 1303 910 1303 c 0,35,36
 771 1303 771 1303 650 1254 c 128,-1,37
 529 1205 529 1205 443.5 1120.5 c 128,-1,38
 358 1036 358 1036 308.5 918.5 c 128,-1,39
 259 801 259 801 259 669 c 0,40,41
 259 487 259 487 346.5 341.5 c 128,-1,42
 434 196 434 196 582.5 116 c 128,-1,43
 731 36 731 36 910 36 c 0,27,28
910 -117 m 0,44,45
 744 -117 744 -117 592.5 -59 c 128,-1,46
 441 -1 441 -1 328 100.5 c 128,-1,47
 215 202 215 202 148 350 c 128,-1,48
 81 498 81 498 81 669 c 0,49,50
 81 887 81 887 191 1067.5 c 128,-1,51
 301 1248 301 1248 491 1351.5 c 128,-1,52
 681 1455 681 1455 910 1455 c 0,53,54
 1134 1455 1134 1455 1323.5 1353 c 128,-1,55
 1513 1251 1513 1251 1625.5 1069.5 c 128,-1,56
 1738 888 1738 888 1738 669 c 0,57,58
 1738 506 1738 506 1673.5 360 c 128,-1,59
 1609 214 1609 214 1498.5 109.5 c 128,-1,60
 1388 5 1388 5 1234.5 -56 c 128,-1,61
 1081 -117 1081 -117 910 -117 c 0,44,45
EndSplineSet
EndChar

StartChar: macron
Encoding: 175 175 113
Width: 540
Flags: W
LayerCount: 2
Fore
SplineSet
-3 1138 m 1,0,-1
 -3 1335 l 1,1,-1
 549 1335 l 1,2,-1
 549 1138 l 1,3,-1
 -3 1138 l 1,0,-1
EndSplineSet
EndChar

StartChar: degree
Encoding: 176 176 114
Width: 913
Flags: W
LayerCount: 2
Fore
SplineSet
458 870 m 128,-1,1
 545 870 545 870 605.5 929.5 c 128,-1,2
 666 989 666 989 666 1073 c 0,3,4
 666 1156 666 1156 605 1216.5 c 128,-1,5
 544 1277 544 1277 458 1277 c 128,-1,6
 372 1277 372 1277 310.5 1216.5 c 128,-1,7
 249 1156 249 1156 249 1073 c 0,8,9
 249 987 249 987 310 928.5 c 128,-1,0
 371 870 371 870 458 870 c 128,-1,1
458 763 m 128,-1,11
 322 763 322 763 226 853.5 c 128,-1,12
 130 944 130 944 130 1073 c 0,13,14
 130 1203 130 1203 226 1292.5 c 128,-1,15
 322 1382 322 1382 458 1382 c 128,-1,16
 594 1382 594 1382 689.5 1292 c 128,-1,17
 785 1202 785 1202 785 1073 c 0,18,19
 785 943 785 943 689.5 853 c 128,-1,10
 594 763 594 763 458 763 c 128,-1,11
EndSplineSet
EndChar

StartChar: plusminus
Encoding: 177 177 115
Width: 1398
Flags: W
LayerCount: 2
Fore
SplineSet
555 280 m 1,0,-1
 555 616 l 1,1,-1
 159 616 l 1,2,-1
 159 791 l 1,3,-1
 555 791 l 1,4,-1
 555 1129 l 1,5,-1
 738 1129 l 1,6,-1
 738 791 l 1,7,-1
 1136 791 l 1,8,-1
 1136 616 l 1,9,-1
 738 616 l 1,10,-1
 738 280 l 1,11,-1
 555 280 l 1,0,-1
157 0 m 1,12,-1
 157 176 l 1,13,-1
 1135 176 l 1,14,-1
 1135 0 l 1,15,-1
 157 0 l 1,12,-1
EndSplineSet
EndChar

StartChar: uni00B2
Encoding: 178 178 116
Width: 742
Flags: W
LayerCount: 2
Fore
SplineSet
90 647 m 1,0,-1
 90 768 l 1,1,2
 153 825 153 825 199.5 869.5 c 128,-1,3
 246 914 246 914 310.5 983.5 c 128,-1,4
 375 1053 375 1053 411 1114 c 128,-1,5
 447 1175 447 1175 447 1220 c 0,6,7
 447 1331 447 1331 328 1331 c 0,8,9
 281 1331 281 1331 224 1311 c 128,-1,10
 167 1291 167 1291 140 1271 c 1,11,-1
 102 1405 l 1,12,13
 134 1433 134 1433 209.5 1457 c 128,-1,14
 285 1481 285 1481 350 1481 c 0,15,16
 484 1481 484 1481 557.5 1415.5 c 128,-1,17
 631 1350 631 1350 631 1237 c 0,18,19
 631 1052 631 1052 324 788 c 1,20,-1
 651 788 l 1,21,-1
 651 647 l 1,22,-1
 90 647 l 1,0,-1
EndSplineSet
EndChar

StartChar: acute
Encoding: 180 180 117
Width: 748
Flags: W
LayerCount: 2
Fore
SplineSet
153 1160 m 1,0,-1
 349 1506 l 1,1,-1
 661 1506 l 1,2,-1
 364 1160 l 1,3,-1
 153 1160 l 1,0,-1
EndSplineSet
EndChar

StartChar: paragraph
Encoding: 182 182 118
Width: 1230
Flags: W
LayerCount: 2
Fore
SplineSet
587 -270 m 1,0,-1
 587 691 l 1,1,2
 338 694 338 694 199.5 798.5 c 128,-1,3
 61 903 61 903 61 1088 c 128,-1,4
 61 1273 61 1273 199.5 1377 c 128,-1,5
 338 1481 338 1481 609 1481 c 2,6,-1
 1102 1481 l 1,7,-1
 1102 -270 l 1,8,-1
 915 -270 l 1,9,-1
 915 1325 l 1,10,-1
 781 1325 l 1,11,-1
 781 -270 l 1,12,-1
 587 -270 l 1,0,-1
EndSplineSet
EndChar

StartChar: periodcentered
Encoding: 183 183 119
Width: 627
Flags: W
LayerCount: 2
Fore
SplineSet
319 401 m 0,0,1
 239 401 239 401 181.5 458.5 c 128,-1,2
 124 516 124 516 124 596 c 128,-1,3
 124 676 124 676 181.5 733 c 128,-1,4
 239 790 239 790 319 790 c 0,5,6
 400 790 400 790 457 733 c 128,-1,7
 514 676 514 676 514 596 c 128,-1,8
 514 516 514 516 457 458.5 c 128,-1,9
 400 401 400 401 319 401 c 0,0,1
EndSplineSet
EndChar

StartChar: cedilla
Encoding: 184 184 120
Width: 840
Flags: W
LayerCount: 2
Fore
SplineSet
361 -512 m 0,0,1
 322 -512 322 -512 264 -499.5 c 128,-1,2
 206 -487 206 -487 169 -469 c 1,3,-1
 197 -341 l 1,4,-1
 259 -341 l 1,5,6
 271 -360 271 -360 301.5 -372.5 c 128,-1,7
 332 -385 332 -385 363 -385 c 0,8,9
 426 -385 426 -385 463 -355 c 128,-1,10
 500 -325 500 -325 500 -280 c 0,11,12
 500 -242 500 -242 467 -216 c 128,-1,13
 434 -190 434 -190 386 -190 c 0,14,15
 371 -190 371 -190 346 -195 c 1,16,17
 323 -189 323 -189 297 -184 c 1,18,-1
 363 2 l 1,19,-1
 467 2 l 1,20,-1
 427 -100 l 1,21,22
 551 -101 551 -101 608 -152 c 128,-1,23
 665 -203 665 -203 665 -279 c 0,24,25
 665 -377 665 -377 583.5 -444.5 c 128,-1,26
 502 -512 502 -512 361 -512 c 0,0,1
EndSplineSet
EndChar

StartChar: ordmasculine
Encoding: 186 186 121
Width: 923
Flags: W
LayerCount: 2
Fore
SplineSet
474 811 m 0,0,1
 548 811 548 811 585 871 c 128,-1,2
 622 931 622 931 622 1036 c 0,3,4
 622 1260 622 1260 470 1260 c 0,5,6
 402 1260 402 1260 360.5 1211.5 c 128,-1,7
 319 1163 319 1163 319 1037 c 0,8,9
 319 811 319 811 474 811 c 0,0,1
470 644 m 128,-1,11
 280 644 280 644 176 746 c 128,-1,12
 72 848 72 848 72 1038 c 0,13,14
 72 1230 72 1230 176.5 1330 c 128,-1,15
 281 1430 281 1430 470 1430 c 0,16,17
 661 1430 661 1430 764.5 1329.5 c 128,-1,18
 868 1229 868 1229 868 1037 c 0,19,20
 868 847 868 847 764 745.5 c 128,-1,10
 660 644 660 644 470 644 c 128,-1,11
EndSplineSet
EndChar

StartChar: guillemotright
Encoding: 187 187 122
Width: 1045
Flags: W
LayerCount: 2
Fore
SplineSet
117 135 m 1,0,-1
 117 412 l 1,1,-1
 308 596 l 1,2,3
 139 752 139 752 117 770 c 1,4,-1
 117 1052 l 1,5,-1
 541 660 l 1,6,-1
 541 529 l 1,7,-1
 117 135 l 1,0,-1
541 135 m 1,8,-1
 541 412 l 1,9,-1
 732 596 l 1,10,11
 563 752 563 752 541 770 c 1,12,-1
 541 1052 l 1,13,-1
 966 660 l 1,14,-1
 966 529 l 1,15,-1
 541 135 l 1,8,-1
EndSplineSet
EndChar

StartChar: onequarter
Encoding: 188 188 123
Width: 1513
Flags: W
LayerCount: 2
Fore
SplineSet
1187 0 m 1,0,-1
 1187 121 l 1,1,-1
 821 121 l 1,2,-1
 821 241 l 1,3,-1
 1121 819 l 1,4,-1
 1366 819 l 1,5,-1
 1366 241 l 1,6,-1
 1447 241 l 1,7,-1
 1447 121 l 1,8,-1
 1366 121 l 1,9,-1
 1366 0 l 1,10,-1
 1187 0 l 1,0,-1
321 0 m 1,11,-1
 1133 1481 l 1,12,-1
 1262 1481 l 1,13,-1
 448 0 l 1,14,-1
 321 0 l 1,11,-1
971 241 m 1,15,-1
 1187 241 l 1,16,-1
 1187 669 l 1,17,-1
 971 241 l 1,15,-1
84 657 m 1,18,-1
 84 795 l 1,19,-1
 211 795 l 1,20,-1
 211 1298 l 1,21,-1
 51 1265 l 1,22,-1
 51 1379 l 1,23,24
 123 1390 123 1390 163 1413.5 c 128,-1,25
 203 1437 203 1437 216 1481 c 1,26,-1
 396 1481 l 1,27,-1
 396 795 l 1,28,-1
 521 795 l 1,29,-1
 521 657 l 1,30,-1
 84 657 l 1,18,-1
EndSplineSet
EndChar

StartChar: onehalf
Encoding: 189 189 124
Width: 1595
Flags: W
LayerCount: 2
Fore
SplineSet
314 0 m 1,0,-1
 1128 1481 l 1,1,-1
 1255 1481 l 1,2,-1
 441 0 l 1,3,-1
 314 0 l 1,0,-1
958 0 m 1,4,-1
 958 121 l 1,5,6
 1021 178 1021 178 1067.5 222.5 c 128,-1,7
 1114 267 1114 267 1178.5 336.5 c 128,-1,8
 1243 406 1243 406 1279 467 c 128,-1,9
 1315 528 1315 528 1315 573 c 0,10,11
 1315 684 1315 684 1196 684 c 0,12,13
 1149 684 1149 684 1092 664 c 128,-1,14
 1035 644 1035 644 1008 624 c 1,15,-1
 970 758 l 1,16,17
 1002 786 1002 786 1077.5 810 c 128,-1,18
 1153 834 1153 834 1218 834 c 0,19,20
 1352 834 1352 834 1425.5 768.5 c 128,-1,21
 1499 703 1499 703 1499 590 c 0,22,23
 1499 405 1499 405 1192 141 c 1,24,-1
 1519 141 l 1,25,-1
 1519 0 l 1,26,-1
 958 0 l 1,4,-1
113 657 m 1,27,-1
 113 795 l 1,28,-1
 240 795 l 1,29,-1
 240 1298 l 1,30,-1
 80 1265 l 1,31,-1
 80 1379 l 1,32,33
 152 1390 152 1390 192 1413.5 c 128,-1,34
 232 1437 232 1437 245 1481 c 1,35,-1
 425 1481 l 1,36,-1
 425 795 l 1,37,-1
 550 795 l 1,38,-1
 550 657 l 1,39,-1
 113 657 l 1,27,-1
EndSplineSet
EndChar

StartChar: threequarters
Encoding: 190 190 125
Width: 1528
Flags: W
LayerCount: 2
Fore
SplineSet
1202 0 m 1,0,-1
 1202 121 l 1,1,-1
 837 121 l 1,2,-1
 837 241 l 1,3,-1
 1136 819 l 1,4,-1
 1381 819 l 1,5,-1
 1381 241 l 1,6,-1
 1462 241 l 1,7,-1
 1462 121 l 1,8,-1
 1381 121 l 1,9,-1
 1381 0 l 1,10,-1
 1202 0 l 1,0,-1
336 0 m 1,11,-1
 1149 1481 l 1,12,-1
 1277 1481 l 1,13,-1
 463 0 l 1,14,-1
 336 0 l 1,11,-1
987 241 m 1,15,-1
 1202 241 l 1,16,-1
 1202 669 l 1,17,-1
 987 241 l 1,15,-1
334 642 m 0,18,19
 174 642 174 642 81 707 c 1,20,-1
 81 857 l 1,21,-1
 113 857 l 1,22,23
 186 784 186 784 299 783 c 0,24,25
 334 783 334 783 364 789 c 128,-1,26
 394 795 394 795 419.5 808.5 c 128,-1,27
 445 822 445 822 459.5 847.5 c 128,-1,28
 474 873 474 873 474 909 c 0,29,30
 474 1027 474 1027 313 1027 c 2,31,-1
 239 1027 l 1,32,-1
 239 1142 l 1,33,-1
 282 1142 l 2,34,35
 365 1142 365 1142 405.5 1166 c 128,-1,36
 446 1190 446 1190 446 1246 c 0,37,38
 446 1277 446 1277 424.5 1299 c 128,-1,39
 403 1321 403 1321 373 1330 c 128,-1,40
 343 1339 343 1339 308 1339 c 0,41,42
 250 1339 250 1339 201 1316.5 c 128,-1,43
 152 1294 152 1294 120 1264 c 1,44,-1
 81 1264 l 1,45,-1
 81 1412 l 1,46,47
 120 1440 120 1440 192 1460.5 c 128,-1,48
 264 1481 264 1481 334 1481 c 0,49,50
 476 1481 476 1481 551 1425.5 c 128,-1,51
 626 1370 626 1370 631 1278 c 1,52,53
 634 1200 634 1200 599.5 1154.5 c 128,-1,54
 565 1109 565 1109 505 1082 c 1,55,56
 568 1063 568 1063 613.5 1016 c 128,-1,57
 659 969 659 969 659 896 c 0,58,59
 659 781 659 781 572.5 711.5 c 128,-1,60
 486 642 486 642 334 642 c 0,18,19
EndSplineSet
EndChar

StartChar: questiondown
Encoding: 191 191 126
Width: 1123
Flags: W
LayerCount: 2
Fore
SplineSet
597 530 m 1,0,-1
 763 513 l 1,1,2
 696 431 696 431 654.5 375 c 128,-1,3
 613 319 613 319 568 249 c 128,-1,4
 523 179 523 179 501.5 119 c 128,-1,5
 480 59 480 59 480 7 c 0,6,7
 480 -94 480 -94 539.5 -146 c 128,-1,8
 599 -198 599 -198 691 -198 c 0,9,10
 780 -198 780 -198 884 -153.5 c 128,-1,11
 988 -109 988 -109 1035 -65 c 1,12,-1
 1035 -328 l 1,13,14
 994 -352 994 -352 969 -365 c 128,-1,15
 944 -378 944 -378 886 -403.5 c 128,-1,16
 828 -429 828 -429 765 -442 c 128,-1,17
 702 -455 702 -455 638 -455 c 0,18,19
 413 -455 413 -455 282.5 -346.5 c 128,-1,20
 152 -238 152 -238 152 -68 c 0,21,22
 152 -26 152 -26 160 15 c 128,-1,23
 168 56 168 56 179 90 c 128,-1,24
 190 124 190 124 212.5 161 c 128,-1,25
 235 198 235 198 252 224 c 128,-1,26
 269 250 269 250 302.5 284 c 128,-1,27
 336 318 336 318 356 337.5 c 128,-1,28
 376 357 376 357 416.5 390.5 c 128,-1,29
 457 424 457 424 475.5 438.5 c 128,-1,30
 494 453 494 453 538 486 c 128,-1,31
 582 519 582 519 597 530 c 1,0,-1
698 1067 m 128,-1,33
 783 1067 783 1067 842 1008 c 128,-1,34
 901 949 901 949 901 864 c 0,35,36
 901 780 901 780 841.5 720 c 128,-1,37
 782 660 782 660 698 660 c 0,38,39
 613 660 613 660 553.5 720 c 128,-1,40
 494 780 494 780 494 864 c 0,41,42
 494 949 494 949 553.5 1008 c 128,-1,32
 613 1067 613 1067 698 1067 c 128,-1,33
EndSplineSet
EndChar

StartChar: AE
Encoding: 198 198 133
Width: 1935
Flags: W
LayerCount: 2
Fore
SplineSet
-1 0 m 1,0,-1
 667 1421 l 1,1,-1
 1860 1421 l 1,2,-1
 1860 1177 l 1,3,-1
 1247 1177 l 1,4,-1
 1247 860 l 1,5,-1
 1779 860 l 1,6,-1
 1779 619 l 1,7,-1
 1247 619 l 1,8,-1
 1247 244 l 1,9,-1
 1859 244 l 1,10,-1
 1859 0 l 1,11,-1
 920 0 l 1,12,-1
 920 322 l 1,13,-1
 485 322 l 1,14,-1
 338 0 l 1,15,-1
 -1 0 l 1,0,-1
587 563 m 1,16,-1
 920 563 l 1,17,-1
 920 1187 l 1,18,-1
 876 1187 l 1,19,-1
 587 563 l 1,16,-1
EndSplineSet
EndChar

StartChar: Eth
Encoding: 208 208 143
Width: 1514
Flags: W
LayerCount: 2
Fore
SplineSet
0 658 m 1,0,-1
 0 852 l 1,1,-1
 156 852 l 1,2,-1
 156 1481 l 1,3,-1
 596 1481 l 2,4,5
 794 1481 794 1481 941 1441 c 128,-1,6
 1088 1401 1088 1401 1193.5 1314 c 128,-1,7
 1299 1227 1299 1227 1352 1083.5 c 128,-1,8
 1405 940 1405 940 1405 739 c 0,9,10
 1405 577 1405 577 1369 452.5 c 128,-1,11
 1333 328 1333 328 1266 242.5 c 128,-1,12
 1199 157 1199 157 1098 102.5 c 128,-1,13
 997 48 997 48 873.5 24 c 128,-1,14
 750 0 750 0 594 0 c 2,15,-1
 156 0 l 1,16,-1
 156 658 l 1,17,-1
 0 658 l 1,0,-1
479 249 m 1,18,-1
 632 249 l 2,19,20
 867 249 867 249 972 362 c 128,-1,21
 1077 475 1077 475 1077 738 c 0,22,23
 1077 982 1077 982 973 1107 c 128,-1,24
 869 1232 869 1232 680 1232 c 2,25,-1
 479 1232 l 1,26,-1
 479 852 l 1,27,-1
 704 852 l 1,28,-1
 704 658 l 1,29,-1
 479 658 l 1,30,-1
 479 249 l 1,18,-1
EndSplineSet
EndChar

StartChar: multiply
Encoding: 215 215 150
Width: 1123
Flags: W
LayerCount: 2
Fore
SplineSet
218 41 m 1,0,-1
 113 148 l 1,1,-1
 459 489 l 1,2,-1
 113 835 l 1,3,-1
 218 943 l 1,4,-1
 563 596 l 1,5,-1
 905 943 l 1,6,-1
 1014 835 l 1,7,-1
 667 489 l 1,8,-1
 1014 148 l 1,9,-1
 905 41 l 1,10,-1
 563 387 l 1,11,-1
 218 41 l 1,0,-1
EndSplineSet
EndChar

StartChar: Oslash
Encoding: 216 216 151
Width: 1523
Flags: W
LayerCount: 2
Fore
SplineSet
764 -24 m 0,0,1
 558 -24 558 -24 409 56 c 1,2,-1
 360 -16 l 1,3,-1
 167 -16 l 1,4,-1
 279 149 l 1,5,6
 79 343 79 343 79 740 c 0,7,8
 79 1109 79 1109 252 1306.5 c 128,-1,9
 425 1504 425 1504 764 1504 c 0,10,11
 979 1504 979 1504 1131 1421 c 1,12,-1
 1182 1497 l 1,13,-1
 1379 1497 l 1,14,-1
 1260 1322 l 1,15,16
 1447 1131 1447 1131 1447 740 c 0,17,18
 1447 373 1447 373 1275.5 174.5 c 128,-1,19
 1104 -24 1104 -24 764 -24 c 0,0,1
469 439 m 1,20,-1
 970 1177 l 1,21,22
 890 1247 890 1247 765 1247 c 0,23,24
 669 1247 669 1247 602 1211 c 128,-1,25
 535 1175 535 1175 497.5 1105.5 c 128,-1,26
 460 1036 460 1036 444 947.5 c 128,-1,27
 428 859 428 859 428 740 c 0,28,29
 428 555 428 555 469 439 c 1,20,-1
765 233 m 0,30,31
 842 233 842 233 900.5 258.5 c 128,-1,32
 959 284 959 284 996 328 c 128,-1,33
 1033 372 1033 372 1056.5 437.5 c 128,-1,34
 1080 503 1080 503 1089.5 576 c 128,-1,35
 1099 649 1099 649 1099 740 c 0,36,37
 1099 905 1099 905 1062 1022 c 1,38,-1
 567 293 l 1,39,40
 644 233 644 233 765 233 c 0,30,31
EndSplineSet
EndChar

StartChar: Thorn
Encoding: 222 222 157
Width: 1360
Flags: W
LayerCount: 2
Fore
SplineSet
161 0 m 1,0,-1
 161 1481 l 1,1,-1
 505 1481 l 1,2,-1
 505 1286 l 1,3,-1
 737 1286 l 2,4,5
 858 1286 858 1286 957 1260 c 128,-1,6
 1056 1234 1056 1234 1134 1180 c 128,-1,7
 1212 1126 1212 1126 1255.5 1033.5 c 128,-1,8
 1299 941 1299 941 1299 817 c 0,9,10
 1299 592 1299 592 1143 460.5 c 128,-1,11
 987 329 987 329 716 329 c 2,12,-1
 505 329 l 1,13,-1
 505 0 l 1,14,-1
 161 0 l 1,0,-1
505 575 m 1,15,-1
 577 575 l 2,16,17
 645 575 645 575 694 579 c 128,-1,18
 743 583 743 583 794.5 597.5 c 128,-1,19
 846 612 846 612 877.5 637.5 c 128,-1,20
 909 663 909 663 929.5 707.5 c 128,-1,21
 950 752 950 752 950 814 c 0,22,23
 950 869 950 869 932.5 909 c 128,-1,24
 915 949 915 949 887 972.5 c 128,-1,25
 859 996 859 996 816 1010.5 c 128,-1,26
 773 1025 773 1025 730.5 1029.5 c 128,-1,27
 688 1034 688 1034 632 1034 c 2,28,-1
 505 1034 l 1,29,-1
 505 575 l 1,15,-1
EndSplineSet
EndChar

StartChar: germandbls
Encoding: 223 223 158
Width: 1234
Flags: W
LayerCount: 2
Fore
SplineSet
117 0 m 1,0,-1
 117 1031 l 2,1,2
 117 1261 117 1261 245 1382.5 c 128,-1,3
 373 1504 373 1504 624 1504 c 0,4,5
 852 1504 852 1504 984.5 1409.5 c 128,-1,6
 1117 1315 1117 1315 1117 1164 c 0,7,8
 1117 1052 1117 1052 1044 971 c 128,-1,9
 971 890 971 890 866 873 c 1,10,-1
 866 863 l 1,11,12
 979 837 979 837 1064.5 769.5 c 128,-1,13
 1150 702 1150 702 1191.5 620 c 128,-1,14
 1233 538 1233 538 1233 455 c 0,15,16
 1233 235 1233 235 1095.5 115 c 128,-1,17
 958 -5 958 -5 701 -5 c 0,18,19
 689 -5 689 -5 603 -1 c 1,20,-1
 603 234 l 1,21,22
 610 233 610 233 643 233 c 0,23,24
 781 233 781 233 849.5 293.5 c 128,-1,25
 918 354 918 354 918 465 c 0,26,27
 918 574 918 574 831 656.5 c 128,-1,28
 744 739 744 739 600 739 c 1,29,-1
 600 967 l 1,30,31
 693 967 693 967 750.5 1005.5 c 128,-1,32
 808 1044 808 1044 808 1131 c 0,33,34
 808 1283 808 1283 637 1283 c 0,35,36
 524 1283 524 1283 476 1225.5 c 128,-1,37
 428 1168 428 1168 428 1055 c 2,38,-1
 428 0 l 1,39,-1
 117 0 l 1,0,-1
EndSplineSet
EndChar

StartChar: ae
Encoding: 230 230 165
Width: 1768
Flags: W
LayerCount: 2
Fore
SplineSet
454 -22 m 0,0,1
 261 -22 261 -22 151 59.5 c 128,-1,2
 41 141 41 141 41 296 c 0,3,4
 41 609 41 609 543 645 c 1,5,6
 589 654 589 654 703 654 c 1,7,8
 702 745 702 745 652 792.5 c 128,-1,9
 602 840 602 840 467 840 c 0,10,11
 401 840 401 840 306 816.5 c 128,-1,12
 211 793 211 793 151 759 c 1,13,-1
 95 967 l 1,14,15
 145 1003 145 1003 266.5 1031.5 c 128,-1,16
 388 1060 388 1060 496 1060 c 0,17,18
 642 1060 642 1060 736.5 1028 c 128,-1,19
 831 996 831 996 887 909 c 1,20,21
 941 986 941 986 1035.5 1023.5 c 128,-1,22
 1130 1061 1130 1061 1233 1061 c 0,23,24
 1466 1061 1466 1061 1592.5 928 c 128,-1,25
 1719 795 1719 795 1719 565 c 2,26,-1
 1719 442 l 1,27,-1
 1016 442 l 1,28,29
 1024 316 1024 316 1103 257 c 128,-1,30
 1182 198 1182 198 1319 198 c 0,31,32
 1405 198 1405 198 1487.5 230 c 128,-1,33
 1570 262 1570 262 1607 307 c 1,34,-1
 1654 306 l 1,35,-1
 1704 92 l 1,36,37
 1649 56 1649 56 1605 34.5 c 128,-1,38
 1561 13 1561 13 1472.5 -6 c 128,-1,39
 1384 -25 1384 -25 1271 -25 c 0,40,41
 1189 -25 1189 -25 1121 -8.5 c 128,-1,42
 1053 8 1053 8 1004.5 38.5 c 128,-1,43
 956 69 956 69 924 98 c 128,-1,44
 892 127 892 127 862 166 c 1,45,46
 797 77 797 77 685.5 27.5 c 128,-1,47
 574 -22 574 -22 454 -22 c 0,0,1
507 194 m 0,48,49
 561 194 561 194 600 210.5 c 128,-1,50
 639 227 639 227 660.5 252.5 c 128,-1,51
 682 278 682 278 693.5 315.5 c 128,-1,52
 705 353 705 353 708 388 c 128,-1,53
 711 423 711 423 709 466 c 1,54,55
 645 463 645 463 602.5 459.5 c 128,-1,56
 560 456 560 456 514.5 449.5 c 128,-1,57
 469 443 469 443 441.5 433 c 128,-1,58
 414 423 414 423 391 408 c 128,-1,59
 368 393 368 393 357.5 371 c 128,-1,60
 347 349 347 349 347 320 c 0,61,62
 347 194 347 194 507 194 c 0,48,49
1014 630 m 1,63,-1
 1417 630 l 1,64,65
 1415 735 1415 735 1364 795.5 c 128,-1,66
 1313 856 1313 856 1221 856 c 0,67,68
 1122 856 1122 856 1070.5 794.5 c 128,-1,69
 1019 733 1019 733 1014 630 c 1,63,-1
EndSplineSet
EndChar

StartChar: eth
Encoding: 240 240 175
Width: 1244
Flags: W
LayerCount: 2
Fore
SplineSet
618 -22 m 0,0,1
 372 -22 372 -22 226 114 c 128,-1,2
 80 250 80 250 80 487 c 0,3,4
 80 560 80 560 97.5 625 c 128,-1,5
 115 690 115 690 145.5 739 c 128,-1,6
 176 788 176 788 217.5 827 c 128,-1,7
 259 866 259 866 308 891 c 128,-1,8
 357 916 357 916 410.5 929 c 128,-1,9
 464 942 464 942 519 942 c 0,10,11
 603 942 603 942 681 912 c 128,-1,12
 759 882 759 882 817 824 c 1,13,14
 807 887 807 887 787 938.5 c 128,-1,15
 767 990 767 990 738 1028.5 c 128,-1,16
 709 1067 709 1067 682.5 1093 c 128,-1,17
 656 1119 656 1119 621 1146 c 1,18,-1
 521 1008 l 1,19,-1
 414 1079 l 1,20,-1
 508 1209 l 1,21,22
 403 1253 403 1253 240 1269 c 1,23,-1
 281 1481 l 1,24,25
 490 1472 490 1472 653 1402 c 1,26,-1
 748 1526 l 1,27,-1
 854 1458 l 1,28,-1
 768 1344 l 1,29,30
 960 1229 960 1229 1059 1027 c 128,-1,31
 1158 825 1158 825 1158 547 c 0,32,33
 1158 277 1158 277 1013 127.5 c 128,-1,34
 868 -22 868 -22 618 -22 c 0,0,1
834 464 m 128,-1,36
 834 533 834 533 814.5 585.5 c 128,-1,37
 795 638 795 638 762.5 668 c 128,-1,38
 730 698 730 698 691 712.5 c 128,-1,39
 652 727 652 727 609 727 c 0,40,41
 527 727 527 727 469 662.5 c 128,-1,42
 411 598 411 598 411 477 c 0,43,44
 411 422 411 422 423 376 c 128,-1,45
 435 330 435 330 455.5 298 c 128,-1,46
 476 266 476 266 503.5 244 c 128,-1,47
 531 222 531 222 561.5 211.5 c 128,-1,48
 592 201 592 201 623 201 c 0,49,50
 665 201 665 201 702 216 c 128,-1,51
 739 231 739 231 769 261 c 128,-1,52
 799 291 799 291 816.5 343 c 128,-1,35
 834 395 834 395 834 464 c 128,-1,36
EndSplineSet
EndChar

StartChar: divide
Encoding: 247 247 182
Width: 1460
Flags: W
LayerCount: 2
Fore
SplineSet
729 0 m 0,0,1
 646 0 646 0 587 59 c 128,-1,2
 528 118 528 118 528 202 c 0,3,4
 528 285 528 285 587 344.5 c 128,-1,5
 646 404 646 404 729 404 c 0,6,7
 813 404 813 404 872 344.5 c 128,-1,8
 931 285 931 285 931 202 c 0,9,10
 931 118 931 118 872 59 c 128,-1,11
 813 0 813 0 729 0 c 0,0,1
134 496 m 1,12,-1
 134 732 l 1,13,-1
 1328 732 l 1,14,-1
 1328 496 l 1,15,-1
 134 496 l 1,12,-1
729 827 m 0,16,17
 646 827 646 827 587 886 c 128,-1,18
 528 945 528 945 528 1029 c 128,-1,19
 528 1113 528 1113 587 1172.5 c 128,-1,20
 646 1232 646 1232 729 1232 c 0,21,22
 813 1232 813 1232 872 1172.5 c 128,-1,23
 931 1113 931 1113 931 1029 c 128,-1,24
 931 945 931 945 872 886 c 128,-1,25
 813 827 813 827 729 827 c 0,16,17
EndSplineSet
EndChar

StartChar: oslash
Encoding: 248 248 183
Width: 1162
Flags: W
LayerCount: 2
Fore
SplineSet
581 -22 m 0,0,1
 427 -22 427 -22 325 25 c 1,2,-1
 229 -116 l 1,3,-1
 75 -116 l 1,4,-1
 216 92 l 1,5,6
 53 232 53 232 53 519 c 0,7,8
 53 784 53 784 191.5 922 c 128,-1,9
 330 1060 330 1060 581 1060 c 0,10,11
 734 1060 734 1060 848 1004 c 1,12,-1
 931 1127 l 1,13,-1
 1087 1127 l 1,14,-1
 955 936 l 1,15,16
 1111 801 1111 801 1111 518 c 0,17,18
 1111 253 1111 253 972.5 115.5 c 128,-1,19
 834 -22 834 -22 581 -22 c 0,0,1
369 315 m 1,20,-1
 716 798 l 1,21,22
 666 836 666 836 581 836 c 0,23,24
 347 836 347 836 347 517 c 0,25,26
 347 380 347 380 369 315 c 1,20,-1
584 202 m 0,27,28
 696 202 696 202 761 278.5 c 128,-1,29
 826 355 826 355 826 516 c 0,30,31
 826 605 826 605 795 708 c 1,32,-1
 450 231 l 1,33,34
 499 202 499 202 584 202 c 0,27,28
EndSplineSet
EndChar

StartChar: thorn
Encoding: 254 254 189
Width: 1177
Flags: W
LayerCount: 2
Fore
SplineSet
119 -391 m 1,0,-1
 119 1430 l 1,1,-1
 429 1430 l 1,2,-1
 429 898 l 1,3,4
 469 968 469 968 554 1013 c 128,-1,5
 639 1058 639 1058 734 1058 c 0,6,7
 836 1058 836 1058 911 1019.5 c 128,-1,8
 986 981 986 981 1031 909 c 128,-1,9
 1076 837 1076 837 1097.5 741 c 128,-1,10
 1119 645 1119 645 1119 522 c 0,11,12
 1119 271 1119 271 1005.5 124 c 128,-1,13
 892 -23 892 -23 689 -23 c 0,14,15
 543 -23 543 -23 429 58 c 1,16,-1
 429 -391 l 1,17,-1
 119 -391 l 1,0,-1
585 204 m 0,18,19
 704 204 704 204 754 287 c 128,-1,20
 804 370 804 370 804 520 c 0,21,22
 804 668 804 668 756 744.5 c 128,-1,23
 708 821 708 821 596 821 c 0,24,25
 489 821 489 821 429 762 c 1,26,-1
 429 238 l 1,27,28
 482 204 482 204 585 204 c 0,18,19
EndSplineSet
EndChar

StartChar: dcroat
Encoding: 273 273 206
Width: 1219
Flags: W
LayerCount: 2
Fore
SplineSet
515 1158 m 1,0,-1
 515 1320 l 1,1,-1
 1219 1320 l 1,2,-1
 1219 1158 l 1,3,-1
 515 1158 l 1,0,-1
518 -22 m 0,4,5
 382 -22 382 -22 282.5 48.5 c 128,-1,6
 183 119 183 119 132 242 c 128,-1,7
 81 365 81 365 81 525 c 0,8,9
 81 780 81 780 191 919.5 c 128,-1,10
 301 1059 301 1059 516 1059 c 0,11,12
 666 1059 666 1059 795 961 c 1,13,-1
 795 1481 l 1,14,-1
 1104 1481 l 1,15,-1
 1104 0 l 1,16,-1
 795 0 l 1,17,-1
 795 121 l 1,18,19
 750 54 750 54 678.5 16 c 128,-1,20
 607 -22 607 -22 518 -22 c 0,4,5
635 202 m 0,21,22
 724 202 724 202 795 238 c 1,23,-1
 795 776 l 1,24,25
 705 835 705 835 600 835 c 0,26,27
 496 835 496 835 445 747 c 128,-1,28
 394 659 394 659 394 512 c 0,29,30
 394 373 394 373 456.5 287.5 c 128,-1,31
 519 202 519 202 635 202 c 0,21,22
EndSplineSet
EndChar

StartChar: gcommaaccent
Encoding: 291 291 220
Width: 1183
Flags: W
LayerCount: 2
Fore
SplineSet
846 1755 m 1,0,-1
 787 1182 l 1,1,-1
 452 1182 l 1,2,-1
 675 1755 l 1,3,-1
 846 1755 l 1,0,-1
556 -399 m 0,4,5
 342 -399 342 -399 165 -317 c 1,6,-1
 216 -102 l 1,7,8
 267 -125 267 -125 354 -146.5 c 128,-1,9
 441 -168 441 -168 524 -168 c 0,10,11
 663 -168 663 -168 717.5 -111.5 c 128,-1,12
 772 -55 772 -55 774 79 c 1,13,-1
 774 108 l 1,14,15
 737 58 737 58 673 29 c 128,-1,16
 609 0 609 0 538 0 c 0,17,18
 321 0 321 0 201 137 c 128,-1,19
 81 274 81 274 81 539 c 0,20,21
 81 781 81 781 187.5 920 c 128,-1,22
 294 1059 294 1059 494 1059 c 0,23,24
 676 1059 676 1059 766 924 c 1,25,-1
 764 1035 l 1,26,-1
 1081 1035 l 1,27,-1
 1081 96 l 2,28,29
 1081 -13 1081 -13 1054.5 -98 c 128,-1,30
 1028 -183 1028 -183 981.5 -239 c 128,-1,31
 935 -295 935 -295 868 -331.5 c 128,-1,32
 801 -368 801 -368 724.5 -383.5 c 128,-1,33
 648 -399 648 -399 556 -399 c 0,4,5
609 226 m 0,34,35
 693 226 693 226 766 287 c 1,36,-1
 766 799 l 1,37,38
 680 835 680 835 613 835 c 0,39,40
 514 835 514 835 454 759 c 128,-1,41
 394 683 394 683 394 543 c 0,42,43
 394 374 394 374 447 300 c 128,-1,44
 500 226 500 226 609 226 c 0,34,35
EndSplineSet
EndChar

StartChar: Hbar
Encoding: 294 294 223
Width: 1512
Flags: W
LayerCount: 2
Fore
SplineSet
68 1158 m 1,0,-1
 68 1320 l 1,1,-1
 1445 1320 l 1,2,-1
 1445 1158 l 1,3,-1
 68 1158 l 1,0,-1
156 0 m 1,4,-1
 156 1481 l 1,5,-1
 479 1481 l 1,6,-1
 479 894 l 1,7,-1
 1033 894 l 1,8,-1
 1033 1481 l 1,9,-1
 1357 1481 l 1,10,-1
 1357 0 l 1,11,-1
 1033 0 l 1,12,-1
 1033 646 l 1,13,-1
 479 646 l 1,14,-1
 479 0 l 1,15,-1
 156 0 l 1,4,-1
EndSplineSet
EndChar

StartChar: hbar
Encoding: 295 295 224
Width: 1186
Flags: W
LayerCount: 2
Fore
SplineSet
0 1158 m 1,0,-1
 0 1320 l 1,1,-1
 704 1320 l 1,2,-1
 704 1158 l 1,3,-1
 0 1158 l 1,0,-1
119 0 m 1,4,-1
 119 1481 l 1,5,-1
 428 1481 l 1,6,-1
 428 870 l 1,7,8
 437 888 437 888 460.5 915.5 c 128,-1,9
 484 943 484 943 524 977.5 c 128,-1,10
 564 1012 564 1012 625 1035.5 c 128,-1,11
 686 1059 686 1059 752 1059 c 0,12,13
 900 1059 900 1059 992.5 961 c 128,-1,14
 1085 863 1085 863 1085 684 c 2,15,-1
 1085 0 l 1,16,-1
 776 0 l 1,17,-1
 776 592 l 2,18,19
 776 714 776 714 738 766 c 128,-1,20
 700 818 700 818 611 818 c 0,21,22
 542 818 542 818 485 768 c 128,-1,23
 428 718 428 718 428 662 c 2,24,-1
 428 0 l 1,25,-1
 119 0 l 1,4,-1
EndSplineSet
EndChar

StartChar: dotlessi
Encoding: 305 305 234
Width: 553
Flags: W
LayerCount: 2
Fore
SplineSet
121 0 m 1,0,-1
 121 1035 l 1,1,-1
 431 1035 l 1,2,-1
 431 0 l 1,3,-1
 121 0 l 1,0,-1
EndSplineSet
EndChar

StartChar: kgreenlandic
Encoding: 312 312 241
Width: 1160
Flags: W
LayerCount: 2
Fore
SplineSet
118 0 m 1,0,-1
 118 1035 l 1,1,-1
 429 1035 l 1,2,-1
 429 599 l 1,3,-1
 799 1035 l 1,4,-1
 1127 1035 l 1,5,-1
 1127 991 l 1,6,-1
 767 579 l 1,7,-1
 1144 73 l 1,8,-1
 1144 0 l 1,9,-1
 832 0 l 1,10,-1
 528 442 l 1,11,-1
 429 341 l 1,12,-1
 429 0 l 1,13,-1
 118 0 l 1,0,-1
EndSplineSet
EndChar

StartChar: Lslash
Encoding: 321 321 247
Width: 1198
Flags: W
LayerCount: 2
Fore
SplineSet
164 0 m 1,0,-1
 164 482 l 1,1,-1
 28 387 l 1,2,-1
 28 593 l 1,3,-1
 164 689 l 1,4,-1
 164 1481 l 1,5,-1
 508 1481 l 1,6,-1
 508 931 l 1,7,-1
 758 1110 l 1,8,-1
 758 903 l 1,9,-1
 508 725 l 1,10,-1
 508 256 l 1,11,-1
 1158 256 l 1,12,-1
 1158 0 l 1,13,-1
 164 0 l 1,0,-1
EndSplineSet
EndChar

StartChar: lslash
Encoding: 322 322 248
Width: 616
Flags: W
LayerCount: 2
Fore
SplineSet
500 -2 m 2,0,1
 420 -2 420 -2 358.5 9 c 128,-1,2
 297 20 297 20 257 35 c 128,-1,3
 217 50 217 50 189.5 79.5 c 128,-1,4
 162 109 162 109 148.5 132 c 128,-1,5
 135 155 135 155 128 197.5 c 128,-1,6
 121 240 121 240 120 265 c 128,-1,7
 119 290 119 290 119 338 c 0,8,9
 119 349 119 349 119 354 c 2,10,-1
 119 583 l 1,11,-1
 0 508 l 1,12,-1
 0 675 l 1,13,-1
 119 749 l 1,14,-1
 119 1434 l 1,15,-1
 427 1434 l 1,16,-1
 428 943 l 1,17,-1
 571 1034 l 1,18,-1
 571 867 l 1,19,-1
 428 777 l 1,20,-1
 428 340 l 2,21,22
 428 274 428 274 458 243 c 128,-1,23
 488 212 488 212 583 212 c 1,24,-1
 583 -2 l 1,25,-1
 500 -2 l 2,0,1
EndSplineSet
EndChar

StartChar: OE
Encoding: 338 338 261
Width: 1992
Flags: W
LayerCount: 2
Fore
SplineSet
688 0 m 2,0,1
 393 0 393 0 227.5 190.5 c 128,-1,2
 62 381 62 381 62 742 c 0,3,4
 62 1093 62 1093 227 1287 c 128,-1,5
 392 1481 392 1481 692 1481 c 2,6,-1
 1885 1481 l 1,7,-1
 1885 1224 l 1,8,-1
 1287 1224 l 1,9,-1
 1287 906 l 1,10,-1
 1804 906 l 1,11,-1
 1804 653 l 1,12,-1
 1287 653 l 1,13,-1
 1287 255 l 1,14,-1
 1885 255 l 1,15,-1
 1885 0 l 1,16,-1
 688 0 l 2,0,1
726 255 m 1,17,-1
 945 255 l 1,18,-1
 945 1224 l 1,19,-1
 731 1224 l 2,20,21
 551 1224 551 1224 473 1109.5 c 128,-1,22
 395 995 395 995 395 740 c 0,23,24
 395 494 395 494 470.5 376 c 128,-1,25
 546 258 546 258 726 255 c 1,17,-1
EndSplineSet
EndChar

StartChar: oe
Encoding: 339 339 262
Width: 1865
Flags: W
LayerCount: 2
Fore
SplineSet
579 -26 m 0,0,1
 328 -26 328 -26 188 106.5 c 128,-1,2
 48 239 48 239 48 517 c 0,3,4
 48 796 48 796 188 929 c 128,-1,5
 328 1062 328 1062 579 1062 c 0,6,7
 705 1062 705 1062 805 1020.5 c 128,-1,8
 905 979 905 979 957 901 c 1,9,10
 1018 970 1018 970 1118 1015 c 128,-1,11
 1218 1060 1218 1060 1330 1060 c 0,12,13
 1562 1060 1562 1060 1689.5 928.5 c 128,-1,14
 1817 797 1817 797 1817 565 c 2,15,-1
 1817 446 l 1,16,-1
 1107 446 l 1,17,18
 1114 323 1114 323 1193.5 260.5 c 128,-1,19
 1273 198 1273 198 1413 198 c 0,20,21
 1492 198 1492 198 1582.5 234 c 128,-1,22
 1673 270 1673 270 1718 301 c 1,23,-1
 1752 301 l 1,24,-1
 1802 92 l 1,25,26
 1634 -24 1634 -24 1382 -24 c 0,27,28
 1251 -24 1251 -24 1128 24 c 128,-1,29
 1005 72 1005 72 952 144 c 1,30,31
 900 71 900 71 800.5 22.5 c 128,-1,32
 701 -26 701 -26 579 -26 c 0,0,1
580 196 m 0,33,34
 795 196 795 196 795 515 c 0,35,36
 795 693 795 693 741.5 767 c 128,-1,37
 688 841 688 841 575 841 c 0,38,39
 541 841 541 841 513 834 c 128,-1,40
 485 827 485 827 455.5 806 c 128,-1,41
 426 785 426 785 405.5 750 c 128,-1,42
 385 715 385 715 372 655.5 c 128,-1,43
 359 596 359 596 359 516 c 0,44,45
 359 344 359 344 415 270 c 128,-1,46
 471 196 471 196 580 196 c 0,33,34
1107 634 m 1,47,-1
 1515 634 l 1,48,49
 1511 736 1511 736 1462.5 796 c 128,-1,50
 1414 856 1414 856 1321 856 c 0,51,52
 1220 856 1220 856 1165.5 793.5 c 128,-1,53
 1111 731 1111 731 1107 634 c 1,47,-1
EndSplineSet
EndChar

StartChar: uni0237
Encoding: 567 567 340
Width: 626
Flags: W
LayerCount: 2
Fore
SplineSet
131 -391 m 0,0,1
 53 -391 53 -391 -75 -379 c 1,2,-1
 -75 -159 l 1,3,4
 -20 -164 -20 -164 24 -164 c 0,5,6
 67 -164 67 -164 94 -156.5 c 128,-1,7
 121 -149 121 -149 144.5 -125.5 c 128,-1,8
 168 -102 168 -102 179 -55 c 128,-1,9
 190 -8 190 -8 190 66 c 2,10,-1
 190 1035 l 1,11,-1
 499 1035 l 1,12,-1
 499 -42 l 2,13,14
 499 -207 499 -207 401.5 -299 c 128,-1,15
 304 -391 304 -391 131 -391 c 0,0,1
EndSplineSet
EndChar

StartChar: circumflex
Encoding: 710 710 341
Width: 852
Flags: W
LayerCount: 2
Fore
SplineSet
30 1171 m 1,0,-1
 318 1514 l 1,1,-1
 532 1514 l 1,2,-1
 822 1171 l 1,3,-1
 578 1171 l 1,4,-1
 424 1356 l 1,5,-1
 270 1171 l 1,6,-1
 30 1171 l 1,0,-1
EndSplineSet
EndChar

StartChar: caron
Encoding: 711 711 342
Width: 885
Flags: W
LayerCount: 2
Fore
SplineSet
330 1174 m 1,0,-1
 18 1514 l 1,1,-1
 276 1514 l 1,2,-1
 444 1330 l 1,3,-1
 610 1514 l 1,4,-1
 868 1514 l 1,5,-1
 554 1174 l 1,6,-1
 330 1174 l 1,0,-1
EndSplineSet
EndChar

StartChar: breve
Encoding: 728 728 343
Width: 847
Flags: W
LayerCount: 2
Fore
SplineSet
424 1150 m 0,0,1
 253 1150 253 1150 164.5 1233.5 c 128,-1,2
 76 1317 76 1317 74 1479 c 1,3,-1
 254 1479 l 1,4,5
 262 1401 262 1401 299.5 1358 c 128,-1,6
 337 1315 337 1315 424 1315 c 0,7,8
 578 1315 578 1315 590 1479 c 1,9,-1
 772 1479 l 1,10,11
 770 1320 770 1320 677.5 1235 c 128,-1,12
 585 1150 585 1150 424 1150 c 0,0,1
EndSplineSet
EndChar

StartChar: dotaccent
Encoding: 729 729 344
Width: 363
Flags: W
LayerCount: 2
Fore
SplineSet
181 202 m 128,-1,1
 100 202 100 202 57 241 c 128,-1,2
 14 280 14 280 14 342 c 0,3,4
 14 405 14 405 57 443.5 c 128,-1,5
 100 482 100 482 181 482 c 128,-1,6
 262 482 262 482 305.5 443.5 c 128,-1,7
 349 405 349 405 349 342 c 0,8,9
 349 280 349 280 305.5 241 c 128,-1,0
 262 202 262 202 181 202 c 128,-1,1
EndSplineSet
EndChar

StartChar: ring
Encoding: 730 730 345
Width: 751
Flags: W
LayerCount: 2
Fore
SplineSet
376 257 m 128,-1,1
 458 257 458 257 515 313.5 c 128,-1,2
 572 370 572 370 572 451 c 0,3,4
 572 530 572 530 514.5 588 c 128,-1,5
 457 646 457 646 376 646 c 0,6,7
 294 646 294 646 236 588 c 128,-1,8
 178 530 178 530 178 451 c 0,9,10
 178 369 178 369 236 313 c 128,-1,0
 294 257 294 257 376 257 c 128,-1,1
376 155 m 128,-1,12
 247 155 247 155 156.5 241 c 128,-1,13
 66 327 66 327 66 451 c 128,-1,14
 66 575 66 575 156.5 660.5 c 128,-1,15
 247 746 247 746 376 746 c 128,-1,16
 505 746 505 746 595.5 660 c 128,-1,17
 686 574 686 574 686 451 c 0,18,19
 686 327 686 327 595.5 241 c 128,-1,11
 505 155 505 155 376 155 c 128,-1,12
EndSplineSet
EndChar

StartChar: ogonek
Encoding: 731 731 346
Width: 759
Flags: W
LayerCount: 2
Fore
SplineSet
422 -407 m 1,0,1
 334 -407 334 -407 273.5 -359 c 128,-1,2
 213 -311 213 -311 201 -234 c 1,3,4
 189 -108 189 -108 286 5 c 1,5,-1
 431 5 l 1,6,7
 374 -66 374 -66 368 -140 c 1,8,9
 366 -202 366 -202 397 -237.5 c 128,-1,10
 428 -273 428 -273 486 -273 c 0,11,12
 533 -273 533 -273 605 -245 c 1,13,-1
 615 -377 l 1,14,15
 511 -414 511 -414 422 -407 c 1,0,1
EndSplineSet
EndChar

StartChar: tilde
Encoding: 732 732 347
Width: 1079
Flags: W
LayerCount: 2
Fore
SplineSet
762 211 m 0,0,1
 700 211 700 211 558 257 c 128,-1,2
 416 303 416 303 390 303 c 0,3,4
 358 303 358 303 344.5 284 c 128,-1,5
 331 265 331 265 331 211 c 1,6,7
 159 209 159 209 159 211 c 0,8,9
 159 377 159 377 209.5 450 c 128,-1,10
 260 523 260 523 360 523 c 0,11,12
 414 523 414 523 568 475 c 128,-1,13
 722 427 722 427 734 427 c 0,14,15
 762 427 762 427 771.5 444.5 c 128,-1,16
 781 462 781 462 781 523 c 1,17,-1
 954 523 l 1,18,19
 952 339 952 339 913 275 c 128,-1,20
 874 211 874 211 762 211 c 0,0,1
EndSplineSet
EndChar

StartChar: hungarumlaut
Encoding: 733 733 348
Width: 807
Flags: W
LayerCount: 2
Fore
SplineSet
40 1160 m 1,0,-1
 240 1506 l 1,1,-1
 541 1506 l 1,2,-1
 252 1160 l 1,3,-1
 40 1160 l 1,0,-1
444 1160 m 1,4,-1
 646 1506 l 1,5,-1
 953 1506 l 1,6,-1
 656 1160 l 1,7,-1
 444 1160 l 1,4,-1
EndSplineSet
EndChar

StartChar: uni030F
Encoding: 783 783 349
Width: 725
Flags: W
LayerCount: 2
Fore
SplineSet
278 1137 m 1,0,-1
 -14 1481 l 1,1,-1
 231 1481 l 1,2,-1
 433 1137 l 1,3,-1
 278 1137 l 1,0,-1
585 1137 m 1,4,-1
 321 1481 l 1,5,-1
 547 1481 l 1,6,-1
 739 1137 l 1,7,-1
 585 1137 l 1,4,-1
EndSplineSet
EndChar

StartChar: uni0311
Encoding: 785 785 350
Width: 857
Flags: W
LayerCount: 2
Fore
SplineSet
81 1147 m 1,0,1
 83 1305 83 1305 176 1389.5 c 128,-1,2
 269 1474 269 1474 429 1474 c 0,3,4
 599 1474 599 1474 686.5 1391 c 128,-1,5
 774 1308 774 1308 776 1147 c 1,6,-1
 596 1147 l 1,7,8
 589 1225 589 1225 552 1268 c 128,-1,9
 515 1311 515 1311 429 1311 c 0,10,11
 277 1311 277 1311 264 1147 c 1,12,-1
 81 1147 l 1,0,1
EndSplineSet
EndChar

StartChar: uni0326
Encoding: 806 806 351
Width: 470
Flags: W
LayerCount: 2
Fore
SplineSet
45 -235 m 1,0,-1
 104 338 l 1,1,-1
 439 338 l 1,2,-1
 216 -235 l 1,3,-1
 45 -235 l 1,0,-1
EndSplineSet
EndChar

StartChar: endash
Encoding: 8211 8211 360
Width: 1269
Flags: W
LayerCount: 2
Fore
SplineSet
-5 469 m 1,0,-1
 -5 715 l 1,1,-1
 1275 715 l 1,2,-1
 1275 469 l 1,3,-1
 -5 469 l 1,0,-1
EndSplineSet
EndChar

StartChar: emdash
Encoding: 8212 8212 361
Width: 1917
Flags: W
LayerCount: 2
Fore
SplineSet
-5 469 m 1,0,-1
 -5 715 l 1,1,-1
 1924 715 l 1,2,-1
 1924 469 l 1,3,-1
 -5 469 l 1,0,-1
EndSplineSet
EndChar

StartChar: quoteleft
Encoding: 8216 8216 362
Width: 490
Flags: W
LayerCount: 2
Fore
SplineSet
207 962 m 1,0,-1
 25 1481 l 1,1,-1
 315 1481 l 1,2,-1
 418 962 l 1,3,-1
 207 962 l 1,0,-1
EndSplineSet
EndChar

StartChar: quoteright
Encoding: 8217 8217 363
Width: 490
Flags: W
LayerCount: 2
Fore
SplineSet
75 993 m 1,0,-1
 174 1481 l 1,1,-1
 463 1481 l 1,2,-1
 274 993 l 1,3,-1
 75 993 l 1,0,-1
EndSplineSet
EndChar

StartChar: quotesinglbase
Encoding: 8218 8218 364
Width: 500
Flags: W
LayerCount: 2
Fore
SplineSet
74 -244 m 1,0,-1
 173 243 l 1,1,-1
 473 243 l 1,2,3
 298 -244 l 1,4,-1
 74 -244 l 1,0,-1
EndSplineSet
EndChar

StartChar: quotedblleft
Encoding: 8220 8220 365
Width: 844
Flags: W
LayerCount: 2
Fore
SplineSet
207 962 m 1,0,-1
 25 1481 l 1,1,-1
 315 1481 l 1,2,-1
 418 962 l 1,3,-1
 207 962 l 1,0,-1
584 962 m 1,4,-1
 402 1481 l 1,5,-1
 693 1481 l 1,6,-1
 795 962 l 1,7,-1
 584 962 l 1,4,-1
EndSplineSet
EndChar

StartChar: quotedblright
Encoding: 8221 8221 366
Width: 843
Flags: W
LayerCount: 2
Fore
SplineSet
75 993 m 1,0,-1
 174 1481 l 1,1,-1
 463 1481 l 1,2,-1
 274 993 l 1,3,-1
 75 993 l 1,0,-1
459 993 m 1,4,-1
 558 1481 l 1,5,-1
 847 1481 l 1,6,-1
 658 993 l 1,7,-1
 459 993 l 1,4,-1
EndSplineSet
EndChar

StartChar: quotedblbase
Encoding: 8222 8222 367
Width: 869
Flags: W
LayerCount: 2
Fore
SplineSet
58 -244 m 1,0,-1
 158 243 l 1,1,-1
 468 243 l 1,2,-1
 227 -244 l 1,3,-1
 58 -244 l 1,0,-1
435 -244 m 1,4,-1
 535 243 l 1,5,-1
 844 243 l 1,6,-1
 605 -244 l 1,7,-1
 435 -244 l 1,4,-1
EndSplineSet
EndChar

StartChar: daggerdbl
Encoding: 8225 8225 368
Width: 1163
Flags: W
LayerCount: 2
Fore
SplineSet
453 -47 m 1,0,-1
 453 336 l 1,1,-1
 112 336 l 1,2,-1
 112 543 l 1,3,-1
 458 543 l 1,4,-1
 458 860 l 1,5,-1
 112 860 l 1,6,-1
 112 1067 l 1,7,-1
 456 1067 l 1,8,-1
 456 1436 l 1,9,-1
 712 1436 l 1,10,-1
 712 1064 l 1,11,-1
 1053 1064 l 1,12,-1
 1053 857 l 1,13,-1
 708 857 l 1,14,-1
 708 540 l 1,15,-1
 1053 540 l 1,16,-1
 1053 334 l 1,17,-1
 710 334 l 1,18,-1
 710 -47 l 1,19,-1
 453 -47 l 1,0,-1
EndSplineSet
EndChar

StartChar: bullet
Encoding: 8226 8226 369
Width: 1111
Flags: W
LayerCount: 2
Fore
SplineSet
555 208 m 0,0,1
 363 208 363 208 226 339.5 c 128,-1,2
 89 471 89 471 89 655 c 0,3,4
 89 776 89 776 152 879 c 128,-1,5
 215 982 215 982 322.5 1041.5 c 128,-1,6
 430 1101 430 1101 555 1101 c 0,7,8
 682 1101 682 1101 790 1041 c 128,-1,9
 898 981 898 981 960 878.5 c 128,-1,10
 1022 776 1022 776 1022 655 c 0,11,12
 1022 470 1022 470 885 339 c 128,-1,13
 748 208 748 208 555 208 c 0,0,1
EndSplineSet
EndChar

StartChar: guilsinglleft
Encoding: 8249 8249 370
Width: 679
Flags: W
LayerCount: 2
Fore
SplineSet
607 135 m 1,0,1
 207 456 207 456 105 532 c 1,2,-1
 105 644 l 1,3,4
 607 1052 l 1,5,-1
 607 774 l 1,6,-1
 381 593 l 1,7,8
 555 457 555 457 607 415 c 1,9,-1
 607 135 l 1,0,1
EndSplineSet
EndChar

StartChar: guilsinglright
Encoding: 8250 8250 371
Width: 679
Flags: W
LayerCount: 2
Fore
SplineSet
108 135 m 1,0,-1
 108 412 l 1,1,-1
 333 593 l 1,2,3
 180 713 180 713 108 770 c 1,4,-1
 108 1052 l 1,5,6
 508 730 508 730 610 654 c 1,7,-1
 610 542 l 1,8,9
 108 135 l 1,0,-1
EndSplineSet
EndChar

StartChar: fraction
Encoding: 8260 8260 372
Width: 792
Flags: W
LayerCount: 2
Fore
SplineSet
-138 -13 m 1,0,-1
 663 1407 l 1,1,-1
 923 1407 l 1,2,-1
 123 -13 l 1,3,-1
 -138 -13 l 1,0,-1
EndSplineSet
EndChar

StartChar: Euro
Encoding: 8364 8364 373
Width: 1171
Flags: W
LayerCount: 2
Fore
SplineSet
773 -24 m 1,0,1
 501 -24 501 -24 335 101 c 128,-1,2
 169 226 169 226 108 488 c 1,3,-1
 -42 488 l 1,4,-1
 -2 651 l 1,5,-1
 82 651 l 1,6,7
 80 673 80 673 80 696 c 0,8,9
 80 751 80 751 83 819 c 1,10,-1
 -38 819 l 1,11,-1
 -4 973 l 1,12,-1
 103 973 l 1,13,14
 154 1231 154 1231 323.5 1367.5 c 128,-1,15
 493 1504 493 1504 758 1504 c 0,16,17
 973 1504 973 1504 1169 1406 c 1,18,-1
 1169 1105 l 1,19,-1
 1066 1105 l 1,20,21
 1030 1181 1030 1181 956 1217.5 c 128,-1,22
 882 1254 882 1254 806 1254 c 0,23,24
 532 1254 532 1254 460 973 c 1,25,-1
 1030 973 l 1,26,-1
 995 819 l 1,27,-1
 432 819 l 1,28,29
 428 729 428 729 428 696 c 0,30,31
 428 662 428 662 429 651 c 1,32,-1
 968 651 l 1,33,-1
 930 488 l 1,34,-1
 469 488 l 1,35,36
 545 235 545 235 793 227 c 1,37,38
 825 227 825 227 859 232.5 c 128,-1,39
 893 238 893 238 937.5 251.5 c 128,-1,40
 982 265 982 265 1020.5 297.5 c 128,-1,41
 1059 330 1059 330 1079 376 c 1,42,-1
 1169 376 l 1,43,-1
 1169 72 l 1,44,45
 1014 -10 1014 -10 773 -24 c 1,0,1
EndSplineSet
EndChar

StartChar: trademark
Encoding: 8482 8482 374
Width: 1760
Flags: W
LayerCount: 2
Fore
SplineSet
788 768 m 1,0,-1
 788 1482 l 1,1,-1
 1068 1482 l 1,2,-1
 1230 1073 l 1,3,-1
 1397 1482 l 1,4,-1
 1664 1482 l 1,5,-1
 1664 768 l 1,6,-1
 1495 768 l 1,7,-1
 1495 1325 l 1,8,-1
 1482 1325 l 1,9,-1
 1292 877 l 1,10,-1
 1165 877 l 1,11,-1
 974 1330 l 1,12,-1
 957 1330 l 1,13,-1
 957 768 l 1,14,-1
 788 768 l 1,0,-1
295 768 m 1,15,-1
 295 1336 l 1,16,-1
 90 1336 l 1,17,-1
 90 1482 l 1,18,-1
 678 1482 l 1,19,-1
 678 1336 l 1,20,-1
 472 1336 l 1,21,-1
 472 768 l 1,22,-1
 295 768 l 1,15,-1
EndSplineSet
EndChar

StartChar: product
Encoding: 8719 8719 375
Width: 1357
Flags: W
LayerCount: 2
Fore
SplineSet
100 0 m 1,0,-1
 100 1481 l 1,1,-1
 1257 1481 l 1,2,-1
 1257 0 l 1,3,-1
 963 0 l 1,4,-1
 963 1234 l 1,5,-1
 395 1234 l 1,6,-1
 395 0 l 1,7,-1
 100 0 l 1,0,-1
EndSplineSet
EndChar

StartChar: integral
Encoding: 8747 8747 376
Width: 861
Flags: W
LayerCount: 2
Fore
SplineSet
214 -396 m 0,0,1
 175 -396 175 -396 115.5 -385 c 128,-1,2
 56 -374 56 -374 26 -364 c 1,3,-1
 50 -174 l 1,4,5
 59 -178 59 -178 92 -185 c 128,-1,6
 125 -192 125 -192 146 -192 c 0,7,8
 192 -192 192 -192 219.5 -175 c 128,-1,9
 247 -158 247 -158 263.5 -109 c 128,-1,10
 280 -60 280 -60 280 27 c 2,11,-1
 280 1075 l 2,12,13
 280 1274 280 1274 381.5 1384 c 128,-1,14
 483 1494 483 1494 655 1494 c 0,15,16
 695 1494 695 1494 752.5 1486 c 128,-1,17
 810 1478 810 1478 836 1469 c 1,18,-1
 814 1276 l 1,19,20
 806 1280 806 1280 773.5 1286.5 c 128,-1,21
 741 1293 741 1293 720 1293 c 0,22,23
 684 1293 684 1293 659 1279 c 128,-1,24
 634 1265 634 1265 620 1243.5 c 128,-1,25
 606 1222 606 1222 598.5 1183 c 128,-1,26
 591 1144 591 1144 589 1108 c 128,-1,27
 587 1072 587 1072 587 1015 c 2,28,-1
 587 81 l 2,29,30
 587 -172 587 -172 497.5 -284 c 128,-1,31
 408 -396 408 -396 214 -396 c 0,0,1
EndSplineSet
EndChar

StartChar: uniFB01
Encoding: 64257 64257 377
Width: 1339
Flags: W
LayerCount: 2
Fore
SplineSet
1037 1224 m 128,-1,1
 956 1224 956 1224 913 1263 c 128,-1,2
 870 1302 870 1302 870 1364 c 0,3,4
 870 1427 870 1427 913 1465.5 c 128,-1,5
 956 1504 956 1504 1037 1504 c 128,-1,6
 1118 1504 1118 1504 1161.5 1465.5 c 128,-1,7
 1205 1427 1205 1427 1205 1364 c 0,8,9
 1205 1302 1205 1302 1161.5 1263 c 128,-1,0
 1118 1224 1118 1224 1037 1224 c 128,-1,1
172 0 m 1,10,-1
 172 835 l 1,11,-1
 26 835 l 1,12,-1
 26 1035 l 1,13,-1
 172 1035 l 1,14,-1
 172 1076 l 2,15,16
 172 1265 172 1265 264.5 1354 c 128,-1,17
 357 1443 357 1443 557 1443 c 0,18,19
 632 1443 632 1443 751 1430 c 1,20,-1
 751 1214 l 1,21,22
 649 1225 649 1225 617 1225 c 0,23,24
 541 1225 541 1225 506.5 1185 c 128,-1,25
 472 1145 472 1145 472 1035 c 1,26,-1
 1192 1035 l 1,27,-1
 1192 0 l 1,28,-1
 883 0 l 1,29,-1
 883 835 l 1,30,-1
 481 835 l 1,31,-1
 481 0 l 1,32,-1
 172 0 l 1,10,-1
EndSplineSet
EndChar

StartChar: uniFB02
Encoding: 64258 64258 378
Width: 1370
Flags: W
LayerCount: 2
Fore
SplineSet
1241 -2 m 2,0,1
 1162 -2 1162 -2 1101 8.5 c 128,-1,2
 1040 19 1040 19 999.5 34.5 c 128,-1,3
 959 50 959 50 931 78 c 128,-1,4
 903 106 903 106 888.5 130 c 128,-1,5
 874 154 874 154 866.5 194.5 c 128,-1,6
 859 235 859 235 857.5 261.5 c 128,-1,7
 856 288 856 288 856 334 c 2,8,-1
 856 1207 l 1,9,10
 849 1208 849 1208 837 1209 c 128,-1,11
 825 1210 825 1210 809.5 1211 c 128,-1,12
 794 1212 794 1212 776 1213.5 c 128,-1,13
 758 1215 758 1215 740 1216.5 c 128,-1,14
 722 1218 722 1218 704.5 1219 c 128,-1,15
 687 1220 687 1220 671 1221 c 128,-1,16
 655 1222 655 1222 643.5 1223 c 128,-1,17
 632 1224 632 1224 624.5 1224.5 c 0,18,-1
 617 1225 l 1,19,20
 541 1225 541 1225 506.5 1185 c 128,-1,21
 472 1145 472 1145 472 1035 c 1,22,-1
 729 1035 l 1,23,-1
 729 835 l 1,24,-1
 481 835 l 1,25,-1
 481 0 l 1,26,-1
 172 0 l 1,27,-1
 172 835 l 1,28,-1
 26 835 l 1,29,-1
 26 1035 l 1,30,-1
 172 1035 l 1,31,-1
 172 1076 l 2,32,33
 172 1265 172 1265 264.5 1354 c 128,-1,34
 357 1443 357 1443 557 1443 c 0,35,36
 636 1443 636 1443 723 1437 c 128,-1,37
 810 1431 810 1431 867 1424.5 c 128,-1,38
 924 1418 924 1418 1021 1405 c 128,-1,39
 1118 1392 1118 1392 1164 1387 c 1,40,-1
 1164 340 l 2,41,42
 1164 268 1164 268 1200.5 240 c 128,-1,43
 1237 212 1237 212 1326 212 c 1,44,-1
 1326 -2 l 1,45,-1
 1241 -2 l 2,0,1
EndSplineSet
EndChar

StartChar: uniFB00
Encoding: 64256 64256 379
Width: 1442
Flags: W
LayerCount: 2
Fore
SplineSet
172 0 m 1,0,-1
 172 835 l 1,1,-1
 26 835 l 1,2,-1
 26 1035 l 1,3,-1
 172 1035 l 1,4,-1
 172 1076 l 2,5,6
 172 1265 172 1265 264.5 1354 c 128,-1,7
 357 1443 357 1443 557 1443 c 0,8,9
 632 1443 632 1443 751 1430 c 1,10,-1
 751 1214 l 1,11,12
 649 1225 649 1225 617 1225 c 0,13,14
 541 1225 541 1225 506.5 1185 c 128,-1,15
 472 1145 472 1145 472 1035 c 1,16,-1
 868 1035 l 1,17,-1
 868 1076 l 2,18,19
 868 1265 868 1265 960.5 1354 c 128,-1,20
 1053 1443 1053 1443 1253 1443 c 0,21,22
 1328 1443 1328 1443 1447 1430 c 1,23,-1
 1447 1214 l 1,24,25
 1345 1225 1345 1225 1313 1225 c 0,26,27
 1237 1225 1237 1225 1202.5 1185 c 128,-1,28
 1168 1145 1168 1145 1168 1035 c 1,29,-1
 1425 1035 l 1,30,-1
 1425 835 l 1,31,-1
 1177 835 l 1,32,-1
 1177 0 l 1,33,-1
 868 0 l 1,34,-1
 868 835 l 1,35,-1
 481 835 l 1,36,-1
 481 0 l 1,37,-1
 172 0 l 1,0,-1
EndSplineSet
EndChar

StartChar: Dcroat
Encoding: 272 272 380
Width: 1514
Flags: W
LayerCount: 2
Fore
SplineSet
0 658 m 1,0,-1
 0 852 l 1,1,-1
 704 852 l 1,2,-1
 704 658 l 1,3,-1
 0 658 l 1,0,-1
479 249 m 1,4,-1
 632 249 l 2,5,6
 867 249 867 249 972 362 c 128,-1,7
 1077 475 1077 475 1077 738 c 0,8,9
 1077 982 1077 982 973 1107 c 128,-1,10
 869 1232 869 1232 680 1232 c 2,11,-1
 479 1232 l 1,12,-1
 479 249 l 1,4,-1
156 0 m 1,13,-1
 156 1481 l 1,14,-1
 596 1481 l 2,15,16
 794 1481 794 1481 941 1441 c 128,-1,17
 1088 1401 1088 1401 1193.5 1314 c 128,-1,18
 1299 1227 1299 1227 1352 1083.5 c 128,-1,19
 1405 940 1405 940 1405 739 c 0,20,21
 1405 577 1405 577 1369 452.5 c 128,-1,22
 1333 328 1333 328 1266 242.5 c 128,-1,23
 1199 157 1199 157 1098 102.5 c 128,-1,24
 997 48 997 48 873.5 24 c 128,-1,25
 750 0 750 0 594 0 c 2,26,-1
 156 0 l 1,13,-1
EndSplineSet
EndChar

StartChar: uniFB03
Encoding: 64259 64259 384
Width: 2075
Flags: W
LayerCount: 2
Fore
SplineSet
1773 1224 m 128,-1,1
 1692 1224 1692 1224 1649 1263 c 128,-1,2
 1606 1302 1606 1302 1606 1364 c 0,3,4
 1606 1427 1606 1427 1649 1465.5 c 128,-1,5
 1692 1504 1692 1504 1773 1504 c 128,-1,6
 1854 1504 1854 1504 1897.5 1465.5 c 128,-1,7
 1941 1427 1941 1427 1941 1364 c 0,8,9
 1941 1302 1941 1302 1897.5 1263 c 128,-1,0
 1854 1224 1854 1224 1773 1224 c 128,-1,1
172 0 m 1,10,-1
 172 835 l 1,11,-1
 26 835 l 1,12,-1
 26 1035 l 1,13,-1
 172 1035 l 1,14,-1
 172 1076 l 2,15,16
 172 1265 172 1265 264.5 1354 c 128,-1,17
 357 1443 357 1443 557 1443 c 0,18,19
 632 1443 632 1443 751 1430 c 1,20,-1
 751 1214 l 1,21,22
 649 1225 649 1225 617 1225 c 0,23,24
 541 1225 541 1225 506.5 1185 c 128,-1,25
 472 1145 472 1145 472 1035 c 1,26,-1
 908 1035 l 1,27,-1
 908 1076 l 2,28,29
 908 1265 908 1265 1000.5 1354 c 128,-1,30
 1093 1443 1093 1443 1293 1443 c 0,31,32
 1368 1443 1368 1443 1487 1430 c 1,33,-1
 1487 1214 l 1,34,35
 1385 1225 1385 1225 1353 1225 c 0,36,37
 1277 1225 1277 1225 1242.5 1185 c 128,-1,38
 1208 1145 1208 1145 1208 1035 c 1,39,-1
 1928 1035 l 1,40,-1
 1928 0 l 1,41,-1
 1619 0 l 1,42,-1
 1619 835 l 1,43,-1
 1217 835 l 1,44,-1
 1217 0 l 1,45,-1
 908 0 l 1,46,-1
 908 835 l 1,47,-1
 481 835 l 1,48,-1
 481 0 l 1,49,-1
 172 0 l 1,10,-1
EndSplineSet
EndChar

StartChar: uniFB04
Encoding: 64260 64260 385
Width: 2030
Flags: W
LayerCount: 2
Fore
SplineSet
1905 -2 m 2,0,1
 1844 -2 1844 -2 1793 4.5 c 128,-1,2
 1742 11 1742 11 1704.5 20.5 c 128,-1,3
 1667 30 1667 30 1638 48 c 128,-1,4
 1609 66 1609 66 1589.5 82.5 c 128,-1,5
 1570 99 1570 99 1556.5 125 c 128,-1,6
 1543 151 1543 151 1536 171.5 c 128,-1,7
 1529 192 1529 192 1525.5 224 c 128,-1,8
 1522 256 1522 256 1521 277.5 c 128,-1,9
 1520 299 1520 299 1520 334 c 2,10,-1
 1520 1207 l 1,11,12
 1512 1208 1512 1208 1494.5 1209.5 c 128,-1,13
 1477 1211 1477 1211 1455.5 1212.5 c 128,-1,14
 1434 1214 1434 1214 1410 1216 c 128,-1,15
 1386 1218 1386 1218 1363.5 1219.5 c 128,-1,16
 1341 1221 1341 1221 1323 1222 c 128,-1,17
 1305 1223 1305 1223 1293.5 1224 c 128,-1,18
 1282 1225 1282 1225 1281 1225 c 0,19,20
 1231 1225 1231 1225 1201 1210 c 128,-1,21
 1171 1195 1171 1195 1153.5 1152.5 c 128,-1,22
 1136 1110 1136 1110 1136 1035 c 1,23,-1
 1393 1035 l 1,24,-1
 1393 835 l 1,25,-1
 1145 835 l 1,26,-1
 1145 0 l 1,27,-1
 836 0 l 1,28,-1
 836 835 l 1,29,-1
 481 835 l 1,30,-1
 481 0 l 1,31,-1
 172 0 l 1,32,-1
 172 835 l 1,33,-1
 26 835 l 1,34,-1
 26 1035 l 1,35,-1
 172 1035 l 1,36,-1
 172 1076 l 2,37,38
 172 1265 172 1265 264.5 1354 c 128,-1,39
 357 1443 357 1443 557 1443 c 0,40,41
 632 1443 632 1443 751 1430 c 1,42,-1
 751 1214 l 1,43,44
 649 1225 649 1225 617 1225 c 0,45,46
 541 1225 541 1225 506.5 1185 c 128,-1,47
 472 1145 472 1145 472 1035 c 1,48,-1
 836 1035 l 1,49,-1
 836 1076 l 2,50,51
 836 1202 836 1202 877 1283 c 128,-1,52
 918 1364 918 1364 1003 1403.5 c 128,-1,53
 1088 1443 1088 1443 1221 1443 c 0,54,55
 1301 1443 1301 1443 1387.5 1437 c 128,-1,56
 1474 1431 1474 1431 1531 1424.5 c 128,-1,57
 1588 1418 1588 1418 1685.5 1405 c 128,-1,58
 1783 1392 1783 1392 1828 1387 c 1,59,-1
 1828 340 l 2,60,61
 1828 268 1828 268 1864.5 240 c 128,-1,62
 1901 212 1901 212 1990 212 c 1,63,-1
 1990 -2 l 1,64,-1
 1905 -2 l 2,0,1
EndSplineSet
EndChar

StartChar: glyph386
Encoding: 65539 -1 386
Width: 1622
Flags: W
LayerCount: 2
Fore
SplineSet
344 277 m 1,0,-1
 512 819 l 1,1,-1
 53 1157 l 1,2,-1
 625 1168 l 1,3,-1
 803 1710 l 1,4,-1
 991 1168 l 1,5,-1
 1563 1168 l 1,6,-1
 1102 819 l 1,7,-1
 1272 277 l 1,8,-1
 803 604 l 1,9,-1
 344 277 l 1,0,-1
EndSplineSet
EndChar

StartChar: approxequal
Encoding: 8776 8776 392
Width: 1212
Flags: W
LayerCount: 2
Fore
SplineSet
276 204 m 1,0,-1
 120 224 l 1,1,2
 138 358 138 358 214.5 436 c 128,-1,3
 291 514 291 514 410 514 c 0,4,5
 509 514 509 514 631 443 c 0,6,7
 751 373 751 373 807 382 c 0,8,9
 923 399 923 399 936 517 c 1,10,-1
 1092 495 l 1,11,12
 1075 365 1075 365 1000 287 c 128,-1,13
 925 209 925 209 807 209 c 0,14,15
 713 209 713 209 573 288 c 1,16,17
 465 351 465 351 419 351 c 0,18,19
 306 351 306 351 276 204 c 1,0,-1
276 593 m 1,20,-1
 120 614 l 1,21,22
 138 746 138 746 215 823 c 128,-1,23
 292 900 292 900 412 900 c 0,24,25
 512 900 512 900 631 829 c 0,26,27
 743 762 743 762 799 765 c 1,28,29
 919 769 919 769 936 904 c 1,30,-1
 1092 883 l 1,31,32
 1075 752 1075 752 1000 673.5 c 128,-1,33
 925 595 925 595 808 595 c 0,34,35
 712 595 712 595 573 675 c 1,36,37
 466 735 466 735 419 735 c 0,38,39
 305 735 305 735 276 593 c 1,20,-1
EndSplineSet
EndChar

StartChar: dagger
Encoding: 8224 8224 393
Width: 1162
Flags: W
LayerCount: 2
Fore
SplineSet
451 -49 m 1,0,-1
 451 821 l 1,1,-1
 111 821 l 1,2,-1
 111 1028 l 1,3,-1
 455 1028 l 1,4,-1
 455 1436 l 1,5,-1
 711 1436 l 1,6,-1
 711 1026 l 1,7,-1
 1052 1026 l 1,8,-1
 1052 818 l 1,9,-1
 709 818 l 1,10,-1
 709 -49 l 1,11,-1
 451 -49 l 1,0,-1
EndSplineSet
EndChar

StartChar: florin
Encoding: 402 402 395
Width: 1174
Flags: W
LayerCount: 2
Fore
SplineSet
225 -264 m 0,0,1
 121 -264 121 -264 47 -243 c 1,2,-1
 67 -1 l 1,3,4
 76 -2 76 -2 100.5 -8 c 128,-1,5
 125 -14 125 -14 150.5 -18 c 128,-1,6
 176 -22 176 -22 200 -22 c 0,7,8
 342 -22 342 -22 370 259 c 1,9,10
 420 589 420 589 431 655 c 1,11,-1
 263 655 l 1,12,-1
 276 837 l 1,13,-1
 458 837 l 1,14,15
 466 893 466 893 489 1039 c 0,16,17
 503 1131 503 1131 534.5 1201.5 c 128,-1,18
 566 1272 566 1272 608 1316 c 128,-1,19
 650 1360 650 1360 705.5 1388 c 128,-1,20
 761 1416 761 1416 818.5 1427 c 128,-1,21
 876 1438 876 1438 944 1438 c 0,22,23
 1030 1438 1030 1438 1107 1421 c 1,24,-1
 1087 1178 l 1,25,26
 1014 1197 1014 1197 961 1197 c 0,27,28
 924 1197 924 1197 896.5 1186 c 128,-1,29
 869 1175 869 1175 852.5 1158 c 128,-1,30
 836 1141 836 1141 824 1110 c 128,-1,31
 812 1079 812 1079 806.5 1051.5 c 128,-1,32
 801 1024 801 1024 794 979 c 0,33,34
 792 971 792 971 783.5 905 c 128,-1,35
 775 839 775 839 775 837 c 1,36,-1
 1008 837 l 1,37,-1
 995 655 l 1,38,-1
 746 655 l 1,39,40
 742 629 742 629 708 415 c 128,-1,41
 674 201 674 201 670 176 c 0,42,43
 634 -59 634 -59 522 -161.5 c 128,-1,44
 410 -264 410 -264 225 -264 c 0,0,1
EndSplineSet
EndChar

StartChar: greaterequal
Encoding: 8805 8805 396
Width: 1364
Flags: W
LayerCount: 2
Fore
SplineSet
203 254 m 1,0,-1
 203 487 l 1,1,-1
 886 712 l 1,2,-1
 203 943 l 1,3,-1
 203 1175 l 1,4,-1
 1192 808 l 1,5,-1
 1192 618 l 1,6,-1
 203 254 l 1,0,-1
199 1 m 1,7,-1
 199 176 l 1,8,-1
 1195 176 l 1,9,-1
 1195 1 l 1,10,-1
 199 1 l 1,7,-1
EndSplineSet
EndChar

StartChar: infinity
Encoding: 8734 8734 397
Width: 1508
Flags: W
LayerCount: 2
Fore
SplineSet
1102 204 m 0,0,1
 902 204 902 204 755 431 c 1,2,3
 605 210 605 210 409 210 c 0,4,5
 265 210 265 210 170.5 308 c 128,-1,6
 76 406 76 406 76 561 c 0,7,8
 76 707 76 707 173 807.5 c 128,-1,9
 270 908 270 908 412 908 c 0,10,11
 613 908 613 908 757 682 c 1,12,13
 909 903 909 903 1106 903 c 1,14,15
 1252 901 1252 901 1344.5 805 c 128,-1,16
 1437 709 1437 709 1437 554 c 0,17,18
 1437 406 1437 406 1339 305 c 128,-1,19
 1241 204 1241 204 1102 204 c 0,0,1
430 377 m 0,20,21
 553 377 553 377 671 556 c 1,22,23
 613 648 613 648 554.5 696 c 128,-1,24
 496 744 496 744 427 744 c 0,25,26
 350 744 350 744 302.5 690.5 c 128,-1,27
 255 637 255 637 255 557 c 0,28,29
 255 479 255 479 304 428 c 128,-1,30
 353 377 353 377 430 377 c 0,20,21
1086 370 m 0,31,32
 1161 370 1161 370 1208.5 423.5 c 128,-1,33
 1256 477 1256 477 1256 552 c 0,34,35
 1256 633 1256 633 1208 685.5 c 128,-1,36
 1160 738 1160 738 1084 738 c 0,37,38
 961 738 961 738 842 554 c 1,39,40
 905 458 905 458 962.5 414 c 128,-1,41
 1020 370 1020 370 1086 370 c 0,31,32
EndSplineSet
EndChar

StartChar: lessequal
Encoding: 8804 8804 398
Width: 1375
Flags: W
LayerCount: 2
Fore
SplineSet
1203 254 m 1,0,-1
 204 618 l 1,1,-1
 204 809 l 1,2,-1
 1203 1175 l 1,3,-1
 1203 943 l 1,4,-1
 513 712 l 1,5,-1
 1203 487 l 1,6,-1
 1203 254 l 1,0,-1
199 1 m 1,7,-1
 199 176 l 1,8,-1
 1207 176 l 1,9,-1
 1207 1 l 1,10,-1
 199 1 l 1,7,-1
EndSplineSet
EndChar

StartChar: lozenge
Encoding: 9674 9674 399
Width: 1108
Flags: W
LayerCount: 2
Fore
SplineSet
452 -30 m 1,0,-1
 66 672 l 1,1,-1
 456 1377 l 1,2,-1
 652 1377 l 1,3,-1
 1042 673 l 1,4,-1
 648 -30 l 1,5,-1
 452 -30 l 1,0,-1
552 177 m 1,6,-1
 820 671 l 1,7,-1
 556 1169 l 1,8,-1
 289 674 l 1,9,-1
 552 177 l 1,6,-1
EndSplineSet
EndChar

StartChar: notequal
Encoding: 8800 8800 400
Width: 1218
Flags: W
LayerCount: 2
Fore
SplineSet
252 51 m 1,0,-1
 367 271 l 1,1,-1
 157 271 l 1,2,-1
 157 436 l 1,3,-1
 451 436 l 1,4,-1
 568 664 l 1,5,-1
 157 664 l 1,6,-1
 157 830 l 1,7,-1
 651 830 l 1,8,-1
 775 1072 l 1,9,-1
 966 1059 l 1,10,-1
 846 830 l 1,11,-1
 1063 830 l 1,12,-1
 1063 664 l 1,13,-1
 763 664 l 1,14,-1
 644 436 l 1,15,-1
 1063 436 l 1,16,-1
 1063 271 l 1,17,-1
 563 271 l 1,18,-1
 442 39 l 1,19,-1
 252 51 l 1,0,-1
EndSplineSet
EndChar

StartChar: perthousand
Encoding: 8240 8240 401
Width: 2901
Flags: W
LayerCount: 2
Fore
SplineSet
2477 197 m 0,0,1
 2542 197 2542 197 2579 263.5 c 128,-1,2
 2616 330 2616 330 2616 419 c 128,-1,3
 2616 508 2616 508 2578.5 572 c 128,-1,4
 2541 636 2541 636 2473 636 c 0,5,6
 2410 636 2410 636 2372.5 566.5 c 128,-1,7
 2335 497 2335 497 2335 407 c 0,8,9
 2335 321 2335 321 2372 259 c 128,-1,10
 2409 197 2409 197 2477 197 c 0,0,1
2477 0 m 0,11,12
 2385 0 2385 0 2310.5 35 c 128,-1,13
 2236 70 2236 70 2189.5 128.5 c 128,-1,14
 2143 187 2143 187 2118.5 260 c 128,-1,15
 2094 333 2094 333 2094 412 c 0,16,17
 2094 492 2094 492 2118.5 566 c 128,-1,18
 2143 640 2143 640 2189.5 699.5 c 128,-1,19
 2236 759 2236 759 2310.5 794.5 c 128,-1,20
 2385 830 2385 830 2477 830 c 128,-1,21
 2569 830 2569 830 2642.5 796 c 128,-1,22
 2716 762 2716 762 2761 704 c 128,-1,23
 2806 646 2806 646 2829.5 574.5 c 128,-1,24
 2853 503 2853 503 2853 424 c 0,25,26
 2853 344 2853 344 2828.5 269 c 128,-1,27
 2804 194 2804 194 2758.5 133.5 c 128,-1,28
 2713 73 2713 73 2639.5 36.5 c 128,-1,29
 2566 0 2566 0 2477 0 c 0,11,12
431 848 m 0,30,31
 495 848 495 848 533.5 917 c 128,-1,32
 572 986 572 986 572 1076 c 0,33,34
 572 1162 572 1162 535 1223.5 c 128,-1,35
 498 1285 498 1285 431 1285 c 0,36,37
 365 1285 365 1285 326 1217.5 c 128,-1,38
 287 1150 287 1150 287 1060 c 0,39,40
 287 973 287 973 324.5 910.5 c 128,-1,41
 362 848 362 848 431 848 c 0,30,31
431 651 m 0,42,43
 339 651 339 651 264.5 686 c 128,-1,44
 190 721 190 721 143.5 779.5 c 128,-1,45
 97 838 97 838 72.5 911 c 128,-1,46
 48 984 48 984 48 1063 c 0,47,48
 48 1143 48 1143 72.5 1216.5 c 128,-1,49
 97 1290 97 1290 143 1350 c 128,-1,50
 189 1410 189 1410 263.5 1445.5 c 128,-1,51
 338 1481 338 1481 431 1481 c 0,52,53
 523 1481 523 1481 596.5 1446.5 c 128,-1,54
 670 1412 670 1412 715.5 1354.5 c 128,-1,55
 761 1297 761 1297 784.5 1225 c 128,-1,56
 808 1153 808 1153 808 1074 c 0,57,58
 808 1010 808 1010 793 949 c 128,-1,59
 778 888 778 888 746.5 834 c 128,-1,60
 715 780 715 780 671 739 c 128,-1,61
 627 698 627 698 565 674.5 c 128,-1,62
 503 651 503 651 431 651 c 0,42,43
496 0 m 1,63,-1
 1259 1481 l 1,64,-1
 1512 1481 l 1,65,-1
 748 0 l 1,66,-1
 496 0 l 1,63,-1
1578 196 m 0,67,68
 1643 196 1643 196 1680 262.5 c 128,-1,69
 1717 329 1717 329 1717 418 c 128,-1,70
 1717 507 1717 507 1679.5 571 c 128,-1,71
 1642 635 1642 635 1574 635 c 0,72,73
 1511 635 1511 635 1473.5 565.5 c 128,-1,74
 1436 496 1436 496 1436 406 c 0,75,76
 1436 320 1436 320 1473 258 c 128,-1,77
 1510 196 1510 196 1578 196 c 0,67,68
1578 -1 m 0,78,79
 1486 -1 1486 -1 1411.5 34 c 128,-1,80
 1337 69 1337 69 1290.5 127.5 c 128,-1,81
 1244 186 1244 186 1219.5 259 c 128,-1,82
 1195 332 1195 332 1195 411 c 0,83,84
 1195 491 1195 491 1219.5 565 c 128,-1,85
 1244 639 1244 639 1290.5 698.5 c 128,-1,86
 1337 758 1337 758 1411.5 793.5 c 128,-1,87
 1486 829 1486 829 1578 829 c 128,-1,88
 1670 829 1670 829 1743.5 795 c 128,-1,89
 1817 761 1817 761 1862 703 c 128,-1,90
 1907 645 1907 645 1930.5 573.5 c 128,-1,91
 1954 502 1954 502 1954 423 c 0,92,93
 1954 343 1954 343 1929.5 268 c 128,-1,94
 1905 193 1905 193 1859.5 132.5 c 128,-1,95
 1814 72 1814 72 1740.5 35.5 c 128,-1,96
 1667 -1 1667 -1 1578 -1 c 0,78,79
EndSplineSet
EndChar

StartChar: uni0307
Encoding: 775 775 402
Width: 363
Flags: W
LayerCount: 2
Fore
SplineSet
181 202 m 128,-1,1
 100 202 100 202 57 241 c 128,-1,2
 14 280 14 280 14 342 c 0,3,4
 14 405 14 405 57 443.5 c 128,-1,5
 100 482 100 482 181 482 c 128,-1,6
 262 482 262 482 305.5 443.5 c 128,-1,7
 349 405 349 405 349 342 c 0,8,9
 349 280 349 280 305.5 241 c 128,-1,0
 262 202 262 202 181 202 c 128,-1,1
EndSplineSet
EndChar

StartChar: glyph403
Encoding: 65540 -1 403
Width: 807
Flags: W
LayerCount: 2
Fore
SplineSet
108 1160 m 1,0,-1
 -142 1506 l 1,1,-1
 158 1506 l 1,2,-1
 319 1160 l 1,3,-1
 108 1160 l 1,0,-1
512 1160 m 1,4,-1
 263 1506 l 1,5,-1
 571 1506 l 1,6,-1
 723 1160 l 1,7,-1
 512 1160 l 1,4,-1
EndSplineSet
EndChar

StartChar: minus
Encoding: 8722 8722 404
Width: 1158
Flags: W
LayerCount: 2
Fore
SplineSet
90 393 m 1,0,-1
 90 630 l 1,1,-1
 1071 630 l 1,2,-1
 1071 393 l 1,3,-1
 90 393 l 1,0,-1
EndSplineSet
EndChar

StartChar: uni02C9
Encoding: 713 713 405
Width: 540
Flags: W
LayerCount: 2
Fore
SplineSet
-8 1168 m 1,0,-1
 -8 1323 l 1,1,-1
 548 1323 l 1,2,-1
 548 1168 l 1,3,-1
 -8 1168 l 1,0,-1
EndSplineSet
EndChar

StartChar: uni2215
Encoding: 8725 8725 406
Width: 994
Flags: W
LayerCount: 2
Fore
SplineSet
80 0 m 1,0,-1
 612 1481 l 1,1,-1
 894 1481 l 1,2,-1
 359 0 l 1,3,-1
 80 0 l 1,0,-1
EndSplineSet
EndChar

StartChar: uni2219
Encoding: 8729 8729 407
Width: 363
Flags: W
LayerCount: 2
Fore
SplineSet
181 202 m 128,-1,1
 100 202 100 202 57 241 c 128,-1,2
 14 280 14 280 14 342 c 0,3,4
 14 405 14 405 57 443.5 c 128,-1,5
 100 482 100 482 181 482 c 128,-1,6
 262 482 262 482 305.5 443.5 c 128,-1,7
 349 405 349 405 349 342 c 0,8,9
 349 280 349 280 305.5 241 c 128,-1,0
 262 202 262 202 181 202 c 128,-1,1
EndSplineSet
EndChar
